<svg xmlns="http://www.w3.org/2000/svg" xmlns:xlink="http://www.w3.org/1999/xlink" width="42" height="57" viewBox="0 0 42 57">
    <defs>
        <filter id="water_bottles__a" width="166.7%" height="129.2%" x="-33.3%" y="-10.4%" filterUnits="objectBoundingBox">
            <feOffset dy="2" in="SourceAlpha" result="shadowOffsetOuter1"/>
            <feGaussianBlur in="shadowOffsetOuter1" result="shadowBlurOuter1" stdDeviation="2"/>
            <feComposite in="shadowBlurOuter1" in2="SourceAlpha" operator="out" result="shadowBlurOuter1"/>
            <feColorMatrix in="shadowBlurOuter1" values="0 0 0 0 0 0 0 0 0 0 0 0 0 0 0 0 0 0 0.5 0"/>
        </filter>
        <filter id="water_bottles__c" width="187.5%" height="187.5%" x="-43.8%" y="-31.2%" filterUnits="objectBoundingBox">
            <feOffset dy="2" in="SourceAlpha" result="shadowOffsetOuter1"/>
            <feGaussianBlur in="shadowOffsetOuter1" result="shadowBlurOuter1" stdDeviation="2"/>
            <feComposite in="shadowBlurOuter1" in2="SourceAlpha" operator="out" result="shadowBlurOuter1"/>
            <feColorMatrix in="shadowBlurOuter1" values="0 0 0 0 0 0 0 0 0 0 0 0 0 0 0 0 0 0 0.5 0"/>
        </filter>
        <rect id="water_bottles__d" width="16" height="16" x="0" y="0" rx="2"/>
        <path id="water_bottles__b" d="M32.936 13c2.271 1.356 3.978 3.552 4.737 6.189.207.387.327.834.327 1.311 0 1.398-.987 2.526-2.283 2.856C37.073 24.13 38 25.576 38 27.25c0 1.677-.927 3.12-2.286 3.894C37.016 31.471 38 32.596 38 34v15c0 1.656-1.344 3-3 3H20c-1.656 0-3-1.344-3-3V34c0-1.401.984-2.526 2.286-2.853C17.927 30.37 17 28.927 17 27.25c0-1.674.927-3.12 2.283-3.897C17.987 23.023 17 21.895 17 20.5c0-.474.12-.921.324-1.311.762-2.637 2.466-4.833 4.74-6.189zM32 4c.828 0 1.5.672 1.5 1.5v3c0 .828-.672 1.5-1.5 1.5h-9c-.828 0-1.5-.672-1.5-1.5v-3c0-.828.672-1.5 1.5-1.5z"/>
    </defs>
    <g fill="none" fill-rule="evenodd" transform="translate(-13 -2)">
        <use fill="#000" filter="url(#water_bottles__a)" xlink:href="#water_bottles__b"/>
        <path fill="#000000" stroke="#ffffff"  stroke-linejoin="square" stroke-width=".5" d="M32.868 13.251l-11.01.172c-2.053 1.335-3.588 3.391-4.312 5.882-.186.355-.296.763-.296 1.195 0 .624.217 1.19.577 1.64.377.471.91.816 1.518.97.306.079.619.105.925.082-.299.094-.589.22-.863.378-.654.375-1.203.915-1.584 1.564-.364.621-.573 1.343-.573 2.116 0 .774.21 1.496.574 2.117.38.649.93 1.188 1.586 1.563.28.16.574.288.88.382-.312-.026-.63-.001-.943.077-.61.154-1.143.496-1.52.967-.36.45-.577 1.017-.577 1.644l.005 15.169c.044.72.366 1.366.86 1.832.492.464 1.155.749 1.885.749l15.169-.005c.72-.044 1.366-.366 1.832-.86.464-.492.749-1.155.749-1.885l-.006-15.174c-.037-.59-.266-1.118-.624-1.537-.373-.438-.886-.757-1.467-.903-.316-.079-.638-.104-.953-.076.309-.094.608-.222.89-.383.656-.374 1.206-.912 1.586-1.56.365-.62.574-1.343.574-2.117 0-.773-.21-1.495-.574-2.116-.38-.649-.929-1.187-1.583-1.56-.277-.16-.57-.286-.873-.38.31.025.626-.001.935-.08.608-.155 1.141-.5 1.518-.971.36-.45.577-1.017.577-1.643 0-.434-.11-.84-.317-1.242-.735-2.551-2.377-4.68-4.565-6.007zM32 4.25l-9.132.007c-.314.033-.593.182-.794.403-.201.222-.324.517-.324.84l.007 3.132c.033.313.182.593.403.794.222.201.517.324.84.324l9.132-.007c.314-.033.593-.182.794-.403.201-.222.324-.517.324-.84l-.007-3.132c-.033-.313-.182-.593-.403-.794-.222-.201-.517-.324-.84-.324z"/>
        <path stroke="#FFF" d="M33.069 12.498l-11.434.178c-2.281 1.418-3.993 3.654-4.777 6.326-.226.449-.358.959-.358 1.498 0 .803.278 1.53.741 2.109.277.346.62.639 1.01.862-.425.364-.79.798-1.075 1.284-.429.733-.676 1.583-.676 2.495 0 .913.247 1.764.677 2.496.284.485.649.918 1.075 1.282-.39.222-.734.513-1.01.859-.464.578-.742 1.307-.742 2.113l.005 15.19c.05.927.46 1.759 1.095 2.357.627.59 1.471.953 2.4.953l15.19-.005c.927-.05 1.759-.46 2.357-1.095.59-.627.953-1.471.953-2.4l-.006-15.196c-.043-.768-.338-1.457-.803-2.002-.264-.31-.583-.573-.942-.777.426-.363.79-.795 1.074-1.279.43-.732.677-1.583.677-2.496 0-.912-.247-1.763-.677-2.495-.284-.485-.648-.918-1.074-1.282.39-.223.733-.516 1.01-.862.463-.579.741-1.307.741-2.111 0-.543-.132-1.053-.36-1.498-.816-2.787-2.646-5.099-5.071-6.504zM32 3.5l-9.167.007c-.52.043-.983.285-1.314.65C21.197 4.51 21 4.982 21 5.5l.007 3.167c.043.52.285.983.65 1.314.354.322.826.519 1.343.519l9.167-.007c.52-.043.983-.285 1.314-.65.322-.354.519-.826.519-1.343l-.007-3.167c-.043-.52-.285-.983-.65-1.314C32.99 3.697 32.518 3.5 32 3.5z"/>
    </g>
</svg>