<svg xmlns="http://www.w3.org/2000/svg" xmlns:xlink="http://www.w3.org/1999/xlink" width="53" height="53" viewBox="0 0 53 53">
    <defs>
        <filter id="wellness_check__a" width="131.1%" height="131.1%" x="-15.6%" y="-11.1%" filterUnits="objectBoundingBox">
            <feOffset dy="2" in="SourceAlpha" result="shadowOffsetOuter1"/>
            <feGaussianBlur in="shadowOffsetOuter1" result="shadowBlurOuter1" stdDeviation="2"/>
            <feComposite in="shadowBlurOuter1" in2="SourceAlpha" operator="out" result="shadowBlurOuter1"/>
            <feColorMatrix in="shadowBlurOuter1" values="0 0 0 0 0 0 0 0 0 0 0 0 0 0 0 0 0 0 0.5 0"/>
        </filter>
        <path id="wellness_check__b" d="M24.393 23.31l6.92 14.812 4.944-9.094h12.406l-.182.507c-3.083 8.427-9.128 15.453-17.014 19.759L28.34 51l-2.523-1.436c-8.055-4.583-14.243-11.852-17.48-20.536h13.196l2.859-5.718zm4.57-12.418c5.994-5.136 11.563-5.838 16.71-2.108 5.145 3.73 6.563 9.332 4.254 16.808H34.22l-2.866 4.795-7.022-14.632-4.972 9.837-11.948.293c-2.767-7.512-1.467-13.292 3.899-17.34 5.366-4.049 11.25-3.267 17.652 2.347z"/>
    </defs>
    <g fill="none" fill-rule="evenodd" transform="translate(-2 -4)">
        <use fill="#000" filter="url(#wellness_check__a)" xlink:href="#wellness_check__b"/>
        <path fill="#000000" stroke="#ffffff"  stroke-linejoin="square" stroke-width=".5" d="M24.385 23.884l-2.697 5.394-12.92.18c3.267 8.4 9.33 15.426 17.174 19.89l2.402 1.366 3.003-1.64.47-.26c7.602-4.296 13.428-11.162 16.49-19.536H36.407l-5.11 9.399-6.911-14.793zm4.413-12.804c-3.155-2.767-6.18-4.351-9.082-4.737-2.88-.383-5.63.421-8.255 2.401-2.63 1.985-4.268 4.392-4.906 7.227-.63 2.806-.283 6.026 1.03 9.66l11.62-.285 5.133-10.157 7.04 14.67 2.7-4.517h15.664c1.092-3.612 1.3-6.778.61-9.498-.694-2.746-2.305-5.03-4.827-6.858-2.515-1.823-5.134-2.568-7.858-2.225-2.744.346-5.59 1.791-8.869 4.319z"/>
        <path stroke="#FFF" d="M24.408 22.162l-3.183 6.366H7.612l.456 1.197c3.33 8.565 9.509 15.726 17.503 20.274l2.765 1.573 3.37-1.84.474-.263c7.763-4.386 13.708-11.392 16.77-19.762l.423-1.18H35.96l-4.613 8.486-6.94-14.851zm4.56-11.929c-3.176-2.71-6.23-4.245-9.154-4.634-3.067-.408-6.004.434-8.804 2.547-2.788 2.103-4.512 4.66-5.186 7.66-.688 3.057-.282 6.586 1.245 10.587l12.603-.308 4.649-9.199 6.985 14.556 3.197-5.35h15.79c1.285-3.99 1.538-7.466.787-10.432-.737-2.912-2.438-5.342-5.114-7.281-2.688-1.948-5.487-2.728-8.393-2.362-2.764.349-5.636 1.745-8.606 4.216z"/>
    </g>
</svg>