<?xml version="1.0" encoding="UTF-8"?>
<svg width="48px" height="48px" viewBox="0 0 48 48" version="1.1" xmlns="http://www.w3.org/2000/svg" xmlns:xlink="http://www.w3.org/1999/xlink">
    <!-- Generator: Sketch 61.2 (89653) - https://sketch.com -->
    <title>ic_work_type_escort</title>
    <desc>Created with Sketch.</desc>
    <g id="worktype-icons" stroke="none" stroke-width="1" fill="none" fill-rule="evenodd">
        <g id="ic_work_type_escort" fill="#000000" fill-rule="nonzero" stroke="#FFFFFF">
            <path d="M39.7440849,35.2266818 L28.4240849,45.7506818 L44.1000849,45.7506818 C44.4100849,43.6256818 44.2430849,41.5936818 43.6000849,39.6516818 C42.9620849,37.7226818 41.6800849,36.2506818 39.7450849,35.2266818 L39.7440849,35.2266818 Z M32.9050849,32.4916818 L17.8180849,45.7506818 L25.3880849,45.7506818 L37.9720849,34.2276818 C36.8980849,33.7566818 36.0640849,33.4326818 35.4710849,33.2576818 C34.8290849,33.0676818 33.9740849,32.8126818 32.9050849,32.4916818 Z M28.7920849,29.2726818 C27.3920849,29.7526818 25.9620849,29.9916818 24.5020849,29.9916818 C23.0616999,29.9944262 21.6313277,29.7523111 20.2720849,29.2756818 L20.2720849,31.4376818 L20.0690849,31.4756818 C12.8770849,32.8396818 8.24508491,34.7296818 6.18308491,37.1176818 C4.16508491,39.4556818 3.40208491,42.3276818 3.89508491,45.7506818 L14.8530849,45.7506818 L30.8250849,31.8136818 L28.7920849,31.1086818 L28.7920849,29.2726818 Z M33.5460849,14.9056818 L15.4560849,14.9056818 L15.4560849,19.2976818 C15.4560849,24.2930971 19.5056696,28.3426811 24.5010849,28.3426811 C29.4965002,28.3426811 33.5460849,24.2930971 33.5460849,19.2976818 L33.5460849,14.9056818 L33.5460849,14.9056818 Z M24.4520849,2.26568182 L14.4020849,5.90168182 L15.3700849,12.8516818 L33.5360849,12.8516818 L34.5980849,5.90168182 L24.4520849,2.26668182 L24.4520849,2.26568182 Z" id="Shape"></path>
        </g>
    </g>
</svg>