<?xml version="1.0" encoding="UTF-8"?>
<svg width="48px" height="48px" viewBox="0 0 48 48" version="1.1" xmlns="http://www.w3.org/2000/svg" xmlns:xlink="http://www.w3.org/1999/xlink">
    <g id="worktype-icons" stroke="none" stroke-width="1" fill="none" fill-rule="evenodd">
        <g id="ic_work_type_rebuild" fill="#000000" fill-rule="nonzero" stroke="#FFFFFF">
            <path d="M23.9030769,3.99356644 L1.61538462,21.8421818 L1.61538462,27.7101818 L5.85969231,24.2698741 L5.85969231,43.3775664 L5.86523077,43.4717203 C5.90641386,43.8202882 6.20193073,44.0827972 6.55292308,44.0827972 L21.2289231,44.0827972 L21.2289231,25.564028 L21.2270769,25.5649511 C19.6532308,26.0652587 18.0978462,27.1101818 16.5627692,28.7034126 L16.1658462,29.1151049 L16.1658462,28.1144895 L16.1695385,27.8818741 C16.2947179,24.029031 19.3910282,20.9359527 23.244,20.8147972 L23.472,20.812028 L27.7753846,20.812028 L27.7753846,20.4492587 L27.7827692,20.3292587 C27.8507019,19.7475854 28.343604,19.3090533 28.9292308,19.3092587 L30.4984615,19.3092587 L30.6193846,19.3166434 C31.201058,19.384576 31.63959,19.8774781 31.6393846,20.4631049 L31.6393846,25.8372587 L31.6310769,25.9572587 C31.5631851,26.5385823 31.070813,26.9769958 30.4855385,26.9772587 L28.9163077,26.9772587 L28.7953846,26.9698741 C28.2140611,26.9019823 27.7756475,26.4096102 27.7753846,25.8243357 L27.7753846,25.2206434 L25.9855385,25.2206434 L25.9855385,44.0827972 L41.2384615,44.0827972 L41.3326154,44.0781818 C41.6811833,44.0369987 41.9437768,43.7414819 41.9436923,43.3904895 L41.9436923,24.1443357 L46.3846154,27.712028 L46.3846154,21.8431049 L23.9030769,3.99356644 L23.9030769,3.99356644 Z" id="Path"></path>
        </g>
    </g>
</svg>