<?xml version="1.0" encoding="UTF-8"?>
<svg width="48px" height="48px" viewBox="0 0 48 48" version="1.1" xmlns="http://www.w3.org/2000/svg" xmlns:xlink="http://www.w3.org/1999/xlink">
    <!-- Generator: Sketch 61.2 (89653) - https://sketch.com -->
    <title>ic_search</title>
    <desc>Created with Sketch.</desc>
    <g id="ic_search" stroke="none" stroke-width="1" fill="none" fill-rule="evenodd">
        <path d="M22.41846,14 C27.0679,14 30.8369,17.76907 30.8369,22.41846 C30.8369,24.3168 30.205,26.1331 29.0462,27.6099 L29.0462,27.6099 L28.9855,27.6824 L33.9112,32.6079 L34,32.8222 L34,32.9918 L33.9112,33.2061 L33.2061,33.9112 L32.9918,34 L32.8222,34 L32.6079,33.9112 L27.6824,28.9855 L27.612,29.0445 C26.3299,30.0512 24.794,30.6593 23.17238,30.8035 L23.17238,30.8035 L22.79671,30.8285 L22.41846,30.8369 C17.76907,30.8369 14,27.0679 14,22.41846 C14,17.76907 17.76907,14 22.41846,14 Z M22.41846,15.73431 C18.72691,15.73431 15.73431,18.72691 15.73431,22.41846 C15.73431,26.11 18.72691,29.1026 22.41846,29.1026 C26.11,29.1026 29.1026,26.11 29.1026,22.41846 C29.1026,18.72691 26.11,15.73431 22.41846,15.73431 Z" id="Combined-Shape" fill="#000000"></path>
    </g>
</svg>