<?xml version="1.0" encoding="UTF-8"?>
<svg width="48px" height="48px" viewBox="0 0 48 48" version="1.1" xmlns="http://www.w3.org/2000/svg" xmlns:xlink="http://www.w3.org/1999/xlink">
    <g id="worktype-icons" stroke="none" stroke-width="1" fill="none" fill-rule="evenodd">
        <g id="ic_work_type_core_relief_items" fill="#000000" fill-rule="nonzero" stroke="#FFFFFF">
            <path d="M39.174,12.4602857 L33.1945714,12.4602857 L33.1945714,28.8917143 C33.1945714,29.9568349 32.3311206,30.8202857 31.266,30.8202857 L2.14285714,30.8202857 C1.78781695,30.8202857 1.5,31.1081027 1.5,31.4631429 L1.5,33.3977143 C1.5,33.7525714 1.788,34.0405714 2.14285714,34.0405714 L5.73171429,34.0405714 L5.706,34.278 C5.69142857,34.4151429 5.68371429,34.554 5.68371429,34.6945714 C5.68371429,36.7191429 7.242,38.3571429 9.15857143,38.3571429 C11.0751429,38.3571429 12.6334286,36.72 12.6334286,34.6945714 C12.6334286,34.554 12.6265714,34.4151429 12.612,34.278 L12.5862857,34.0405714 L36.0034286,34.0405714 L35.9777143,34.278 C35.9631429,34.4151429 35.9562857,34.554 35.9562857,34.6945714 C35.9562857,36.7191429 37.5137143,38.3571429 39.4311429,38.3571429 C41.3477143,38.3571429 42.906,36.72 42.906,34.6945714 C42.906,34.554 42.8982857,34.4151429 42.8837143,34.278 L42.858,34.0405714 L45.8571429,34.0405714 C46.2121831,34.0405714 46.5,33.7527545 46.5,33.3977143 L46.5,25.9234286 C46.5,25.5683884 46.2121831,25.2805714 45.8571429,25.2805714 L42.612,25.2805714 L39.174,12.4602857 Z M29.8457143,23.238 L22.6568571,23.238 C22.3018169,23.238 22.014,23.5258169 22.014,23.8808571 L22.014,27.6865714 C22.014,28.0422857 22.302,28.3294286 22.6568571,28.3294286 L29.8457143,28.3294286 C30.2007545,28.3294286 30.4885714,28.0416116 30.4885714,27.6865714 L30.4885714,23.8808571 C30.4885714,23.5258169 30.2007545,23.238 29.8457143,23.238 L29.8457143,23.238 Z M19.5891429,23.238 L12.4002857,23.238 C12.0452455,23.238 11.7574286,23.5258169 11.7574286,23.8808571 L11.7574286,27.6865714 C11.7574286,28.0422857 12.0445714,28.3294286 12.4002857,28.3294286 L19.5891429,28.3294286 C19.9441831,28.3294286 20.232,28.0416116 20.232,27.6865714 L20.232,23.8808571 C20.232,23.5258169 19.9441831,23.238 19.5891429,23.238 L19.5891429,23.238 Z M9.33171429,23.238 L2.14285714,23.238 C1.78781695,23.238 1.5,23.5258169 1.5,23.8808571 L1.5,27.6865714 C1.5,28.0422857 1.788,28.3294286 2.14285714,28.3294286 L9.33171429,28.3294286 C9.68675448,28.3294286 9.97457143,28.0416116 9.97457143,27.6865714 L9.97457143,23.8808571 C9.97457143,23.5258169 9.68675448,23.238 9.33171429,23.238 L9.33171429,23.238 Z M29.8457143,16.4408571 L22.6568571,16.4408571 C22.3018169,16.4408571 22.014,16.7286741 22.014,17.0837143 L22.014,20.8894286 C22.014,21.2442857 22.302,21.5322857 22.6568571,21.5322857 L29.8457143,21.5322857 C30.2007545,21.5322857 30.4885714,21.2444688 30.4885714,20.8894286 L30.4885714,17.0837143 C30.4885714,16.7286741 30.2007545,16.4408571 29.8457143,16.4408571 Z M19.5891429,16.4408571 L12.4002857,16.4408571 C12.0452455,16.4408571 11.7574286,16.7286741 11.7574286,17.0837143 L11.7574286,20.8894286 C11.7574286,21.2442857 12.0445714,21.5322857 12.4002857,21.5322857 L19.5891429,21.5322857 C19.9441831,21.5322857 20.232,21.2444688 20.232,20.8894286 L20.232,17.0837143 C20.232,16.7286741 19.9441831,16.4408571 19.5891429,16.4408571 L19.5891429,16.4408571 Z M9.33171429,16.4408571 L2.14285714,16.4408571 C1.78781695,16.4408571 1.5,16.7286741 1.5,17.0837143 L1.5,20.8894286 C1.5,21.2442857 1.788,21.5322857 2.14285714,21.5322857 L9.33171429,21.5322857 C9.68675448,21.5322857 9.97457143,21.2444688 9.97457143,20.8894286 L9.97457143,17.0837143 C9.97457143,16.7286741 9.68675448,16.4408571 9.33171429,16.4408571 L9.33171429,16.4408571 Z M29.8457143,9.64285714 L22.6568571,9.64285714 C22.3018169,9.64285714 22.014,9.93067409 22.014,10.2857143 L22.014,14.0914286 C22.014,14.4462857 22.302,14.7342857 22.6568571,14.7342857 L29.8457143,14.7342857 C30.2007545,14.7342857 30.4885714,14.4464688 30.4885714,14.0914286 L30.4885714,10.2857143 C30.4885714,9.93067409 30.2007545,9.64285714 29.8457143,9.64285714 L29.8457143,9.64285714 Z M19.5891429,9.64285714 L12.4002857,9.64285714 C12.0452455,9.64285714 11.7574286,9.93067409 11.7574286,10.2857143 L11.7574286,14.0914286 C11.7574286,14.4462857 12.0445714,14.7342857 12.4002857,14.7342857 L19.5891429,14.7342857 C19.9441831,14.7342857 20.232,14.4464688 20.232,14.0914286 L20.232,10.2857143 C20.232,9.93067409 19.9441831,9.64285714 19.5891429,9.64285714 L19.5891429,9.64285714 Z" id="Shape"></path>
        </g>
    </g>
</svg>