<svg xmlns="http://www.w3.org/2000/svg" xmlns:xlink="http://www.w3.org/1999/xlink" width="33" height="56" viewBox="0 0 33 56">
    <defs>
        <path id="prescription__b" d="M37.339 14.67V48c0 1.598-1.25 2.904-2.824 2.995l-.176.005H20.817c-1.598 0-2.903-1.249-2.995-2.824L17.817 48v-5.243h12.497v-20.85H17.817V14.67H37.34zm-8.144 8.345v18.509h-11.4l.032-18.509h11.368zM39 6.435c.513 0 .936.386.993.883l.007.117v4.993c0 .513-.386.935-.883.993l-.117.007H16c-.513 0-.936-.386-.993-.884L15 12.428V7.435c0-.513.386-.936.883-.993L16 6.435h23zM36.339 3c.552 0 1 .448 1 1v1.374H17.66V4c0-.552.448-1 1-1H36.34z"/>
    </defs>
    <g fill="none" fill-rule="evenodd" transform="translate(-11 -1)">
        <use fill="#000" filter="url(#prescription__a)" xlink:href="#prescription__b"/>
        <path fill="#000000" stroke="#ffffff"  stroke-linejoin="square" stroke-width=".5" d="M37.089 14.92H18.067v6.736h12.497v21.351H18.067l.005 5.162c.044.72.365 1.367.859 1.832.492.464 1.156.749 1.886.749l13.69-.005c.722-.044 1.368-.365 1.833-.859.464-.492.749-1.156.749-1.886V14.92zm-8.144 8.345H18.076l-.031 18.009h10.9V23.265zM39 6.685l-23.101.007c-.182.024-.343.114-.46.245-.117.132-.189.307-.189.498l.007 5.094c.024.182.114.343.245.46.132.117.307.189.498.189l23.101-.007c.182-.024.343-.114.46-.245.117-.132.189-.307.189-.498l-.007-5.094c-.024-.182-.114-.343-.245-.46-.132-.118-.307-.19-.498-.19zM36.339 3.25H18.66c-.207 0-.394.084-.53.22-.136.135-.22.323-.22.53v1.124H37.09V4c0-.207-.084-.395-.22-.53-.136-.136-.323-.22-.53-.22z"/>
        <path stroke="#FFF" d="M37.839 14.17H17.317v8.236h12.497v19.851H17.317l.005 5.933c.05.928.46 1.76 1.095 2.357.626.59 1.47.953 2.4.953l13.712-.005c.927-.05 1.76-.46 2.357-1.094.59-.627.953-1.472.953-2.401V14.17zm-8.144 8.345H17.328l-.035 19.509h12.402V22.515zM39 5.935l-23.143.007c-.388.036-.733.22-.978.496-.236.265-.379.614-.379.997l.007 5.136c.037.388.22.733.496.978.265.236.614.379.997.379l23.143-.007c.388-.037.733-.221.978-.497.236-.265.379-.614.379-.996l-.007-5.136c-.037-.388-.22-.733-.496-.978-.265-.236-.614-.38-.997-.38zM36.339 2.5H18.66c-.414 0-.789.168-1.06.44-.272.27-.44.646-.44 1.06v1.874H37.84V4c0-.414-.168-.79-.44-1.06-.271-.272-.646-.44-1.06-.44z"/>
    </g>
</svg>