<?xml version="1.0" encoding="UTF-8"?>
<svg width="48px" height="48px" viewBox="0 0 48 48" version="1.1" xmlns="http://www.w3.org/2000/svg" xmlns:xlink="http://www.w3.org/1999/xlink">
    <!-- Generator: Sketch 61.2 (89653) - https://sketch.com -->
    <title>ic_work_type_deferred_maintenance</title>
    <desc>Created with Sketch.</desc>
    <g id="worktype-icons" stroke="none" stroke-width="1" fill="none" fill-rule="evenodd">
        <g id="ic_work_type_deferred_maintenance" fill="#000000" fill-rule="nonzero" stroke="#FFFFFF">
            <path d="M23.03854,3.88875907 L1.36366,44.4218791 L38.46478,44.4237991 C34.9532263,42.6004979 32.7482646,38.974413 32.7451,35.0177191 C32.7451,33.8945191 32.92078,32.7943591 33.26254,31.7479591 C30.9194105,31.0312014 29.3175888,28.8702605 29.3131,26.4199591 C29.3111524,25.1411235 29.7525233,23.9011462 30.56206,22.9111591 C29.2125374,22.0721767 28.3918169,20.5958962 28.3915,19.0068391 C28.3915,17.8663591 28.81006,16.7892391 29.5531,15.9549991 L23.03854,3.88971907 L23.03854,3.88875907 Z M41.22094,30.6113191 C38.13646,30.6113191 35.63758,33.0977191 35.63758,36.1649191 C35.63758,39.2311591 38.13646,41.7175591 41.21998,41.7175591 C44.30446,41.7175591 46.80334,39.2311591 46.80334,36.1649191 C46.80334,33.0977191 44.30446,30.6113191 41.21998,30.6113191 L41.22094,30.6113191 Z M36.00334,22.8122651 C35.124776,22.8097295 34.2811971,23.1563601 33.6582478,23.7758885 C33.0352986,24.3954169 32.6840282,25.2370743 32.68174,26.1156391 C32.6840282,26.9942038 33.0352986,27.8358612 33.6582478,28.4553897 C34.2811971,29.0749181 35.124776,29.4215486 36.00334,29.419013 C36.881904,29.4215486 37.7254829,29.0749181 38.3484322,28.4553897 C38.9713814,27.8358612 39.3226518,26.9942038 39.32494,26.1156391 C39.3226518,25.2370743 38.9713814,24.3954169 38.3484322,23.7758885 C37.7254829,23.1563601 36.881904,22.8097295 36.00334,22.8122651 L36.00334,22.8122651 Z M33.39982,16.3495465 C32.7745909,16.3475191 32.1741734,16.5940013 31.7307191,17.0347549 C31.2872647,17.4755086 31.0371194,18.0744092 31.03534,18.6996391 C31.0371194,19.3248689 31.2872647,19.9237696 31.7307191,20.3645232 C32.1741734,20.8052769 32.7745909,21.051759 33.39982,21.0497316 C34.024883,21.0515039 34.6250538,20.8049089 35.0683003,20.3641829 C35.5115468,19.9234569 35.7615603,19.3247021 35.76334,18.6996391 C35.7615603,18.0745761 35.5115468,17.4758213 35.0683003,17.0350952 C34.6250538,16.5943692 34.024883,16.3477743 33.39982,16.3495465 Z" id="Shape"></path>
        </g>
    </g>
</svg>