<?xml version="1.0" encoding="UTF-8"?>
<svg width="36px" height="36px" viewBox="0 0 36 36" version="1.1" xmlns="http://www.w3.org/2000/svg" xmlns:xlink="http://www.w3.org/1999/xlink">
    <g id="icons" stroke="none" stroke-width="1" fill="none" fill-rule="evenodd">
        <g id="Vector" transform="translate(10.000000, 11.000000)" fill="#000000">
            <path d="M8,14.08 C8,14.08 0,9.6 0,4.16001 C0,3.19851 0.33332,2.26675 0.94284,1.52314 C1.55235,0.77953 2.40059,0.26996 3.34335,0.08108 C4.28611,-0.107802 5.26519,0.03566 6.11412,0.48707 C6.96306,0.93849 7.62945,1.66999 8,2.55721 L8,2.55721 C8.37054,1.66999 9.0369,0.93849 9.8859,0.48708 C10.7348,0.03566 11.7139,-0.107801 12.6566,0.08108 C13.5994,0.26996 14.4476,0.77952 15.0572,1.52314 C15.6667,2.26675 15.9998,3.19851 16,4.16001 C16,9.6 8,14.08 8,14.08 Z" id="Path"></path>
        </g>
    </g>
</svg>