<svg xmlns="http://www.w3.org/2000/svg" xmlns:xlink="http://www.w3.org/1999/xlink" version="1.1" width="35pt" height="35pt" viewBox="0 0 35 35">
<path transform="matrix(1,0,0,-1,0,35)" d="M17.5 0C27.164984 0 35 7.835016 35 17.5 35 27.164984 27.164984 35 17.5 35 7.835017 35 0 27.164984 0 17.5 0 7.835016 7.835017 0 17.5 0ZM26.459385 18.49213 22.249958 19.619606 18.578583 17.5 22.249958 15.380394 26.459385 16.50789C26.747616 16.585045 27.04382 16.41393 27.120976 16.125699 27.198128 15.837467 27.027016 15.541264 26.738781 15.464109L23.573475 14.616293 26.184777 13.108711C26.396454 12.986584 26.499615 12.737432 26.436226 12.501417 26.372838 12.265402 26.15873 12.101461 25.914353 12.10182 25.819664 12.101665 25.72665 12.126776 25.644906 12.174566L23.033268 13.682331 23.881539 10.517162C23.958844 10.228949 23.788022 9.932602 23.499875 9.855043 23.45403 9.84341 23.40694 9.837389 23.359642 9.837111 23.11574 9.837492 22.902333 10.001223 22.838803 10.236706L21.7108 14.445862 18.039486 16.565468V12.325306L21.120205 9.244574C21.324782 9.032761 21.321858 8.696074 21.11363 8.487848 20.905404 8.279623 20.568718 8.276695 20.356904 8.481272L18.039486 10.7987V7.783276C18.039486 7.485142 17.797802 7.243458 17.499669 7.243458 17.201537 7.243458 16.95985 7.485142 16.95985 7.783276V10.7987L14.642391 8.481283C14.506857 8.340954 14.30615 8.284674 14.117414 8.334076 13.928678 8.383478 13.781283 8.530872 13.731882 8.719608 13.68248 8.908344 13.738759 9.109051 13.879088 9.244585L16.95985 12.325306V16.565468L13.288538 14.445862 12.160535 10.236706C12.097006 10.001223 11.883598 9.837492 11.639697 9.837111 11.592399 9.837389 11.545309 9.84341 11.499463 9.855043 11.211317 9.932602 11.040495 10.228949 11.117801 10.517162L11.96607 13.682331 9.354431 12.174566C9.272704 12.126785 9.17971 12.101675 9.085041 12.10182 8.840661 12.101461 8.626555 12.265402 8.563167 12.501417 8.499779 12.737432 8.602938 12.986584 8.814613 13.108711L11.425864 14.616217 8.260555 15.464033C7.972858 15.541504 7.802135 15.837206 7.878893 16.125094 7.959042 16.410794 8.252282 16.580565 8.539954 16.507815L12.749379 15.380394 16.420758 17.5 12.749379 19.619606 8.539954 18.49211C8.494112 18.480477 8.447025 18.474455 8.399731 18.474177 8.128949 18.474673 7.900386 18.6756 7.865191 18.944087 7.829997 19.21257 7.99905 19.46562 8.260555 19.53589L11.425864 20.383708 8.814613 21.891289C8.647651 21.98767 8.544813 22.165829 8.54486 22.358614 8.544907 22.5514 8.64783 22.729508 8.814839 22.82581 8.98185 22.922112 9.187556 22.921967 9.354431 22.825434L11.96607 21.317669 11.117801 24.482838C11.040355 24.770779 11.210997 25.066987 11.49894 25.144433 11.786882 25.221879 12.083089 25.051238 12.160535 24.763295L13.288538 20.554139 16.95985 18.434533V22.674695L13.879131 25.755457C13.674555 25.96727 13.677481 26.303959 13.885708 26.512185 14.093933 26.72041 14.430621 26.723336 14.642434 26.51876L16.95985 24.2013V27.216723C16.95985 27.514857 17.201537 27.75654 17.499669 27.75654 17.797802 27.75654 18.039486 27.514857 18.039486 27.216723V24.2013L20.356947 26.51875C20.56876 26.723324 20.905447 26.7204 21.113675 26.512173 21.3219 26.303948 21.324826 25.967259 21.12025 25.755448L18.039486 22.674695V18.434533L21.7108 20.554118 22.838803 24.763272C22.920243 25.0479 23.212662 25.216725 23.499875 25.144934 23.788022 25.067376 23.958844 24.771029 23.881539 24.482815L23.033268 21.317646 25.644906 22.825413C25.811783 22.921946 26.01749 22.922089 26.184498 22.825787 26.35151 22.729485 26.454434 22.551379 26.45448 22.358593 26.454525 22.165808 26.351689 21.98765 26.184723 21.891268L23.573475 20.383708 26.738781 19.535912C27.000287 19.465641 27.169342 19.212592 27.134148 18.944108 27.098954 18.675621 26.870388 18.474696 26.599606 18.4742 26.55231 18.474478 26.505227 18.480498 26.459385 18.49213Z" fill="#2d2d2d" fill-rule="evenodd"/>
</svg>
