<?xml version="1.0" encoding="UTF-8"?>
<svg width="24px" height="24px" viewBox="0 0 24 24" version="1.1" xmlns="http://www.w3.org/2000/svg" xmlns:xlink="http://www.w3.org/1999/xlink">
    <g id="icons" stroke="none" stroke-width="1" fill="none" fill-rule="evenodd">
        <g id="ic_history" transform="translate(0.000000, 3.000000)" fill="#000000" fill-rule="nonzero">
            <path d="M3.6,4.75 C3.6,3.49022 4.10571,2.28204 5.00589,1.39124 C5.90606,0.500445 7.12696,0 8.4,0 C9.67304,0 10.8939,0.500445 11.7941,1.39124 C12.6943,2.28204 13.2,3.49022 13.2,4.75 C13.2,6.00978 12.6943,7.21796 11.7941,8.10876 C10.8939,8.99956 9.67304,9.5 8.4,9.5 C7.12696,9.5 5.90606,8.99956 5.00589,8.10876 C4.10571,7.21796 3.6,6.00978 3.6,4.75 Z M0,17.8979 C0,14.2426 2.9925,11.2812 6.68625,11.2812 L10.1138,11.2812 C13.8075,11.2812 16.8,14.2426 16.8,17.8979 C16.8,18.5064 16.3013,19 15.6862,19 L1.11375,19 C0.49875,19 0,18.5064 0,17.8979 Z M22.8488,19 L17.6775,19 C17.88,18.6512 18,18.2467 18,17.8125 L18,17.5156 C18,15.2631 16.9838,13.2406 15.3825,11.8824 C15.4725,11.8787 15.5588,11.875 15.6488,11.875 L17.9513,11.875 C21.2925,11.875 24,14.5543 24,17.8607 C24,18.4916 23.4825,19 22.8488,19 Z M16.2,9.5 C15.0375,9.5 13.9875,9.03242 13.2263,8.2791 C13.965,7.29199 14.4,6.07109 14.4,4.75 C14.4,3.75547 14.1525,2.8166 13.7138,1.99277 C14.4113,1.48809 15.27,1.1875 16.2,1.1875 C18.5213,1.1875 20.4,3.04668 20.4,5.34375 C20.4,7.64082 18.5213,9.5 16.2,9.5 Z" id="Shape"></path>
        </g>
    </g>
</svg>