<?xml version="1.0" encoding="UTF-8"?>
<svg width="128px" height="128px" viewBox="0 0 128 128" version="1.1" xmlns="http://www.w3.org/2000/svg" xmlns:xlink="http://www.w3.org/1999/xlink">
    <!-- Generator: Sketch 61.2 (89653) - https://sketch.com -->
    <title>pin-grayscale</title>
    <desc>Created with Sketch.</desc>
    <g id="pin-grayscale" stroke="none" stroke-width="1" fill="none" fill-rule="evenodd">
        <g id="pin-large" transform="translate(31.000000, 16.000000)">
            <path d="M33.2947977,0 C51.6830067,0 66.5895954,14.9065887 66.5895954,33.2947977 C66.5895954,40.7710956 64.1254144,47.6718532 59.964938,53.2291849 L33.2947977,96 L6.62797648,53.2336176 C2.46549158,47.6755229 0,40.7730835 0,33.2947977 C0,14.9065887 14.9065887,0 33.2947977,0 Z" id="Path" fill="#C7C7C7"></path>
            <g id="features" transform="translate(16.647399, 21.641618)" fill="#A7A7A7">
                <g id="eyes-copy" fill-rule="nonzero">
                    <path d="M11.0982659,0.277456647 C15.3710111,0.277456647 19.07981,2.69199803 20.9346313,6.2310496 L16.1093166,8.98896909 C15.216966,7.11880893 13.308523,5.8265896 11.0982659,5.8265896 C8.03356439,5.8265896 5.54913295,8.31102104 5.54913295,11.3757225 C5.54913295,14.440424 8.03356439,16.9248555 11.0982659,16.9248555 C13.3081307,16.9248555 15.2162886,15.6330948 16.1088414,13.7634718 L20.9341493,16.521315 C19.0791675,20.0598653 15.3706411,22.4739884 11.0982659,22.4739884 C4.96886289,22.4739884 0,17.5051255 0,11.3757225 C0,5.24631954 4.96886289,0.277456647 11.0982659,0.277456647 Z" id="cut-eye"></path>
                    <path d="M37.4566474,0.277456647 C41.7293926,0.277456647 45.4381915,2.69199803 47.2930128,6.2310496 L42.4676981,8.98896909 C41.5753476,7.11880893 39.6669045,5.8265896 37.4566474,5.8265896 C34.3919459,5.8265896 31.9075145,8.31102104 31.9075145,11.3757225 C31.9075145,14.440424 34.3919459,16.9248555 37.4566474,16.9248555 C39.6665122,16.9248555 41.5746701,15.6330948 42.4672229,13.7634718 L47.2925308,16.521315 C45.437549,20.0598653 41.7290226,22.4739884 37.4566474,22.4739884 C31.3272444,22.4739884 26.3583815,17.5051255 26.3583815,11.3757225 C26.3583815,5.24631954 31.3272444,0.277456647 37.4566474,0.277456647 Z" id="cut-eye-second"></path>
                </g>
                <path d="M4.22862334,30.6887299 C9.64215936,35.5847056 16.8196858,38.566474 24.6936416,38.566474 C31.3709505,38.566474 37.5474251,36.4221476 42.5720096,32.7845505 L36.8056549,42.0316409 C33.0199837,43.3809164 28.9426107,44.1156069 24.6936416,44.1156069 C15.2872025,44.1156069 6.72175356,40.5148998 0.300426361,34.6166171 L4.22862334,30.6887299 Z" id="mouth-copy"></path>
            </g>
        </g>
    </g>
</svg>