<?xml version="1.0" encoding="UTF-8"?>
<svg width="48px" height="48px" viewBox="0 0 48 48" version="1.1" xmlns="http://www.w3.org/2000/svg" xmlns:xlink="http://www.w3.org/1999/xlink">
    <g id="worktype-icons" stroke="none" stroke-width="1" fill="none" fill-rule="evenodd">
        <g id="ic_work_type_fence" fill="#000000" fill-rule="nonzero" stroke="#FFFFFF">
            <path d="M37.71,1.90086667 L33.768,6.74086667 L33.767,13.7998667 L27.941,13.7998667 L27.941,6.74186667 L24,1.90086667 L20.059,6.74086667 L20.058,13.7998667 L14.232,13.7998667 L14.232,6.74186667 L10.291,1.90086667 L6.349,6.74086667 L6.349,13.7998667 L2.5,13.7998667 C2.08578644,13.7998667 1.75,14.1356531 1.75,14.5498667 L1.75,17.3098667 C1.75,17.7238667 2.086,18.0598667 2.5,18.0598667 L6.349,18.0588667 L6.349,28.9568667 L2.5,28.9568667 C2.08578644,28.9568667 1.75,29.2926531 1.75,29.7068667 L1.75,32.4658667 C1.75,32.8798667 2.086,33.2158667 2.5,33.2158667 L6.349,33.2148667 L6.349,45.5048667 C6.349,45.9188667 6.685,46.2548667 7.099,46.2548667 L13.482,46.2548667 C13.8962136,46.2548667 14.232,45.9190802 14.232,45.5048667 L14.232,33.2148667 L20.058,33.2148667 L20.058,45.5048667 C20.058,45.9188667 20.394,46.2548667 20.808,46.2548667 L27.191,46.2548667 C27.6052136,46.2548667 27.941,45.9190802 27.941,45.5048667 L27.941,33.2148667 L33.767,33.2148667 L33.767,45.5048667 C33.767,45.9188667 34.104,46.2548667 34.517,46.2548667 L40.901,46.2548667 C41.3152136,46.2548667 41.651,45.9190802 41.651,45.5048667 L41.65,33.2148667 L45.5,33.2148667 C45.9142136,33.2148667 46.25,32.8790802 46.25,32.4648667 L46.25,29.7068667 C46.25,29.2926531 45.9142136,28.9568667 45.5,28.9568667 L41.65,28.9568667 L41.65,18.0588667 L45.5,18.0588667 C45.9142136,18.0588667 46.25,17.7230802 46.25,17.3088667 L46.25,14.5508667 C46.25,14.1366531 45.9142136,13.8008667 45.5,13.8008667 L41.65,13.7998667 L41.65,6.74186667 L37.71,1.90086667 L37.71,1.90086667 Z M33.767,18.0588667 L33.767,28.9568667 L27.941,28.9568667 L27.941,18.0588667 L33.767,18.0588667 Z M20.058,18.0588667 L20.058,28.9568667 L14.232,28.9568667 L14.232,18.0588667 L20.058,18.0588667 Z" id="Shape"></path>
        </g>
    </g>
</svg>