<?xml version="1.0" encoding="UTF-8"?>
<svg width="48px" height="48px" viewBox="0 0 48 48" version="1.1" xmlns="http://www.w3.org/2000/svg" xmlns:xlink="http://www.w3.org/1999/xlink">
    <g id="worktype-icons" stroke="none" stroke-width="1" fill="none" fill-rule="evenodd">
        <g id="ic_work_type_catchment_gutters" fill="#000000" fill-rule="nonzero" stroke="#FFFFFF">
            <path d="M41.5117241,10.5517241 L6.48827586,10.5517241 C6.14547843,10.5517241 5.86758621,10.8296164 5.86758621,11.1724138 L5.86758621,36.8275862 C5.86758621,37.1702069 6.14565517,37.4482759 6.48827586,37.4482759 L41.5117241,37.4482759 C41.8545216,37.4482759 42.1324138,37.1703836 42.1324138,36.8275862 L42.1324138,11.1724138 C42.1324138,10.8296164 41.8545216,10.5517241 41.5117241,10.5517241 Z M13.0568276,35.5862069 L8.51006897,35.5862069 L8.51006897,31.9953103 L13.0568276,31.9953103 L13.0568276,35.5862069 Z M15.0347586,31.9953103 L19.6924138,31.9953103 L19.6924138,35.5862069 L15.0347586,35.5862069 L15.0347586,31.9953103 Z M21.6711724,31.9953103 L26.3288276,31.9953103 L26.328,35.5862069 L21.6711724,35.5862069 L21.6711724,31.9953103 Z M28.3067586,31.9953103 L32.9644138,31.9953103 L32.9644138,35.5862069 L28.3067586,35.5862069 L28.3067586,31.9953103 Z M34.9423448,31.9953103 L39.4891034,31.9953103 L39.4891034,35.5862069 L34.9423448,35.5862069 L34.9423448,31.9953103 Z M46.9655172,16.0990345 L44.1897931,16.0990345 L44.1897931,31.9009655 L46.9655172,31.9009655 L46.9655172,16.0990345 Z M3.8102069,16.0990345 L1.03448276,16.0990345 L1.03448276,31.9009655 L3.8102069,31.9009655 L3.8102069,16.0990345 L3.8102069,16.0990345 Z M34.9423448,25.1586207 L39.4891034,25.1594483 L39.4891034,29.6788966 L34.9423448,29.6788966 L34.9423448,25.1586207 L34.9423448,25.1586207 Z M8.51006897,25.1586207 L13.0568276,25.1577931 L13.0568276,29.678069 L8.51006897,29.678069 L8.51006897,25.1594483 L8.51006897,25.1586207 Z M15.0355862,25.1577931 L19.6924138,25.1577931 L19.6924138,29.678069 L15.0355862,29.678069 L15.0355862,25.1577931 Z M21.6711724,25.1577931 L26.3288276,25.1577931 L26.3288276,29.678069 L21.6711724,29.678069 L21.6711724,25.1577931 Z M28.3067586,25.1577931 L32.9644138,25.1577931 L32.9644138,29.678069 L28.3067586,29.678069 L28.3067586,25.1577931 Z M39.4891034,18.3211034 L39.4891034,22.8413793 L34.9423448,22.8413793 L34.9423448,18.3211034 L39.4891034,18.3211034 L39.4891034,18.3211034 Z M13.056,22.8413793 L8.51089655,22.8413793 L8.51089655,18.3211034 L13.0576552,18.3211034 L13.0576552,22.8413793 L13.056,22.8413793 Z M15.0355862,18.3211034 L19.6924138,18.3211034 L19.6924138,22.8413793 L15.0355862,22.8413793 L15.0355862,18.3211034 Z M21.6711724,18.3211034 L26.3288276,18.3211034 L26.3288276,22.8413793 L21.6711724,22.8413793 L21.6711724,18.3211034 Z M28.3067586,18.3211034 L32.9644138,18.3211034 L32.9644138,22.8413793 L28.3067586,22.8413793 L28.3067586,18.3211034 Z M39.489931,12.4137931 L39.4891034,16.0038621 L34.9423448,16.0038621 L34.9423448,12.4137931 L39.489931,12.4137931 Z M8.51006897,12.4137931 L13.0568276,12.4137931 L13.0568276,16.0038621 L8.51006897,16.0038621 L8.51006897,12.4137931 L8.51006897,12.4137931 Z M15.0347586,12.4137931 L19.6924138,12.4137931 L19.6924138,16.0038621 L15.0355862,16.0038621 L15.0347586,12.4137931 Z M21.6711724,12.4137931 L26.328,12.4137931 L26.328,16.0038621 L21.6711724,16.0038621 L21.6711724,12.4137931 Z M32.9644138,12.4137931 L32.9644138,16.0038621 L28.3067586,16.0038621 L28.3067586,12.4137931 L32.9644138,12.4137931 Z" id="Shape"></path>
        </g>
    </g>
</svg>