<?xml version="1.0" encoding="UTF-8"?>
<svg width="48px" height="48px" viewBox="0 0 48 48" version="1.1" xmlns="http://www.w3.org/2000/svg" xmlns:xlink="http://www.w3.org/1999/xlink">
    <g id="worktype-icons" stroke="none" stroke-width="1" fill="none" fill-rule="evenodd">
        <g id="ic_work_type_landslide" fill="#000000" fill-rule="nonzero" stroke="#FFFFFF">
            <path d="M39.9341821,28.4827943 L33.1846436,28.4827943 C31.4582694,28.4827943 29.9957265,29.7546368 29.756336,31.4643327 L29.360336,34.2843327 L29.1831052,34.3046404 C27.9020994,34.452346 26.9354129,35.5369934 26.9354129,36.8264866 L26.9354129,38.1067943 C26.9354129,39.2523327 27.7006436,40.2474097 28.7861821,40.551102 L29.0511052,40.6249481 L28.9320283,40.8732558 C28.8221821,41.1021789 28.7640283,41.3541789 28.7640283,41.6154097 L28.7640283,41.955102 C28.7640283,42.9048618 29.5339607,43.6747943 30.4837206,43.6747943 C31.4334804,43.6747943 32.2034129,42.9048618 32.2034129,41.955102 L32.2034129,41.6154097 C32.2034129,41.3883327 32.1600283,41.1686404 32.0760283,40.9637174 L31.9458744,40.6452558 L40.9246436,40.6452558 L40.7935667,40.9637174 C40.7104898,41.1686404 40.6661821,41.3883327 40.6661821,41.6154097 L40.6661821,41.955102 C40.6661821,42.9048618 41.4361146,43.6747943 42.3858744,43.6747943 C43.3356342,43.6747943 44.1055667,42.9048618 44.1055667,41.955102 L44.1055667,41.6154097 C44.1055667,41.3809481 44.0594129,41.1557174 43.9689513,40.948025 L43.8471052,40.6646404 L44.1535667,40.6277174 C45.4276488,40.4727676 46.3855668,39.3911871 46.3855668,38.1077174 L46.3855668,36.8264866 C46.3858105,35.492064 45.3528341,34.3852747 44.0215667,34.2935635 L43.8397206,34.2815635 L43.809259,34.1024866 L43.3486436,31.3701789 C43.068301,29.7034223 41.6252737,28.4827943 39.9351052,28.4827943 L39.9341821,28.4827943 Z M1.61541288,5.01171735 L1.61541288,43.647102 L25.9984898,43.647102 L23.9067975,40.3332558 C23.3300185,40.5176659 22.7280311,40.6110938 22.1224898,40.6101789 C18.9175667,40.6101789 16.3191052,38.0274097 16.3191052,34.8409481 C16.3191052,34.4541789 16.3578744,34.072025 16.4326436,33.699102 C12.5511052,33.5938712 9.43664364,30.4332558 9.43664364,26.548025 C9.43664364,25.4237174 9.69879749,24.3363327 10.1926436,23.355102 C7.84341288,22.996025 6.0664898,20.9772558 6.0664898,18.5661789 C6.0664898,17.1077174 6.71910518,15.7554097 7.82033595,14.8424866 L1.61541288,5.01171735 L1.61541288,5.01171735 Z M22.1446436,32.7695504 C20.9938693,32.7659888 20.057946,33.6957139 20.0538744,34.8464866 C20.057946,35.9972593 20.9938693,36.9269844 22.1446436,36.9234228 C22.6974375,36.9253717 23.2283693,36.707655 23.6206385,36.3181556 C24.0129076,35.9286562 24.2343809,35.3992804 24.236336,34.8464866 C24.2343809,34.2936927 24.0129076,33.7643169 23.6206385,33.3748175 C23.2283693,32.9853182 22.6974375,32.7676015 22.1446436,32.7695504 L22.1446436,32.7695504 Z M17.9631052,22.0369481 C15.7818744,22.0369481 14.0141821,23.7935635 14.0141821,25.960025 C14.0141821,28.1264866 15.7818744,29.883102 17.9631052,29.883102 C20.144336,29.883102 21.9120283,28.1264866 21.9120283,25.960025 C21.9120283,23.7935635 20.144336,22.0369481 17.9631052,22.0369481 Z M10.8646436,16.5769378 C9.71386929,16.5733734 8.77794603,17.5030985 8.77387441,18.6538712 C8.77582947,19.206665 8.99730274,19.7360409 9.3895719,20.1255402 C9.78184105,20.5150396 10.3127729,20.7327563 10.8655667,20.7308074 C12.0163411,20.734369 12.9522643,19.8046439 12.956336,18.6538712 C12.9522643,17.5030985 12.0163411,16.5733734 10.8655667,16.5769378 L10.8646436,16.5769378 Z" id="Shape"></path>
        </g>
    </g>
</svg>