<?xml version="1.0" encoding="UTF-8"?>
<svg width="18px" height="16px" viewBox="0 0 18 16" version="1.1" xmlns="http://www.w3.org/2000/svg" xmlns:xlink="http://www.w3.org/1999/xlink">
    <g id="ic_camera" stroke="none" stroke-width="1" fill="none" fill-rule="evenodd" fill-opacity="0.8" stroke-linejoin="round">
        <path d="M13.1706282,2.5 L17.5,2.5 L17.5,15.5 L0.5,15.5 L0.5,2.5 L4.82937183,2.5 L6.65437183,0.5 L11.3456282,0.5 L13.1706282,2.5 Z M9,5 C7.8822339,5 6.9470178,5.38508898 6.16605339,6.16605339 C5.38508898,6.9470178 5,7.8822339 5,9 C5,10.1177661 5.38508898,11.0529822 6.16605339,11.8339466 C6.9470178,12.614911 7.8822339,13 9,13 C10.1177661,13 11.0529822,12.614911 11.8339466,11.8339466 C12.614911,11.0529822 13,10.1177661 13,9 C13,7.8822339 12.614911,6.9470178 11.8339466,6.16605339 C11.0529822,5.38508898 10.1177661,5 9,5 Z" id="Combined-Shape" stroke="#2D2D2D" fill="#FFFFFF" fill-rule="nonzero"></path>
    </g>
</svg>