<svg xmlns="http://www.w3.org/2000/svg" xmlns:xlink="http://www.w3.org/1999/xlink" width="53" height="50" viewBox="0 0 53 50">
    <defs>
        <path id="shopping__b" d="M19.454 40.817c2.241 0 4.065 1.836 4.065 4.092 0 2.256-1.824 4.091-4.065 4.091-2.242 0-4.066-1.835-4.066-4.091 0-2.256 1.824-4.092 4.066-4.092zm19.06 0c2.243 0 4.066 1.836 4.066 4.092 0 2.256-1.823 4.091-4.065 4.091-2.242 0-4.065-1.835-4.065-4.091 0-2.256 1.823-4.092 4.065-4.092zM11.325 7c.634 0 1.185.444 1.322 1.068l.97 4.387h33.03c.425 0 .825.201 1.082.542.256.342.336.785.22 1.196l-5.42 19.093c-.165.586-.697.99-1.303.99H16.743c-.746 0-1.355.611-1.355 1.364 0 .752.609 1.363 1.355 1.363h24.482c.75 0 1.355.61 1.355 1.364 0 .754-.606 1.364-1.355 1.364H16.743c-2.241 0-4.065-1.835-4.065-4.091 0-1.679 1.011-3.121 2.45-3.751L10.237 9.728h-5.88C3.605 9.728 3 9.118 3 8.364 3 7.61 3.606 7 4.355 7z"/>
    </defs>
    <g fill="none" fill-rule="evenodd" transform="translate(1 -5)">
        <path fill="#000000" stroke="#ffffff"  stroke-linejoin="square" stroke-width=".5" d="M19.454 41.067c-1.052 0-2.006.431-2.696 1.126-.692.696-1.12 1.656-1.12 2.716 0 1.059.428 2.02 1.12 2.715.69.695 1.644 1.126 2.696 1.126 1.051 0 2.005-.43 2.696-1.126.69-.696 1.119-1.656 1.119-2.715 0-1.06-.428-2.02-1.12-2.716-.69-.695-1.644-1.126-2.695-1.126zm19.06 0c-1.05 0-2.004.431-2.695 1.126-.691.696-1.12 1.656-1.12 2.716 0 1.059.429 2.02 1.12 2.715.69.695 1.644 1.126 2.696 1.126 1.052 0 2.005-.43 2.696-1.126.691-.695 1.119-1.656 1.119-2.715 0-1.06-.428-2.02-1.12-2.716-.69-.695-1.643-1.126-2.695-1.126zM11.325 7.25l-7.087.006c-.277.03-.523.162-.7.359-.178.198-.287.46-.287.749 0 .308.124.586.324.788.2.201.476.326.781.326h6.083l4.791 22.64c-.716.313-1.32.841-1.729 1.503-.362.586-.572 1.278-.572 2.019 0 1.059.428 2.02 1.12 2.715.69.695 1.644 1.126 2.695 1.126l24.6-.006c.277-.03.523-.162.7-.358.179-.198.287-.461.287-.75 0-.308-.124-.586-.324-.788-.2-.201-.476-.326-.781-.326l-24.623-.006c-.414-.036-.783-.231-1.047-.524-.259-.286-.417-.667-.417-1.083 0-.445.18-.848.47-1.14.291-.293.693-.474 1.135-.474l24.607-.007c.22-.025.422-.115.585-.253.165-.139.29-.327.351-.547l5.449-19.22c.05-.298-.023-.606-.207-.852-.21-.277-.535-.442-.883-.442h-33.23l-1.046-4.701c-.075-.223-.216-.41-.398-.543-.184-.134-.408-.211-.648-.211z"/>
        <path stroke="#FFF" d="M19.454 40.317c-1.26 0-2.401.515-3.228 1.348-.826.83-1.338 1.978-1.338 3.244 0 1.265.512 2.413 1.338 3.244.827.832 1.969 1.347 3.228 1.347 1.259 0 2.4-.515 3.228-1.347.825-.831 1.337-1.979 1.337-3.244 0-1.266-.512-2.413-1.337-3.244-.827-.833-1.97-1.348-3.228-1.348zm19.06 0c-1.258 0-2.4.515-3.227 1.348-.826.83-1.337 1.978-1.337 3.244 0 1.265.511 2.413 1.337 3.244.827.832 1.969 1.347 3.228 1.347 1.259 0 2.4-.515 3.228-1.347.826-.831 1.337-1.979 1.337-3.244 0-1.266-.511-2.413-1.337-3.244-.827-.833-1.969-1.348-3.228-1.348zM11.325 6.5l-7.122.006c-.483.04-.914.265-1.222.606-.298.33-.48.77-.48 1.252 0 .515.207.98.542 1.317.336.338.8.547 1.313.547H9.83l4.548 21.49c-.615.376-1.136.894-1.515 1.508-.434.701-.685 1.528-.685 2.414 0 1.265.512 2.413 1.338 3.244.827.832 1.968 1.347 3.227 1.347l24.635-.006c.483-.04.915-.265 1.222-.606.298-.33.48-.77.48-1.252 0-.514-.207-.98-.542-1.317-.336-.338-.8-.547-1.313-.547l-24.585-.006c-.209-.025-.394-.127-.529-.276-.138-.154-.223-.358-.223-.581 0-.239.097-.455.252-.612.155-.155.368-.252.603-.252l24.644-.007c.387-.034.746-.188 1.032-.43.277-.233.486-.55.59-.918l5.458-19.252c.098-.515-.022-1.05-.34-1.472-.352-.467-.899-.742-1.482-.742H14.016l-.922-4.148c-.122-.392-.365-.722-.682-.952-.308-.225-.686-.355-1.089-.355z"/>
    </g>
</svg>