<?xml version="1.0" encoding="UTF-8"?>
<svg width="36px" height="36px" viewBox="0 0 36 36" version="1.1" xmlns="http://www.w3.org/2000/svg" xmlns:xlink="http://www.w3.org/1999/xlink">
    <g id="icons" stroke="none" stroke-width="1" fill="none" fill-rule="evenodd">
        <g id="Vector" transform="translate(8.000000, 10.000000)" fill="#000000" fill-rule="nonzero">
            <path d="M9.49931,0 C10.0263,0 10.5125,0.267857 10.7797,0.707143 L18.7959,13.85 C19.0668,14.2929 19.0668,14.8393 18.8033,15.2821 C18.5398,15.725 18.0462,16 17.5155,16 L1.48311,16 C0.952409,16 0.458819,15.725 0.195324,15.2821 C-0.0681714,14.8393 -0.0644603,14.2893 0.202746,13.85 L8.21895,0.707143 C8.48615,0.267857 8.97232,0 9.49931,0 Z M9.49931,4.57143 C9.00572,4.57143 8.60862,4.95357 8.60862,5.42857 L8.60862,9.42857 C8.60862,9.90357 9.00572,10.2857 9.49931,10.2857 C9.9929,10.2857 10.39,9.90357 10.39,9.42857 L10.39,5.42857 C10.39,4.95357 9.9929,4.57143 9.49931,4.57143 Z M10.6869,12.5714 C10.6869,12.2683 10.5618,11.9776 10.3391,11.7633 C10.1163,11.549 9.81428,11.4286 9.49931,11.4286 C9.18434,11.4286 8.88228,11.549 8.65956,11.7633 C8.43685,11.9776 8.31172,12.2683 8.31172,12.5714 C8.31172,12.8745 8.43685,13.1652 8.65956,13.3796 C8.88228,13.5939 9.18434,13.7143 9.49931,13.7143 C9.81428,13.7143 10.1163,13.5939 10.3391,13.3796 C10.5618,13.1652 10.6869,12.8745 10.6869,12.5714 Z" id="Shape"></path>
        </g>
    </g>
</svg>