<svg xmlns="http://www.w3.org/2000/svg" xmlns:xlink="http://www.w3.org/1999/xlink" version="1.1" width="35pt" height="35pt" viewBox="0 0 35 35">
<path transform="matrix(1,0,0,-1,0,35)" d="M35 17.5C35 7.835016 27.164984 0 17.5 0 7.835017 0 0 7.835016 0 17.5 0 27.164984 7.835017 35 17.5 35 27.164984 35 35 27.164984 35 17.5ZM26.074395 20.464177 17.5 28.468605 8.925605 20.464177V9.565861C8.925605 8.737434 9.597178 8.065861 10.425605 8.065861H13.32575C13.915938 7.373417 14.705563 6.778038 15.696771 6.300346 16.937874 5.738548 18.604624 5.778812 20.236403 6.578575 20.898077 7.078846 21.43147 7.572058 21.846209 8.065861H24.574395C25.40282 8.065861 26.074395 8.737434 26.074395 9.565861V20.464177ZM22.5252 9.065861H24.574395C24.850537 9.065861 25.074395 9.289719 25.074395 9.565861L25.074002 20.029999 17.5 27.101 9.924999 20.029999 9.925605 9.565861C9.925605 9.3204 10.10248 9.116253 10.33573 9.073917L10.425605 9.065861H12.645665C11.5494 11.142658 11.873761 13.847294 13.577613 16.784749L14.296594 18.024277 14.504813 16.606528C14.569162 16.168379 14.767514 15.679741 15.041698 15.21529L15.076018 15.16 15.082755 15.303568C15.208526 17.434416 16.314343 19.657042 18.948683 21.55962L19.236809 21.762227 20.270007 22.469742 20.008267 21.245173C19.596329 19.317898 20.026028 17.828036 21.371672 15.320129L22.040265 14.058678C22.509617 13.150366 22.679654 12.730255 22.821446 12.160412L22.873826 11.938457C23.101117 10.928921 23.005238 9.987556 22.5252 9.065861ZM18.864018 20.223 18.85879 20.121693C18.803267 18.577469 19.285132 17.15198 20.30495 15.197803L21.03827 13.817505C21.610257 12.724518 21.756222 12.349621 21.898245 11.718811 22.23886 10.205936 21.668951 8.913826 19.713517 7.425406 18.42963 6.806694 17.075316 6.773977 16.119984 7.206295L15.905455 7.313663C12.955763 8.846354 12.261634 11.616135 13.798809 15.035265L13.896019 15.247002 13.977974 15.075874C14.324638 14.38689 14.819839 13.73155 15.353115 13.236366L16.469592 12.199638 16.18451 13.69632C16.030463 14.505066 16.043606 15.499912 16.368988 16.581353 16.74262 17.823166 17.484299 18.99623 18.672345 20.056729L18.864018 20.223Z" fill="#2d2d2d" fill-rule="evenodd"/>
</svg>
