<?xml version="1.0" encoding="UTF-8"?>
<svg width="48px" height="48px" viewBox="0 0 48 48" version="1.1" xmlns="http://www.w3.org/2000/svg" xmlns:xlink="http://www.w3.org/1999/xlink">
    <g id="worktype-icons" stroke="none" stroke-width="1" fill="none" fill-rule="evenodd">
        <g id="ic_work_type_fire" fill="#000000" fill-rule="nonzero" stroke="#FFFFFF">
            <path d="M27.3182218,1.41166957 C18.5582218,5.30254957 14.8171018,11.2430296 14.6663818,18.1790296 L14.6731018,18.2519896 C14.6759818,18.3479896 14.6865418,18.5313496 14.7105418,18.7924696 C14.7489418,19.2292696 14.8103818,19.7207896 14.8987018,20.2545496 C15.1531889,21.826615 15.5860636,23.3645444 16.1889418,24.8385496 C16.7035018,26.0827096 15.8721418,27.4948696 14.5367818,27.6916696 C13.6115186,27.8243375 12.7106724,27.3264808 12.3307018,26.4724696 C11.6001418,24.8644696 11.1259018,23.3659096 11.0731018,22.1428696 C9.53737048,24.4483908 8.63002303,27.1148407 8.4407818,29.8785496 C7.8801418,37.7361496 13.2628618,44.9217496 20.8785418,46.4836696 C29.7604618,48.3047896 38.2507018,42.1569496 39.4574218,33.1099096 C40.1909359,27.7027803 38.101081,22.2971334 33.9211018,18.7895896 C32.4071818,17.5223896 31.2753418,16.3991896 30.3451018,15.1703896 C26.7844618,10.4711896 26.1211018,5.91598957 27.1252618,2.06446957 C27.1867018,1.82734957 27.2519818,1.60942957 27.3172618,1.41166957 L27.3182218,1.41166957 Z" id="Path"></path>
        </g>
    </g>
</svg>