<?xml version="1.0" encoding="UTF-8"?>
<svg width="48px" height="48px" viewBox="0 0 48 48" version="1.1" xmlns="http://www.w3.org/2000/svg" xmlns:xlink="http://www.w3.org/1999/xlink">
    <!-- Generator: Sketch 61.2 (89653) - https://sketch.com -->
    <title>jump_to_map</title>
    <desc>Created with Sketch.</desc>
    <g id="jump_to_map" stroke="none" stroke-width="1" fill="none" fill-rule="evenodd">
        <g id="Group" transform="translate(11.000000, 8.000000)" fill="#000000">
            <g id="location_on_FILL0_wght400_GRAD0_opsz48" fill-rule="nonzero">
                <path d="M12.8,28.84 C16.3466667,25.6133333 18.9666667,22.6866667 20.66,20.06 C22.3533333,17.4333333 23.2,15.12 23.2,13.12 C23.2,9.97893333 22.1961067,7.407 20.18832,5.4042 C18.18056,3.4014 15.7177867,2.4 12.8,2.4 C9.88221333,2.4 7.41944,3.4014 5.41168,5.4042 C3.40389333,7.407 2.4,9.97893333 2.4,13.12 C2.4,15.12 3.26666667,17.4333333 5,20.06 C6.73333333,22.6866667 9.33333333,25.6133333 12.8,28.84 Z M12.8,32 C8.50666667,28.3466667 5.3,24.9533333 3.18,21.82 C1.06,18.6866667 0,15.7866667 0,13.12 C0,9.12 1.28666667,5.93333333 3.86,3.56 C6.43333333,1.18666667 9.41333333,0 12.8,0 C16.1866667,0 19.1666667,1.18666667 21.74,3.56 C24.3133333,5.93333333 25.6,9.12 25.6,13.12 C25.6,15.7866667 24.54,18.6866667 22.42,21.82 C20.3,24.9533333 17.0933333,28.3466667 12.8,32 Z" id="Shape"></path>
            </g>
            <polygon id="Path" points="8.41735844 14.7503437 7.93471096 14.7503437 9.73213042 12.5831236 10.3439342 11.8454648 9.38557282 11.8472614 8.83538007 11.8483281 12.8043932 6.4 16.7734006 11.8483281 16.2234269 11.8472614 15.2592884 11.8454648 15.8782055 12.5846956 17.6911652 14.7503437 17.1434933 14.7503437 16.2405504 14.7503437 16.7853029 15.4704299 19.2 18.6623102 6.4 18.6623102 8.77765977 15.4676227 9.311515 14.7503437"></polygon>
        </g>
    </g>
</svg>