<?xml version="1.0" encoding="UTF-8" standalone="no"?>
<!DOCTYPE svg PUBLIC "-//W3C//DTD SVG 1.1//EN" "http://www.w3.org/Graphics/SVG/1.1/DTD/svg11.dtd">
<svg xmlns="http://www.w3.org/2000/svg" xmlns:xlink="http://www.w3.org/1999/xlink" version="1.1" width="35pt" height="35pt" viewBox="0 0 35 35">
<g enable-background="new">
<path transform="matrix(1,0,0,-1,0,35)" d="M 35 17.5 C 35 7.835016 27.164984 0 17.5 0 C 7.835017 0 0 7.835016 0 17.5 C 0 27.164984 7.835017 35 17.5 35 C 27.164984 35 35 27.164984 35 17.5 Z M 17.492783 29.85254 L 17.96284 29.179923 C 18.056834 29.05206 18.167954 28.914086 18.315426 28.739583 L 18.684939 28.304491 C 19.44565 27.392025 19.736212 26.852938 19.736212 26.071509 C 19.736212 24.736788 18.753132 23.930974 17.498318 23.930974 C 16.239069 23.930974 15.263672 24.771292 15.263672 26.152628 C 15.263672 27.017148 15.592998 27.575875 16.430882 28.512326 L 16.732977 28.852036 C 16.883656 29.024895 16.982007 29.146636 17.079804 29.281794 L 17.492783 29.85254 Z M 17.754738 27.855954 L 17.475943 28.18418 L 17.036742 27.687613 C 16.462063 27.026364 16.263672 26.653969 16.263672 26.152628 C 16.263672 25.359429 16.760998 24.930974 17.498318 24.930974 C 18.239842 24.930974 18.736212 25.337841 18.736212 26.071509 C 18.736212 26.582488 18.487624 26.999133 17.754738 27.855954 Z M 25.606192 24.705 L 25.20372 25.283204 L 24.790741 24.712458 C 24.673384 24.550269 24.555232 24.407399 24.346816 24.172333 L 24.141819 23.94299 C 23.303936 23.006539 22.97461 22.447812 22.97461 21.583292 C 22.97461 20.201956 23.950007 19.361638 25.209256 19.361638 C 26.46407 19.361638 27.44715 20.167452 27.44715 21.502173 C 27.44715 22.283602 27.156588 22.82269 26.395876 23.735156 L 26.026364 24.170247 C 25.842024 24.388377 25.714484 24.549427 25.606192 24.705 Z M 24.621659 22.97062 L 25.18712 23.614495 L 25.465676 23.286618 C 26.19856 22.429797 26.44715 22.013152 26.44715 21.502173 C 26.44715 20.768506 25.950779 20.361638 25.209256 20.361638 C 24.471936 20.361638 23.97461 20.790093 23.97461 21.583292 C 23.97461 22.04607 24.143652 22.398974 24.621659 22.97062 Z M 9.78209 25.283204 L 10.184561 24.705 C 10.292852 24.549427 10.420392 24.388377 10.604733 24.170247 L 10.974245 23.735156 C 11.734957 22.82269 12.025518 22.283602 12.025518 21.502173 C 12.025518 20.167452 11.042439 19.361638 9.787623 19.361638 C 8.528375 19.361638 7.552979 20.201956 7.552979 21.583292 C 7.552979 22.447812 7.882304 23.006539 8.720188 23.94299 L 8.925183 24.172333 C 9.064129 24.329045 9.162956 24.444779 9.248175 24.552578 L 9.369111 24.712458 L 9.78209 25.283204 Z M 10.044045 23.286618 L 9.766008 23.614495 L 9.557727 23.379189 L 9.200028 22.97062 C 8.722021 22.398974 8.552979 22.04607 8.552979 21.583292 C 8.552979 20.790093 9.050305 20.361638 9.787624 20.361638 C 10.529148 20.361638 11.025519 20.768506 11.025519 21.502173 C 11.025519 22.013152 10.776929 22.429797 10.044045 23.286618 Z M 23.228409 16.088789 L 17.500069 21.067383 L 11.771742 16.088799 L 11.771533 11.82431 C 11.061751 11.65597 10.39861 11.375891 9.784088 10.983776 C 9.551298 10.835238 9.483 10.52611 9.631538 10.29332 C 9.780077 10.060532 10.089205 9.992231 10.321994 10.14077 C 10.9196 10.522091 11.572406 10.778854 12.283384 10.91061 L 12.356405 10.923191 C 12.90377 11.017494 13.486198 11.038694 14.104446 10.986002 L 14.4135 10.957661 C 14.587843 10.934145 14.769328 10.884264 15.242268 10.71702 L 15.858903 10.491932 L 17.070387 10.048155 C 19.207438 9.260445 20.67225 8.929993 22.225165 9.069813 C 22.419308 9.087292 22.611088 9.112913 22.80059 9.146927 L 23.142148 9.208233 L 23.14421 9.219584 C 23.878437 9.394115 24.573666 9.700113 25.229794 10.149858 C 25.457564 10.305984 25.515643 10.617195 25.359517 10.844965 C 25.203389 11.072735 24.89218 11.130814 24.66441 10.974688 C 24.206818 10.661028 23.729258 10.431131 23.228409 10.278065 L 23.228409 16.088789 Z M 15.444643 11.701872 L 15.474592 11.691841 C 15.548006 11.668259 15.623531 11.643257 15.701348 11.616821 C 15.737502 11.60454 15.773936 11.592031 15.810951 11.579193 L 15.845661 11.567568 L 15.868177 11.559242 C 15.910147 11.544538 15.953026 11.529362 15.997229 11.513565 L 17.75198 10.865038 C 19.572899 10.215153 20.841025 9.951653 22.126568 10.065868 L 22.167433 10.069643 L 22.22807 10.076969 L 22.22807 15.632969 L 17.500069 19.74297 L 12.77107 15.632969 L 12.77107 11.984894 C 13.227154 12.025251 13.700068 12.024544 14.189369 11.982841 C 14.54869 11.952217 14.948188 11.859968 15.444643 11.701872 Z M 14.189369 9.090263 C 12.525707 9.232056 11.051494 8.899906 9.784088 8.091198 C 9.551298 7.942659 9.483 7.633532 9.631538 7.400742 C 9.780077 7.167953 10.089205 7.099653 10.321994 7.248192 C 11.398055 7.934807 12.653086 8.217575 14.104448 8.093876 C 14.140326 8.090818 14.173165 8.088217 14.203858 8.085785 C 14.486802 8.063366 14.587399 8.055393 15.205105 7.838007 L 17.462269 7.014082 C 19.386183 6.330416 20.762017 6.048115 22.215065 6.177214 C 23.297825 6.273413 24.30283 6.621889 25.229794 7.25728 C 25.457564 7.413406 25.515643 7.724617 25.359517 7.952387 C 25.203389 8.180157 24.89218 8.238235 24.66441 8.082109 C 23.882319 7.546021 23.041903 7.254614 22.126568 7.17329 C 20.763379 7.052176 19.419775 7.355782 17.415858 8.094448 L 16.159512 8.562843 C 15.990207 8.624537 15.843533 8.676394 15.701214 8.724741 L 15.444643 8.809294 C 14.948188 8.96739 14.54869 9.059639 14.189369 9.090263 Z " fill="#2d2d2d" fill-rule="evenodd"/>
</g>
</svg>
