<svg xmlns="http://www.w3.org/2000/svg" xmlns:xlink="http://www.w3.org/1999/xlink" version="1.1" width="35pt" height="35pt" viewBox="0 0 35 35">
<path transform="matrix(1,0,0,-1,0,35)" d="M17.5 0C27.164984 0 35 7.835016 35 17.5 35 27.164984 27.164984 35 17.5 35 7.835017 35 0 27.164984 0 17.5 0 7.835016 7.835017 0 17.5 0ZM9.676167 26.105175H24.744042L24.690972 25.556994C24.348595 22.020489 23.648198 18.669642 22.5895 15.505131 21.5127 12.28651 19.081902 8.946484 15.30617 5.474583L14.323666 4.57114 14.470781 5.897747C14.843922 9.262474 15.030436 12.517811 15.030436 15.663765 15.030436 17.57463 14.423279 19.556147 13.201529 21.608178 13.12112 21.67672 13.062697 21.77029 13.038311 21.876835 12.350425 22.986977 11.48364 24.11763 10.436789 25.268776L9.676167 26.105175ZM15.919083 17.169785C15.710661 18.58763 15.209926 20.027306 14.41913 21.488852H23.136553C22.863415 20.01452 22.512978 18.615328 22.07249 17.169785H15.919083ZM16.017764 16.169785C16.020684 16.111363 16.0231 16.052977 16.02501 15.994629L16.030436 15.663765C16.030436 14.440979 16.002608 13.202171 15.946957 11.947338H19.690136C20.490353 13.150196 21.101086 14.329336 21.522824 15.48419L21.641163 15.822399C21.680069 15.938686 21.7184 16.054463 21.756157 16.169785H16.017764ZM15.688179 8.038559C15.773829 9.01741 15.843407 9.987003 15.896908 10.947338H18.985266C18.103852 9.762753 17.042452 8.555801 15.800615 7.327015L15.603 7.136002 15.688179 8.038559ZM23.638 25.105999C23.549221 24.18898 23.439957 23.32338 23.308068 22.488852H13.834967C13.339024 23.279906 12.759402 24.077282 12.096452 24.88099L11.907 25.105999H23.638Z" fill="#2d2d2d" fill-rule="evenodd"/>
</svg>
