<?xml version="1.0" encoding="UTF-8" standalone="no"?>
<!DOCTYPE svg PUBLIC "-//W3C//DTD SVG 1.1//EN" "http://www.w3.org/Graphics/SVG/1.1/DTD/svg11.dtd">
<svg xmlns="http://www.w3.org/2000/svg" xmlns:xlink="http://www.w3.org/1999/xlink" version="1.1" width="35pt" height="35pt" viewBox="0 0 35 35">
<g enable-background="new">
<path transform="matrix(1,0,0,-1,0,35)" d="M 17.5 0 C 27.164984 0 35 7.835016 35 17.5 C 35 27.164984 27.164984 35 17.5 35 C 7.835017 35 0 27.164984 0 17.5 C 0 7.835016 7.835017 0 17.5 0 Z M 19.156538 23.55227 C 19.156538 25.581276 17.511549 27.226233 15.482576 27.226233 C 13.91803 27.226233 12.541002 26.239583 12.022388 24.790387 C 11.942462 24.567402 12.099865 24.313582 12.382812 24.237765 C 12.730042 24.144789 13.186539 24.424103 13.538845 24.923176 L 13.631039 25.0452 C 14.077853 25.59896 14.752633 25.93058 15.482576 25.93058 C 16.796038 25.93058 17.860884 24.865777 17.860884 23.55227 C 17.860884 22.238766 16.796038 21.173962 15.482576 21.173962 L 8.421594 21.173962 C 8.063847 21.173962 7.773767 20.883885 7.773767 20.526135 C 7.773767 20.168387 8.063847 19.878308 8.421594 19.878308 L 15.482576 19.878308 C 17.511549 19.878308 19.156538 21.523266 19.156538 23.55227 Z M 23.55227 24.200098 C 25.581244 24.200098 27.226233 22.55514 27.226233 20.526135 C 27.226233 18.497132 25.581244 16.852173 23.55227 16.852173 L 8.421594 16.852173 C 8.063867 16.852173 7.773767 17.142283 7.773767 17.5 C 7.773767 17.85775 8.063847 18.147828 8.421594 18.147828 L 23.55227 18.147828 C 24.86574 18.147828 25.93058 19.212628 25.93058 20.526135 C 25.93058 21.839646 24.86574 22.904444 23.55227 22.904444 C 22.822312 22.904444 22.147505 22.57282 21.700697 22.01906 L 21.608506 21.897038 C 21.256236 21.397973 20.799748 21.118657 20.45254 21.211628 C 20.169545 21.287453 20.012137 21.541264 20.092068 21.764237 C 20.61066 23.213427 21.987734 24.200098 23.55227 24.200098 Z M 20.526135 15.121693 L 8.421594 15.121693 C 8.063867 15.121693 7.773767 14.831583 7.773767 14.473866 C 7.773767 14.116148 8.063867 13.826038 8.421594 13.826038 L 20.526135 13.826038 C 21.8396 13.826038 22.904444 12.761232 22.904444 11.447731 C 22.904444 10.134228 21.8396 9.069422 20.526135 9.069422 C 19.744027 9.069422 19.025242 9.450102 18.582257 10.076981 L 18.505278 10.180471 C 18.165452 10.613888 17.748818 10.848555 17.426455 10.762239 C 17.143437 10.686384 16.98603 10.43257 17.06601 10.209482 C 17.584563 8.760458 18.96162 7.773767 20.526135 7.773767 C 22.555106 7.773767 24.200098 9.418732 24.200098 11.447731 C 24.200098 13.476728 22.555106 15.121693 20.526135 15.121693 Z " fill="#2d2d2d" fill-rule="evenodd"/>
</g>
</svg>
