<?xml version="1.0" encoding="UTF-8"?>
<svg width="48px" height="48px" viewBox="0 0 48 48" version="1.1" xmlns="http://www.w3.org/2000/svg" xmlns:xlink="http://www.w3.org/1999/xlink">
    <g id="worktype-icons" stroke="none" stroke-width="1" fill="none" fill-rule="evenodd">
        <g id="ic_work_type_construction_consultation" fill="#000000" fill-rule="nonzero" stroke="#FFFFFF">
            <path d="M28.7899964,30.04 C27.2319964,30.65 25.7999964,30.955 24.4919964,30.955 C23.1859964,30.955 21.7599964,30.668 20.2139964,30.097 L20.2139964,32.488 L20.0079964,32.525 C12.0019964,33.952 7.17099645,35.892 5.53399645,38.3 C3.92199645,40.672 3.40199645,43.317 3.97499645,46.25 L44.0309964,46.25 C44.6129964,42.878 44.0359964,40.145 42.3049964,38.032 C40.5329964,35.869 36.0859964,33.882 28.9799964,32.1 L28.7899964,32.053 L28.7899964,30.04 L28.7899964,30.04 Z M33.4809964,15.85 L15.4839964,15.85 L15.4839964,20.461 C15.4839964,25.2934916 19.4015049,29.211 24.2339964,29.211 L24.7309964,29.211 C29.563488,29.211 33.4809964,25.2934916 33.4809964,20.461 L33.4809964,15.851 L33.4809964,15.85 Z M25.1469964,1.75 L23.6439964,1.75 C23.2297829,1.75 22.8939964,2.08578644 22.8939964,2.5 L22.8939964,10.93 L12.9679964,10.93 C12.5537829,10.93 12.2179964,11.2657864 12.2179964,11.68 L12.2179964,13.22 C12.2179964,13.633 12.5539964,13.97 12.9679964,13.97 L35.8229964,13.97 C36.23721,13.97 36.5729964,13.6342136 36.5729964,13.22 L36.5729964,11.68 C36.5729964,11.2657864 36.23721,10.93 35.8229964,10.93 L25.8969964,10.93 L25.8969964,2.5 C25.8969964,2.08578644 25.56121,1.75 25.1469964,1.75 L25.1469964,1.75 Z M21.1119964,2.69 C19.4929964,3.164 18.0749964,4.038 16.8549964,5.318 C15.6519964,6.58 14.8419964,7.845 14.4229964,9.114 L21.1129964,9.114 L21.1129964,2.69 L21.1119964,2.69 Z M27.6789964,2.694 L27.6789964,9.114 L34.3619964,9.113 C34.0169964,7.848 33.2119964,6.585 31.9419964,5.323 C30.6539964,4.043 29.2339964,3.169 27.6789964,2.694 L27.6789964,2.694 Z" id="Shape"></path>
        </g>
    </g>
</svg>