<?xml version="1.0" encoding="UTF-8"?>
<svg width="48px" height="48px" viewBox="0 0 48 48" version="1.1" xmlns="http://www.w3.org/2000/svg" xmlns:xlink="http://www.w3.org/1999/xlink">
    <g id="worktype-icons" stroke="none" stroke-width="1" fill="none" fill-rule="evenodd">
        <g id="ic_work_type_sandbagging" transform="translate(1.000000, 11.000000)">
            <g id="Group-2" transform="translate(0.846154, 0.218932)">
                <g id="Group-4-Copy" transform="translate(0.000000, 0.000000)" stroke="#FFFFFF" stroke-width="1.5">
                    <path d="M31.0887479,9.59610986 C31.7167243,8.82311104 32.3447858,7.2763295 37.9972544,7.6631527 C42.5191953,7.97257376 43.440284,11.0137004 43.3356497,12.3024578 M43.3356497,12.3024578 C43.2309302,13.59113 42.7188355,16.173246 41.7655385,15.7819749 C38.9393041,14.6220507 33.914897,14.6220507 31.7167243,14.6220507 L33.2869207,12.3024578 L43.3356497,12.3024578 Z M21.6679953,19.6479063 C22.1913373,18.6169004 23.4264994,16.555059 24.1801562,16.555059 C25.1222911,16.555059 28.8905751,14.6220507 40.8234888,16.555059 C42.3936,16.9416436 44.5917728,18.4880673 44.2776994,20.4210755 M44.2776994,20.4210755 C43.9637112,22.3540838 43.6496379,25.0602613 40.8234888,25.0602613 C37.9972544,25.0602613 24.1801562,25.0602613 23.866168,25.0602613 C23.5521799,25.0602613 21.0399337,20.4210755 21.6679953,20.4210755 C22.1704615,20.4210755 36.9504852,20.4210755 44.2776994,20.4210755 Z" id="Shape"></path>
                    <path d="M16.643503,11.9156176 C16.643503,12.3022022 15.0734769,14.6217951 15.3875503,14.6217951 C20.1598296,14.6217951 22.2958012,15.3949643 22.6098746,16.1682187 C22.9238627,15.3949643 26.6919763,14.6217951 29.5183811,14.6217951 C29.8323692,14.6217951 30.4606012,14.6217951 30.7745893,14.2352104 C31.193297,13.7197927 32.0307124,12.6116744 32.0307124,12.3023726 C32.0307124,11.9930708 21.7725444,11.9156176 16.643503,11.9156176 Z M16.643503,11.9156176 C16.643503,11.6063158 15.3719574,10.020782 15.3872407,9.98286489 C16.9597917,6.11862915 27.0063053,7.66320382 28.5764166,8.43644122 C29.7308876,9.44563412 32.3447006,11.5291181 32.0307124,11.915788" id="Shape"></path>
                    <path d="M39.4747456,4.33676122 C39.8655905,5.50357021 39.7885633,6.50317731 38.9391337,6.50317731 C31.9049467,6.19389258 31.4025657,7.66331459 30.7745041,8.4361856 C29.2043929,6.11690796 23.2379361,6.50317731 22.9238627,6.50317731 C22.6098746,6.50335625 21.8562178,6.11706986 21.3537515,4.57050134 C21.3537515,4.26122512 33.4344142,4.28580737 39.4747456,4.33676122 Z M39.4747456,4.33676122 C39.2876308,3.77815199 38.9932402,3.1812166 38.6250604,2.63729708 C37.0549491,0.317797905 33.2866651,-0.842437106 24.4940592,0.704152461 C23.5519243,1.60633376 21.6678249,3.87462347 21.6678249,4.18389968" id="Shape"></path>
                    <path d="M4.71035077,4.57009234 C4.29166012,5.08556122 3.70547787,6.19382441 4.71035077,6.50310063 C5.96644828,6.88970228 12.8748781,5.72989731 14.4449893,8.43610039 C14.863697,7.7917643 16.831555,6.50310063 21.3534959,6.50310063 C21.0395077,6.11649897 20.4114462,5.18866181 20.4114462,4.57009234 L4.71035077,4.57009234 Z M4.71035077,4.57009234 C5.12902438,3.79688903 6.21757917,2.01852311 7.22245207,1.09068595 C8.47853254,-0.0691198701 17.2712237,-0.455721527 20.7254343,1.09068595 C21.2279006,1.40008998 21.7722036,1.99290986 21.9815574,2.2506443" id="Shape"></path>
                    <path d="M1.57002604,11.9161288 C1.57002604,11.7678684 10.7813396,11.7872957 15.3870391,11.9161288 C15.3868686,12.6894684 14.6333822,13.9264199 14.130916,14.2357217 C13.5028544,14.6223063 4.39617515,15.7821454 2.82606391,14.6223063 C1.2561316,13.4626377 1.56994935,12.3028838 1.57002604,11.9161288 Z M1.57002604,11.9161288 C1.67463479,10.4986235 2.51190533,7.6636469 5.02409183,7.6636469 C7.32693302,7.6636469 12.1838485,7.89563175 13.1886959,8.82345187 C14.1936284,9.75127199 15.3868686,11.1430448 15.3868686,11.5296294" id="Shape"></path>
                    <path d="M21.6676544,17.3280578 C21.8770083,16.8125548 20.474329,15.7816341 13.1890367,15.7816341 C6.28047053,16.5548033 4.08230627,16.1682187 3.14023953,16.5548033 C2.19816426,16.941388 -2.66453526e-14,18.8743962 -2.66453526e-14,20.4208199 M-2.66453526e-14,20.4208199 C-2.66453526e-14,21.9672436 0.942075266,25.0600909 2.51218651,25.0600909 C3.76828402,25.0600909 15.3871243,25.0600909 21.0395929,25.0600909 C21.6676544,25.0600909 22.6097041,25.0600909 21.9816426,23.9002519 C21.6676544,23.3203323 20.7256047,20.8074045 20.0975432,20.4208199 C19.5950769,20.1115181 6.48982438,20.5497383 -2.66453526e-14,20.4208199 Z" id="Shape"></path>
                </g>
                <path d="M44.2776994,20.4210755 C43.9637112,22.3540838 43.6496379,25.0602613 40.8234888,25.0602613 L40.8234888,25.0602613 L23.866168,25.0602613 C23.5521799,25.0602613 21.0399337,20.4210755 21.6679953,20.4210755 L21.6679953,20.4210755 Z M20.0975432,20.4208199 C20.7256047,20.8074045 21.6676544,23.3203323 21.9816426,23.9002519 C22.5855479,25.0154817 21.7377971,25.0583752 21.1133478,25.0600249 L2.51218651,25.0600909 C0.942075266,25.0600909 -2.93098879e-13,21.9672436 -2.93098879e-13,20.4208199 C6.48982438,20.5497383 19.5950769,20.1115181 20.0975432,20.4208199 Z M16.643503,11.9156176 C21.7725444,11.9156176 32.0307124,11.9930708 32.0307124,12.3023726 C32.0307124,12.6116744 31.193297,13.7197927 30.7745893,14.2352104 C30.4606012,14.6217951 29.8323692,14.6217951 29.5183811,14.6217951 C26.6919763,14.6217951 22.9238627,15.3949643 22.6098746,16.1682187 C22.2958012,15.3949643 20.1598296,14.6217951 15.3875503,14.6217951 C15.0734769,14.6217951 16.643503,12.3022022 16.643503,11.9156176 Z M43.3356497,12.3024578 C43.2309302,13.59113 42.7188355,16.173246 41.7655385,15.7819749 C39.141178,14.7049024 34.6214543,14.6279687 32.2291889,14.6224734 L31.7167243,14.6220507 L33.2869207,12.3024578 Z M1.57002604,11.9161288 C1.57002604,11.7678684 10.7813396,11.7872957 15.3870391,11.9161288 C15.3868686,12.6894684 14.6333822,13.9264199 14.130916,14.2357217 C13.5028544,14.6223063 4.39617515,15.7821454 2.82606391,14.6223063 C1.2561316,13.4626377 1.56994935,12.3028838 1.57002604,11.9161288 Z M39.4747456,4.33676122 C39.8655905,5.50357021 39.7885633,6.50317731 38.9391337,6.50317731 C31.9049467,6.19389258 31.4025657,7.66331459 30.7745041,8.4361856 C29.2043929,6.11690796 23.2379361,6.50317731 22.9238627,6.50317731 C22.6098746,6.50335625 21.8562178,6.11706986 21.3537515,4.57050134 C21.3537515,4.26122512 33.4344142,4.28580737 39.4747456,4.33676122 Z M20.4114462,4.57009234 C20.4114462,5.18866181 21.0395077,6.11649897 21.3534959,6.50310063 C16.831555,6.50310063 14.863697,7.7917643 14.4449893,8.43610039 C12.8748781,5.72989731 5.96644828,6.88970228 4.71035077,6.50310063 C3.70547787,6.19382441 4.29166012,5.08556122 4.71035077,4.57009234 L20.4114462,4.57009234 Z" id="Combined-Shape" fill="#000000" fill-rule="nonzero"></path>
                <g id="Group-4" transform="translate(0.000000, 0.000000)" stroke="#000000" stroke-width="0.75">
                    <path d="M31.0887479,9.59610986 C31.7167243,8.82311104 32.3447858,7.2763295 37.9972544,7.6631527 C42.5191953,7.97257376 43.440284,11.0137004 43.3356497,12.3024578 M43.3356497,12.3024578 C43.2309302,13.59113 42.7188355,16.173246 41.7655385,15.7819749 C38.9393041,14.6220507 33.914897,14.6220507 31.7167243,14.6220507 L33.2869207,12.3024578 L43.3356497,12.3024578 Z M21.6679953,19.6479063 C22.1913373,18.6169004 23.4264994,16.555059 24.1801562,16.555059 C25.1222911,16.555059 28.8905751,14.6220507 40.8234888,16.555059 C42.3936,16.9416436 44.5917728,18.4880673 44.2776994,20.4210755 M44.2776994,20.4210755 C43.9637112,22.3540838 43.6496379,25.0602613 40.8234888,25.0602613 C37.9972544,25.0602613 24.1801562,25.0602613 23.866168,25.0602613 C23.5521799,25.0602613 21.0399337,20.4210755 21.6679953,20.4210755 C22.1704615,20.4210755 36.9504852,20.4210755 44.2776994,20.4210755 Z" id="Shape"></path>
                    <path d="M16.643503,11.9156176 C16.643503,12.3022022 15.0734769,14.6217951 15.3875503,14.6217951 C20.1598296,14.6217951 22.2958012,15.3949643 22.6098746,16.1682187 C22.9238627,15.3949643 26.6919763,14.6217951 29.5183811,14.6217951 C29.8323692,14.6217951 30.4606012,14.6217951 30.7745893,14.2352104 C31.193297,13.7197927 32.0307124,12.6116744 32.0307124,12.3023726 C32.0307124,11.9930708 21.7725444,11.9156176 16.643503,11.9156176 Z M16.643503,11.9156176 C16.643503,11.6063158 15.3719574,10.020782 15.3872407,9.98286489 C16.9597917,6.11862915 27.0063053,7.66320382 28.5764166,8.43644122 C29.7308876,9.44563412 32.3447006,11.5291181 32.0307124,11.915788" id="Shape"></path>
                    <path d="M39.4747456,4.33676122 C39.8655905,5.50357021 39.7885633,6.50317731 38.9391337,6.50317731 C31.9049467,6.19389258 31.4025657,7.66331459 30.7745041,8.4361856 C29.2043929,6.11690796 23.2379361,6.50317731 22.9238627,6.50317731 C22.6098746,6.50335625 21.8562178,6.11706986 21.3537515,4.57050134 C21.3537515,4.26122512 33.4344142,4.28580737 39.4747456,4.33676122 Z M39.4747456,4.33676122 C39.2876308,3.77815199 38.9932402,3.1812166 38.6250604,2.63729708 C37.0549491,0.317797905 33.2866651,-0.842437106 24.4940592,0.704152461 C23.5519243,1.60633376 21.6678249,3.87462347 21.6678249,4.18389968" id="Shape"></path>
                    <path d="M4.71035077,4.57009234 C4.29166012,5.08556122 3.70547787,6.19382441 4.71035077,6.50310063 C5.96644828,6.88970228 12.8748781,5.72989731 14.4449893,8.43610039 C14.863697,7.7917643 16.831555,6.50310063 21.3534959,6.50310063 C21.0395077,6.11649897 20.4114462,5.18866181 20.4114462,4.57009234 L4.71035077,4.57009234 Z M4.71035077,4.57009234 C5.12902438,3.79688903 6.21757917,2.01852311 7.22245207,1.09068595 C8.47853254,-0.0691198701 17.2712237,-0.455721527 20.7254343,1.09068595 C21.2279006,1.40008998 21.7722036,1.99290986 21.9815574,2.2506443" id="Shape"></path>
                    <path d="M1.57002604,11.9161288 C1.57002604,11.7678684 10.7813396,11.7872957 15.3870391,11.9161288 C15.3868686,12.6894684 14.6333822,13.9264199 14.130916,14.2357217 C13.5028544,14.6223063 4.39617515,15.7821454 2.82606391,14.6223063 C1.2561316,13.4626377 1.56994935,12.3028838 1.57002604,11.9161288 Z M1.57002604,11.9161288 C1.67463479,10.4986235 2.51190533,7.6636469 5.02409183,7.6636469 C7.32693302,7.6636469 12.1838485,7.89563175 13.1886959,8.82345187 C14.1936284,9.75127199 15.3868686,11.1430448 15.3868686,11.5296294" id="Shape"></path>
                    <path d="M21.6676544,17.3280578 C21.8770083,16.8125548 20.474329,15.7816341 13.1890367,15.7816341 C6.28047053,16.5548033 4.08230627,16.1682187 3.14023953,16.5548033 C2.19816426,16.941388 -2.66453526e-14,18.8743962 -2.66453526e-14,20.4208199 M-2.66453526e-14,20.4208199 C-2.66453526e-14,21.9672436 0.942075266,25.0600909 2.51218651,25.0600909 C3.76828402,25.0600909 15.3871243,25.0600909 21.0395929,25.0600909 C21.6676544,25.0600909 22.6097041,25.0600909 21.9816426,23.9002519 C21.6676544,23.3203323 20.7256047,20.8074045 20.0975432,20.4208199 C19.5950769,20.1115181 6.48982438,20.5497383 -2.66453526e-14,20.4208199 Z" id="Shape"></path>
                </g>
            </g>
        </g>
    </g>
</svg>