<?xml version="1.0" encoding="UTF-8"?>
<svg width="48px" height="48px" viewBox="0 0 48 48" version="1.1" xmlns="http://www.w3.org/2000/svg" xmlns:xlink="http://www.w3.org/1999/xlink">
    <!-- Generator: Sketch 61.2 (89653) - https://sketch.com -->
    <title>ic_work_type_debris</title>
    <desc>Created with Sketch.</desc>
    <g id="worktype-icons" stroke="none" stroke-width="1" fill="none" fill-rule="evenodd">
        <g id="ic_work_type_debris" fill="#000000" fill-rule="nonzero" stroke="#FFFFFF">
            <path d="M9.47595903,19.6242398 L12.248959,19.6242398 L12.245959,19.8772398 C12.243959,19.9902398 12.247959,20.1042398 12.255959,20.2182398 L14.179959,45.5572398 C14.2097638,45.9482743 14.5357903,46.2502398 14.927959,46.2502398 L33.992959,46.2502398 C34.3869169,46.2502398 34.7136446,45.9452496 34.740959,45.5522398 L36.499959,20.1942398 C36.5062989,20.1077149 36.5096343,20.020996 36.509959,19.9342398 L36.508959,19.8772398 L36.504959,19.6242398 L39.250959,19.6242398 L39.250959,16.1842398 L13.960959,16.1842398 L36.524959,5.52423976 C36.8966458,5.34820543 37.0572392,4.90568143 36.884959,4.53223976 L35.809959,2.19423976 L35.805959,2.18723976 C35.6291165,1.81291341 35.1824161,1.65267416 34.807959,1.82923976 L9.17795903,13.9392398 C8.8062723,14.1152741 8.64567891,14.5577981 8.81795903,14.9312398 L9.45295903,16.3132398 L9.47595903,16.4172398 L9.47595903,19.6242398 L9.47595903,19.6242398 Z" id="Path"></path>
        </g>
    </g>
</svg>