<?xml version="1.0" encoding="UTF-8"?>
<svg width="48px" height="48px" viewBox="0 0 48 48" version="1.1" xmlns="http://www.w3.org/2000/svg" xmlns:xlink="http://www.w3.org/1999/xlink">
    <defs>
        <rect id="path-1" x="0" y="0" width="43.7647059" height="48"></rect>
        <path d="M41.7560471,22.7888471 L21.7905882,2.82352941 L1.82525647,22.7888471 C1.27393412,23.3402824 1.27393412,24.2340706 1.82525647,24.7853647 C2.37659294,25.3368 3.27046588,25.3368 3.82180235,24.7853647 L4.23456,24.3727059 L4.23456,44.3488941 C4.23456,45.1286118 4.86663529,45.7606588 5.64632471,45.7606588 L38.1169412,45.7606588 C38.8966588,45.7606588 39.5287059,45.1284706 39.5287059,44.3488941 L39.5287059,24.5546824 L39.7593882,24.7853647 C40.3108235,25.3368 41.2046118,25.3368 41.7560471,24.7853647 C42.3073412,24.2340706 42.3073412,23.3402824 41.7560471,22.7888471 Z" id="path-3"></path>
    </defs>
    <g id="ic_work_type_heat" stroke="none" stroke-width="1" fill="none" fill-rule="evenodd">
        <g id="heat" transform="translate(2.000000, 0.000000)">
            <g id="Group">
                <path d="M41.7560471,22.7888471 L21.7905882,2.82352941 L1.82525647,22.7888471 C1.27393412,23.3402824 1.27393412,24.2340706 1.82525647,24.7853647 C2.37659294,25.3368 3.27046588,25.3368 3.82180235,24.7853647 L4.23456,24.3727059 L4.23456,44.3488941 C4.23456,45.1286118 4.86663529,45.7606588 5.64632471,45.7606588 L38.1169412,45.7606588 C38.8966588,45.7606588 39.5287059,45.1284706 39.5287059,44.3488941 L39.5287059,24.5546824 L39.7593882,24.7853647 C40.3108235,25.3368 41.2046118,25.3368 41.7560471,24.7853647 C42.3073412,24.2340706 42.3073412,23.3402824 41.7560471,22.7888471 Z" id="Path" fill="#000000"></path>
                <g id="Clipped">
                    <mask id="mask-2" fill="white">
                        <use xlink:href="#path-1"></use>
                    </mask>
                    <g id="Rectangle"></g>
                    <path d="M21.7905882,2.82352941 L22.7888471,1.82525647 L21.7905882,0.826992 L20.7923294,1.82525647 L21.7905882,2.82352941 Z M41.7560471,22.7888471 L40.7577882,23.7871059 L40.7577882,23.7871059 L41.7560471,22.7888471 Z M1.82525647,22.7888471 L2.82352941,23.7871059 L2.82352941,23.7871059 L1.82525647,22.7888471 Z M1.82525647,24.7853647 L2.82352941,23.7871059 L2.82352941,23.7871059 L1.82525647,24.7853647 Z M3.82180235,24.7853647 L2.82352941,23.7871059 L2.82352941,23.7871059 L3.82180235,24.7853647 Z M4.23456,24.3727059 L5.64632471,24.3727059 L5.64632471,20.9644235 L3.23630118,23.3744471 L4.23456,24.3727059 Z M39.5287059,24.5546824 L40.5269647,23.5564235 L38.1169412,21.1464 L38.1169412,24.5546824 L39.5287059,24.5546824 Z M41.7560471,24.7853647 L40.7577882,23.7871059 L40.7577882,23.7871059 L41.7560471,24.7853647 Z M20.7923294,3.82180235 L40.7577882,23.7871059 L42.7543059,21.7905882 L22.7888471,1.82525647 L20.7923294,3.82180235 Z M2.82352941,23.7871059 L22.7888471,3.82180235 L20.7923294,1.82525647 L0.826997647,21.7905882 L2.82352941,23.7871059 Z M2.82352941,23.7871059 L2.82352941,23.7871059 L0.826997647,21.7905882 C-0.275661176,22.8933176 -0.275661176,24.6810353 0.826997647,25.7837647 L2.82352941,23.7871059 Z M2.82352941,23.7871059 L2.82352941,23.7871059 L0.826997647,25.7837647 C1.92965647,26.8863529 3.71741647,26.8863529 4.82006118,25.7837647 L2.82352941,23.7871059 Z M3.23630118,23.3744471 L2.82352941,23.7871059 L4.82006118,25.7837647 L5.23283294,25.3709647 L3.23630118,23.3744471 Z M5.64632471,44.3488941 L5.64632471,24.3727059 L2.82279529,24.3727059 L2.82279529,44.3488941 L5.64632471,44.3488941 Z M5.64632471,44.3488941 L5.64632471,44.3488941 L2.82279529,44.3488941 C2.82279529,45.9081882 4.08693176,47.1724235 5.64632471,47.1724235 L5.64632471,44.3488941 Z M38.1169412,44.3488941 L5.64632471,44.3488941 L5.64632471,47.1724235 L38.1169412,47.1724235 L38.1169412,44.3488941 Z M38.1169412,44.3488941 L38.1169412,44.3488941 L38.1169412,47.1724235 C39.6763765,47.1724235 40.9404706,45.9081882 40.9404706,44.3488941 L38.1169412,44.3488941 Z M38.1169412,24.5546824 L38.1169412,44.3488941 L40.9404706,44.3488941 L40.9404706,24.5546824 L38.1169412,24.5546824 Z M40.7577882,23.7871059 L40.5269647,23.5564235 L38.5304471,25.5529412 L38.7611294,25.7837647 L40.7577882,23.7871059 Z M40.7577882,23.7871059 L40.7577882,23.7871059 L38.7611294,25.7837647 C39.8638588,26.8863529 41.6515765,26.8863529 42.7543059,25.7837647 L40.7577882,23.7871059 Z M40.7577882,23.7871059 L40.7577882,23.7871059 L42.7543059,25.7837647 C43.8568941,24.6810353 43.8568941,22.8933176 42.7543059,21.7905882 L40.7577882,23.7871059 Z" id="Shape" fill="#FFFFFF" fill-rule="nonzero" mask="url(#mask-2)"></path>
                    <mask id="mask-4" fill="white">
                        <use xlink:href="#path-3"></use>
                    </mask>
                    <g id="Path"></g>
                </g>
            </g>
            <rect id="Rectangle" fill="#FFFFFF" fill-rule="nonzero" x="14.1176471" y="27.4081412" width="2.82352941" height="14.1176471" rx="1"></rect>
            <rect id="Rectangle" fill="#FFFFFF" fill-rule="nonzero" x="18.3529412" y="27.4081412" width="2.82352941" height="14.1176471" rx="1"></rect>
            <rect id="Rectangle" fill="#FFFFFF" fill-rule="nonzero" x="22.5882353" y="27.4081412" width="2.82352941" height="14.1176471" rx="1"></rect>
            <rect id="Rectangle" fill="#FFFFFF" fill-rule="nonzero" x="26.8235294" y="27.4081412" width="2.82352941" height="14.1176471" rx="1"></rect>
            <path d="M26.8242353,18.9375529 C29.0830588,16.6787294 25.8830118,14.7022588 24.0007059,13.99632 C24.9417882,14.5744941 26.4005647,16.3720941 24.7058824,18.9375529 C23.0112,21.5028706 25.4120471,24.2416941 26.8242353,25.2904941 C25.8830118,24.1139294 24.5654118,21.1963765 26.8242353,18.9375529 Z" id="Path" fill="#FFFFFF" fill-rule="nonzero"></path>
            <path d="M22.5172235,18.9375529 C24.7760471,16.6787294 21.576,14.7022588 19.6936941,13.99632 C20.6349176,14.5744941 22.0935529,16.3720941 20.3988706,18.9375529 C18.7041882,21.5028706 21.1050353,24.2416941 22.5172235,25.2904941 C21.576,24.1139294 20.2584,21.1963765 22.5172235,18.9375529 Z" id="Path" fill="#FFFFFF" fill-rule="nonzero"></path>
            <path d="M18.2819294,18.9375529 C20.5407529,16.6787294 17.3407059,14.7022588 15.4584,13.99632 C16.3996235,14.5744941 17.8582588,16.3720941 16.1635765,18.9375529 C14.4688941,21.5028706 16.8697412,24.2416941 18.2819294,25.2904941 C17.3407059,24.1139294 16.0231059,21.1963765 18.2819294,18.9375529 Z" id="Path" fill="#FFFFFF" fill-rule="nonzero"></path>
        </g>
    </g>
</svg>