<svg xmlns="http://www.w3.org/2000/svg" xmlns:xlink="http://www.w3.org/1999/xlink" version="1.1" width="35pt" height="35pt" viewBox="0 0 35 35">
<path transform="matrix(1,0,0,-1,0,35)" d="M17.5 0C27.164984 0 35 7.835016 35 17.5 35 27.164984 27.164984 35 17.5 35 7.835017 35 0 27.164984 0 17.5 0 7.835016 7.835017 0 17.5 0ZM28.15218 10.344597 17.5 29.008713 6.84782 10.344597H28.15218ZM17.5 26.992 26.428999 11.345001H8.57L17.5 26.992ZM17.5 13.205246C17.935753 13.205246 18.289002 13.558495 18.289002 13.994247 18.289002 14.43 17.935753 14.783249 17.5 14.783249 17.064248 14.783249 16.710999 14.43 16.710999 13.994247 16.710999 13.558495 17.064248 13.205246 17.5 13.205246ZM17.5 22.324877C17.74546 22.324877 17.949608 22.148 17.991944 21.914753L18 21.824877V16.494412C18 16.21827 17.776143 15.994411 17.5 15.994411 17.25454 15.994411 17.050393 16.171286 17.008057 16.404536L17 16.494412V21.824877C17 22.101019 17.223858 22.324877 17.5 22.324877Z" fill="#2d2d2d" fill-rule="evenodd"/>
</svg>
