<svg xmlns="http://www.w3.org/2000/svg" xmlns:xlink="http://www.w3.org/1999/xlink" width="54" height="54" viewBox="0 0 54 54">
    <defs>
        <path id="oxygen__b" d="M47 40.129C47 46.88 43.473 51 37.566 51c-5.906 0-9.433-4.12-9.433-10.871zm-4.043-27.043c.745 0 1.348.603 1.348 1.348v5.39c0 .745-.603 1.348-1.348 1.348-.745 0-1.348-.603-1.348-1.348v-1.347h-2.695v5.597c4.04 1.137 7.169 7.297 7.913 13.36H28.306c.744-6.063 3.872-12.223 7.913-13.36v-5.597h-2.944c-.487 1.367-1.697 2.353-3.16 2.593.43-1.242.713-2.554.713-3.941s-.283-2.699-.713-3.941c1.463.24 2.673 1.226 3.16 2.593h8.334v-1.347c0-.745.603-1.348 1.348-1.348zM3.695 5c1.489 0 2.696 1.207 2.696 2.695v18.867c0 1.489-1.207 2.696-2.696 2.696C2.207 29.258 1 28.05 1 26.563V7.695C1 6.207 2.207 5 3.695 5zM18.7 7.695c5.201 0 9.434 4.233 9.434 9.434s-4.233 9.433-9.434 9.433H9.086V7.695zm0 5.39c-2.23 0-4.043 1.815-4.043 4.044 0 2.23 1.814 4.043 4.043 4.043 2.23 0 4.043-1.814 4.043-4.043 0-2.23-1.813-4.043-4.043-4.043zm0 2.696c.744 0 1.348.604 1.348 1.348 0 .743-.604 1.348-1.348 1.348-.743 0-1.347-.605-1.347-1.348 0-.744.604-1.348 1.347-1.348z"/>
    </defs>
    <g fill="none" fill-rule="evenodd" transform="translate(3 -3)">
        <path fill="#000000" stroke="#ffffff"  stroke-linejoin="square" stroke-width=".5" d="M46.748 40.383l-18.356.327c.097 3.097.973 5.595 2.523 7.326 1.573 1.757 3.836 2.714 6.651 2.714 2.865 0 5.158-.99 6.733-2.806 1.552-1.789 2.406-4.368 2.45-7.56zm-3.791-27.047c-.303 0-.578.123-.776.321-.199.199-.322.473-.322.777v1.603l-8.834-.212c-.418-1.13-1.366-1.976-2.535-2.3.36 1.143.588 2.343.588 3.604 0 1.26-.228 2.46-.588 3.603.526-.145 1.007-.396 1.415-.731.554-.455.974-1.064 1.19-1.774h3.384l-.24 6.101c-1.908.559-3.593 2.276-4.912 4.555-1.366 2.361-2.336 5.33-2.736 8.295l17.905-.326c-.444-2.973-1.454-5.927-2.854-8.246-1.348-2.23-3.055-3.876-4.978-4.34v-6.04h3.194l.007 1.715c.03.275.16.52.354.696.195.177.454.285.738.285.303 0 .578-.123.776-.321.199-.199.322-.473.322-.777l-.007-5.508c-.029-.275-.16-.52-.353-.696-.195-.176-.454-.284-.738-.284zM3.695 5.25c-.675 0-1.286.274-1.729.716-.442.443-.716 1.054-.716 1.73l.005 19.029c.042.638.329 1.21.767 1.62.438.411 1.026.663 1.673.663.676 0 1.287-.274 1.73-.716.442-.443.716-1.054.716-1.73l-.006-19.03c-.041-.637-.328-1.209-.767-1.62-.437-.41-1.025-.662-1.673-.662zM18.7 7.945c2.532 0 4.828 1.03 6.49 2.693 1.664 1.663 2.694 3.96 2.694 6.49 0 2.485-.992 4.743-2.6 6.397-1.614 1.66-3.847 2.714-6.316 2.784h0l-9.631.003V7.945zm0 4.89c-1.183 0-2.257.482-3.034 1.26-.777.777-1.259 1.85-1.259 3.034 0 1.184.482 2.257 1.259 3.034.777.778 1.85 1.259 3.034 1.259 1.184 0 2.257-.481 3.034-1.259.778-.777 1.26-1.85 1.26-3.034 0-1.184-.482-2.257-1.26-3.034-.777-.778-1.85-1.26-3.034-1.26zm0 3.196c.303 0 .577.123.776.322.199.199.322.473.322.776 0 .303-.123.577-.322.776-.199.198-.473.322-.776.322-.303 0-.577-.124-.776-.322-.198-.199-.321-.473-.321-.776 0-.303.123-.577.321-.776.199-.199.473-.322.776-.322z"/>
        <path stroke="#FFF" d="M47.494 39.62l-19.86.353c-.03 3.661.947 6.58 2.722 8.563 1.705 1.905 4.151 2.964 7.21 2.964 3.113 0 5.592-1.096 7.3-3.065 1.774-2.044 2.722-5.05 2.628-8.815zm-4.537-27.034c-.51 0-.973.207-1.307.54-.334.335-.54.797-.54 1.308v.835l-7.591-.182c-.646-1.262-1.872-2.155-3.323-2.393-.276-.045-.551-.065-.824-.061.097.237.187.477.27.718.413 1.191.686 2.448.686 3.778s-.273 2.587-.686 3.777c-.083.242-.173.481-.27.719.273.004.548-.016.824-.061.822-.135 1.572-.48 2.185-.983.524-.43.948-.976 1.231-1.604H35.7l-.19 4.81c-1.854.736-3.52 2.454-4.83 4.72-1.545 2.67-2.603 6.091-2.933 9.437l19.602-.358c-.38-3.353-1.484-6.751-3.065-9.368-1.333-2.207-3.011-3.85-4.869-4.51v-4.731h1.697l.005 1c.04.481.262.91.6 1.216.327.297.763.479 1.24.479.512 0 .973-.207 1.308-.541.334-.334.54-.796.54-1.307l-.006-5.543c-.039-.48-.262-.91-.6-1.216-.327-.298-.763-.48-1.241-.48zM3.695 4.5c-.882 0-1.68.358-2.26.936C.859 6.014.5 6.813.5 7.696l.005 19.052c.049.844.425 1.601 1.004 2.145.572.536 1.34.865 2.186.865.883 0 1.681-.358 2.26-.936.578-.578.936-1.377.936-2.26L6.885 7.51c-.048-.845-.424-1.601-1.003-2.145C5.31 4.83 4.542 4.5 3.695 4.5zM18.7 7.195c2.739 0 5.222 1.114 7.021 2.913 1.799 1.799 2.913 4.282 2.913 7.02 0 2.688-1.073 5.13-2.813 6.92-1.747 1.797-4.165 2.937-6.846 3.01h0l-10.388.005V7.195zm0 6.39c-.977 0-1.862.398-2.504 1.04-.641.641-1.039 1.527-1.039 2.504 0 .977.398 1.862 1.04 2.504.64.641 1.526 1.039 2.503 1.039.977 0 1.863-.398 2.504-1.04.642-.64 1.04-1.526 1.04-2.503 0-.977-.398-1.863-1.04-2.504-.641-.642-1.527-1.04-2.504-1.04zm0 1.696c.51 0 .972.207 1.306.542.335.334.542.796.542 1.306s-.207.972-.542 1.306c-.334.335-.796.542-1.306.542s-.971-.207-1.306-.542c-.335-.334-.541-.796-.541-1.306s.206-.972.541-1.306c.335-.335.797-.542 1.306-.542z"/>
    </g>
</svg>