<?xml version="1.0" encoding="UTF-8"?>
<svg width="48px" height="48px" viewBox="0 0 48 48" version="1.1" xmlns="http://www.w3.org/2000/svg" xmlns:xlink="http://www.w3.org/1999/xlink">
    <g id="worktype-icons" stroke="none" stroke-width="1" fill="none" fill-rule="evenodd">
        <g id="ic_work_type_demolition" fill="#000000" fill-rule="nonzero" stroke="#FFFFFF">
            <path d="M7.58999889,1.92857143 L2.35714175,1.92857143 L2.35714175,46.0714286 L7.58999889,46.0714286 L7.58999889,43.8231429 C5.21657032,41.8774286 3.76885603,38.6588571 3.76885603,35.1488571 C3.76885603,31.6388571 5.21742746,28.4202857 7.58999889,26.4745714 L7.58999889,1.92857143 Z M32.1531417,2.07 C31.8344042,1.91514431 31.4504002,2.04543821 31.2917132,2.36228571 L19.1759989,26.9742857 L18.9951417,26.9065714 C17.9948203,26.5339317 16.9357589,26.3437767 15.8682846,26.3451429 C10.9645703,26.3451429 6.98914175,30.288 6.98914175,35.1497143 C6.98914175,40.0122857 10.9645703,43.9542857 15.8682846,43.9542857 C20.7719989,43.9542857 24.7474275,40.0114286 24.7474275,35.1497143 C24.7474275,32.0494286 23.1179989,29.2268571 20.4994275,27.6368571 L20.3322846,27.534 L20.4179989,27.3591429 L32.4445703,2.93142857 L32.478856,2.85171429 C32.5857257,2.54642822 32.445761,2.20962657 32.1539989,2.07 L32.1531417,2.07 Z M40.0302846,34.596 C39.9146212,34.2608675 39.5502935,34.0817653 39.2142846,34.1948571 L26.0974275,38.5748571 L26.0159989,38.6065714 C25.7227189,38.7426449 25.5787204,39.0775336 25.6817132,39.384 C25.7977303,39.7187906 26.16195,39.8974571 26.4977132,39.7842857 L39.6145703,35.406 L39.6959989,35.3734286 C39.9892789,35.2373551 40.1332774,34.9024664 40.0302846,34.596 L40.0302846,34.596 Z M45.6094275,27.7002857 C45.4934103,27.3654951 45.1291907,27.1868286 44.7934275,27.3 L31.6757132,31.6791429 L31.5942846,31.7108571 C31.300579,31.8469732 31.156499,32.1824209 31.2599989,32.4891429 C31.376016,32.8239334 31.7402357,33.0026 32.0759989,32.8894286 L45.1937132,28.5102857 L45.2751417,28.4785714 C45.5688474,28.3424554 45.7129273,28.0070077 45.6094275,27.7002857 L45.6094275,27.7002857 Z M39.0445703,25.0422857 C38.9289069,24.7071533 38.5645793,24.528051 38.2285703,24.6411429 L25.1117132,29.0211429 L25.0302846,29.0528571 C24.7370046,29.1889306 24.5930061,29.5238194 24.6959989,29.8302857 C24.812016,30.1650763 25.1762357,30.3437429 25.5119989,30.2305714 L38.628856,25.8522857 L38.7102846,25.8197143 C39.0035646,25.6836409 39.1475631,25.3487521 39.0445703,25.0422857 L39.0445703,25.0422857 Z" id="Shape"></path>
        </g>
    </g>
</svg>