<?xml version="1.0" encoding="UTF-8"?>
<svg width="48px" height="48px" viewBox="0 0 48 48" version="1.1" xmlns="http://www.w3.org/2000/svg" xmlns:xlink="http://www.w3.org/1999/xlink">
    <!-- Generator: Sketch 61.2 (89653) - https://sketch.com -->
    <title>ic_work_type_animal_services</title>
    <desc>Created with Sketch.</desc>
    <g id="worktype-icons" stroke="none" stroke-width="1" fill="none" fill-rule="evenodd">
        <g id="ic_work_type_animal_services" fill="#000000" fill-rule="nonzero" stroke="#FFFFFF">
            <path d="M29.037886,27.6892553 C28.220886,27.3232553 27.625886,27.0962553 26.741886,27.1992553 C26.815886,27.7532553 27.100886,29.1322553 27.484886,31.5972553 C26.914886,31.9702553 26.316886,32.4892553 25.690886,33.1522553 C24.870886,34.0212553 24.657886,34.5122553 24.089886,35.8022553 C23.762886,36.5822553 23.439886,37.3642553 21.763886,38.3422553 C20.679886,38.9752553 20.444886,39.2052553 20.201886,39.4472553 C20.034886,39.6132553 19.863886,39.7832553 19.448886,40.0722553 C19.070886,40.3362553 18.875886,40.5922553 18.863886,41.4062553 C18.979886,41.5142553 19.156886,41.6422553 19.352886,41.7862553 C19.777886,42.0982553 20.284886,42.4772553 20.562886,42.8782553 C20.796886,43.2162553 21.122886,43.7002553 21.842886,43.9252553 C22.338886,44.0812553 23.012886,44.1132553 23.950886,43.9162553 C24.266886,43.8502553 24.580886,43.7812553 24.886886,43.7142553 C26.112886,43.4472553 27.236886,43.2042553 28.028886,43.1962553 C28.375886,43.1932553 28.663886,43.2352553 28.880886,43.3262553 C29.129886,43.4322553 29.295886,43.6012553 29.375886,43.8362553 C29.582886,44.4382553 29.710886,45.5402553 29.752886,47.1442553 L42.895886,46.7672553 C40.574886,42.7532553 39.281886,40.1052553 39.004886,38.8262553 C38.576886,36.8502553 36.842886,33.7682553 35.185886,32.4872553 C34.129886,31.6712553 33.398886,31.2302553 32.780886,31.1272553 C31.518886,29.3952553 30.274886,28.2452553 29.036886,27.6892553 L29.037886,27.6892553 Z M33.812886,2.09325532 C33.878886,1.90925532 34.018886,1.64325532 34.168886,1.36325532 C34.304886,1.10625532 34.610886,0.723255319 34.272886,0.496255319 C33.334886,1.00325532 31.660886,2.82025532 28.974886,6.00825532 C24.700886,4.90925532 20.960886,5.09425532 17.756886,6.57825532 C14.863886,7.91825532 12.666886,9.30825532 11.170886,10.7552553 L15.544886,10.3442553 C12.816886,11.7852553 10.979886,12.8642553 10.037886,13.5822553 C7.16088601,15.7742553 5.62988601,17.8692553 4.83488601,19.1782553 C3.89388601,20.7282553 3.24488601,21.9662553 2.88988601,22.8922553 L7.41388601,20.6612553 C4.84288601,28.0012553 5.66688601,35.0072553 10.704886,40.8682553 C13.830886,44.5032553 19.693886,46.5582553 28.208886,46.6952553 C28.199886,46.5312553 28.191886,46.3512553 28.188886,46.1712553 C28.179886,45.8142553 28.188886,45.4562553 27.995886,44.6722553 C27.660886,44.6792553 27.160886,44.8432553 26.555886,45.0262553 C25.355886,45.3902553 23.775886,45.8632553 22.192886,45.7122553 C20.104886,45.5122553 17.505886,42.4542553 17.134886,41.6722553 C17.024886,41.4382553 17.008886,41.1842553 17.079886,40.9092553 C17.144886,40.6532553 17.289886,40.3772553 17.503886,40.0832553 C17.992886,39.4082553 18.850886,38.6272553 19.813886,37.7652553 C20.054886,37.5492553 20.315886,37.3392553 20.580886,37.1262553 C21.302886,36.5462553 22.062886,35.9432553 22.488886,35.1132553 C23.528886,33.0872553 25.088886,31.4612553 25.563886,30.9892553 C25.190886,29.8432553 25.003886,28.6132553 25.136886,27.2312553 C25.426886,24.2002553 26.509886,22.1122553 28.682886,20.9972553 C30.308886,23.0522553 31.725886,24.4362553 32.941886,25.1402553 C34.136886,25.8322553 35.193886,26.2182553 36.344886,26.4942553 C36.520886,27.5302553 36.839886,28.3122553 37.315886,28.8322553 C37.771886,29.3282553 38.372886,29.5722553 39.113886,29.5722553 C40.302886,29.5722553 41.317886,29.2562553 42.051886,28.6152553 C42.746886,28.0092553 43.182886,27.1142553 43.283886,25.9452553 C43.425886,24.3102553 42.783886,22.7732553 41.321886,21.2302553 C39.784886,16.5682553 38.711886,13.7132553 38.092886,12.6702553 C37.476886,11.6292553 36.720886,10.5472553 35.771886,9.29325532 C35.629886,7.90925532 35.559886,6.92825532 35.559886,6.35125532 C35.559886,6.01625532 35.631886,5.38625532 35.709886,4.70925532 C35.805886,3.88025532 35.981886,2.90925532 35.729886,2.47125532 C35.562886,2.61925532 35.377886,2.82925532 35.205886,3.02125532 C35.039886,3.20625532 34.885886,3.37725532 34.767886,3.47925532 C34.497886,3.71525532 34.236886,3.96225532 33.983886,4.22125532 C33.843886,4.36325532 33.708886,4.50825532 33.577886,4.65525532 C33.563886,4.46525532 33.555886,4.26225532 33.554886,4.04825532 C33.548886,3.23025532 33.636886,2.57825532 33.812886,2.09325532 L33.812886,2.09325532 Z" id="Shape"></path>
            <g id="Group" transform="translate(2.979693, 0.496255)">
                <path d="M31.279,0.867 C31.415,0.61 31.721,0.227 31.383,2.48689958e-14 C30.445,0.507 28.771,2.324 26.085,5.512 C21.811,4.413 18.071,4.598 14.867,6.082 C11.974,7.422 9.777,8.812 8.281,10.259 L12.655,9.848 C9.927,11.289 8.09,12.368 7.148,13.086 C4.271,15.278 2.74,17.373 1.945,18.682 C1.004,20.232 0.355,21.47 2.13162821e-14,22.396 L4.524,20.165 C1.953,27.505 2.777,34.511 7.815,40.372 C10.941,44.007 16.804,46.062 25.319,46.199 C25.31,46.035 30.668,46.379 30.665,46.199 C30.656,45.842 20.9993175,34.2453764 22.247,26.735 C22.7446324,23.7395214 23.62,21.616 25.793,20.501 C27.419,22.556 28.836,23.94 30.052,24.644 C31.247,25.336 32.304,25.722 33.455,25.998 C33.631,27.034 33.95,27.816 34.426,28.336 C34.882,28.832 35.483,29.076 36.224,29.076 C37.413,29.076 38.428,28.76 39.162,28.119 C39.857,27.513 40.293,26.618 40.394,25.449 C40.536,23.814 39.894,22.277 38.432,20.734 C36.895,16.072 35.822,13.217 35.203,12.174 C34.587,11.133 33.831,10.051 32.882,8.797 C32.74,7.413 32.67,6.432 32.67,5.855 C32.67,5.52 32.742,4.89 32.82,4.213 C32.916,3.384 33.092,2.413 32.84,1.975 C32.673,2.123 32.488,2.333 32.316,2.525 C32.15,2.71 31.996,2.881 31.878,2.983 C31.608,3.219 31.347,3.466 31.094,3.725 C30.954,3.867 30.819,4.012 30.688,4.159 C30.674,3.969 30.666,3.766 30.665,3.552 C30.659,2.734 30.747,2.082 30.923,1.597 C30.989,1.413 31.129,1.147 31.279,0.867 Z" id="Path"></path>
                <path d="M26.148,27.193 C25.331,26.827 24.736,26.6 23.852,26.703 C23.926,27.257 24.211,28.636 24.595,31.101 C24.025,31.474 23.427,31.993 22.801,32.656 C21.981,33.525 21.768,34.016 21.2,35.306 C20.873,36.086 20.55,36.868 18.874,37.846 C17.79,38.479 17.555,38.709 17.312,38.951 C17.145,39.117 16.974,39.287 16.559,39.576 C16.181,39.84 15.986,40.096 15.974,40.91 C16.09,41.018 16.267,41.146 16.463,41.29 C16.888,41.602 17.395,41.981 17.673,42.382 C17.907,42.72 18.233,43.204 18.953,43.429 C19.449,43.585 20.123,43.617 21.061,43.42 C21.377,43.354 21.691,43.285 21.997,43.218 C23.223,42.951 24.347,42.708 25.139,42.7 C25.486,42.697 25.774,42.739 25.991,42.83 C26.24,42.936 26.406,43.105 26.486,43.34 C26.693,43.942 26.821,45.044 26.863,46.648 L40.006,46.271 C37.685,42.257 36.392,39.609 36.115,38.33 C35.687,36.354 33.953,33.272 32.296,31.991 C31.24,31.175 30.509,30.734 29.891,30.631 C28.629,28.899 27.385,27.749 26.147,27.193 L26.148,27.193 Z" id="Path"></path>
            </g>
        </g>
    </g>
</svg>