<?xml version="1.0" encoding="UTF-8" standalone="no"?>
<!DOCTYPE svg PUBLIC "-//W3C//DTD SVG 1.1//EN" "http://www.w3.org/Graphics/SVG/1.1/DTD/svg11.dtd">
<svg xmlns="http://www.w3.org/2000/svg" xmlns:xlink="http://www.w3.org/1999/xlink" version="1.1" width="35pt" height="35pt" viewBox="0 0 35 35">
<g enable-background="new">
<path transform="matrix(1,0,0,-1,0,35)" d="M 17.5 0 C 27.164984 0 35 7.835016 35 17.5 C 35 27.164984 27.164984 35 17.5 35 C 7.835017 35 0 27.164984 0 17.5 C 0 7.835016 7.835017 0 17.5 0 Z M 18.006979 28.27767 L 17.436997 29.093214 L 17.024018 28.522469 L 16.763052 28.168404 C 16.193123 27.40971 15.574707 26.681813 14.532679 25.514349 L 13.84838 24.750226 C 10.191792 20.663483 8.825256 18.345047 8.825256 14.87657 C 8.825256 9.4634 12.531244 6.270638 17.492348 6.270638 C 22.448594 6.270638 26.174744 9.3249 26.174744 14.49464 C 26.174744 17.660513 24.90303 19.9543 21.448098 24.067936 L 19.923344 25.859742 L 19.412972 26.470002 C 18.85181 27.149168 18.404509 27.72202 18.006979 28.27767 Z M 17.421999 27.383 L 17.558899 27.198378 C 17.87657 26.776215 18.22834 26.333847 18.63824 25.837668 L 20.678994 23.428727 C 23.9829 19.494603 25.174744 17.346915 25.174744 14.49464 C 25.174744 9.925951 21.935303 7.270636 17.492348 7.270636 C 13.053175 7.270636 9.825256 10.051537 9.825256 14.87657 C 9.825256 17.93061 11.02117 20.04683 14.298975 23.752285 L 15.691427 25.312985 C 16.366423 26.076905 16.852482 26.650893 17.287055 27.207812 L 17.421999 27.383 Z M 17.175042 20.46917 C 17.024878 20.652604 16.76056 20.70825 16.54591 20.589186 C 16.30443 20.455237 16.217259 20.150893 16.351208 19.909413 L 18.449492 16.12666 L 18.500132 16.051974 C 18.650296 15.868538 18.914616 15.812891 19.129265 15.931955 C 19.370743 16.065905 19.457917 16.370249 19.323967 16.611729 L 17.225682 20.394482 L 17.175042 20.46917 Z M 15.593275 15.336765 C 15.847433 15.444738 16.140999 15.326231 16.248972 15.072073 C 16.344948 14.846155 16.261977 14.5891 16.06385 14.458933 L 15.98428 14.416376 L 12.002918 12.724991 C 11.74876 12.617018 11.455194 12.735525 11.347221 12.989683 C 11.251245 13.215603 11.334216 13.472658 11.532343 13.602825 L 11.611914 13.64538 L 15.593275 15.336765 Z M 15.180228 12.09219 C 15.002707 12.2493 14.732893 12.262035 14.540005 12.110231 C 14.323006 11.939451 14.285538 11.625093 14.456318 11.408094 L 16.822592 8.401426 L 16.884507 8.335783 C 17.062027 8.178673 17.33184 8.165936 17.524729 8.317739 C 17.741728 8.48852 17.779196 8.802877 17.608416 9.019876 L 15.242142 12.026545 L 15.180228 12.09219 Z M 19.662293 20.72382 C 19.757147 20.950213 19.999173 21.070153 20.230662 21.019064 L 20.31667 20.991763 L 22.124176 20.234452 C 22.378867 20.12774 22.498829 19.834767 22.392117 19.580077 C 22.297265 19.353684 22.055237 19.233746 21.82375 19.284832 L 21.737742 19.312134 L 19.930235 20.069445 C 19.675545 20.176156 19.555583 20.46913 19.662293 20.72382 Z M 23.652884 14.760605 C 23.61935 15.034704 23.369967 15.229721 23.095868 15.196188 L 19.740447 14.785694 L 19.652215 14.766783 C 19.42583 14.696438 19.275055 14.472321 19.304863 14.228678 C 19.338395 13.954578 19.58778 13.759562 19.861878 13.793095 L 23.2173 14.203588 L 23.305533 14.222498 C 23.531914 14.292845 23.68269 14.51696 23.652884 14.760605 Z M 19.555836 11.281506 L 21.511425 11.153921 C 21.78698 11.135942 21.995789 10.897987 21.977812 10.622431 C 21.961833 10.377491 21.772042 10.185291 21.53653 10.15823 L 21.446322 10.156042 L 19.490735 10.283627 C 19.215178 10.301605 19.006367 10.53956 19.024346 10.815117 C 19.040326 11.060057 19.230118 11.252256 19.465626 11.279318 L 19.555836 11.281506 Z M 14.297505 19.612675 C 14.31012 19.8494 14.152281 20.0686 13.913442 20.125226 L 13.824132 20.138119 C 13.587408 20.150734 13.368208 19.992896 13.311583 19.754055 L 12.541647 16.506552 L 12.528751 16.417243 C 12.516137 16.180518 12.673976 15.961317 12.912815 15.904692 C 13.181509 15.84099 13.45097 16.007166 13.514673 16.27586 L 14.284611 19.523365 L 14.297505 19.612675 Z M 18.88673 23.786313 C 19.162873 23.786313 19.38673 23.562455 19.38673 23.286313 C 19.38673 23.040852 19.209855 22.836705 18.976605 22.794369 L 18.88673 22.786313 L 16.46798 22.786313 C 16.191836 22.786313 15.967978 23.01017 15.967978 23.286313 C 15.967978 23.531773 16.144854 23.73592 16.378104 23.778258 L 16.46798 23.786313 L 18.88673 23.786313 Z " fill="#2d2d2d" fill-rule="evenodd"/>
</g>
</svg>
