<?xml version="1.0" encoding="UTF-8" standalone="no"?>
<!DOCTYPE svg PUBLIC "-//W3C//DTD SVG 1.1//EN" "http://www.w3.org/Graphics/SVG/1.1/DTD/svg11.dtd">
<svg xmlns="http://www.w3.org/2000/svg" xmlns:xlink="http://www.w3.org/1999/xlink" version="1.1" width="35pt" height="35pt" viewBox="0 0 35 35">
<g enable-background="new">
<path transform="matrix(1,0,0,-1,0,35)" d="M 17.5 0 C 27.164984 0 35 7.835016 35 17.5 C 35 27.164984 27.164984 35 17.5 35 C 7.835017 35 0 27.164984 0 17.5 C 0 7.835016 7.835017 0 17.5 0 Z M 17.491887 28.79939 C 18.067292 28.79939 18.53375 29.26585 18.53375 29.841256 C 18.53375 30.416663 18.067292 30.883122 17.491887 30.883122 C 16.916481 30.883122 16.45002 30.416663 16.45002 29.841256 C 16.45002 29.26585 16.916481 28.79939 17.491887 28.79939 Z M 13.516936 19.926838 L 21.35662 19.926838 L 28.157624 8.160332 L 6.850965 8.160332 L 13.516936 19.926838 Z M 26.424 9.160908 L 20.779999 18.926909 L 18.120957 18.926909 L 16.02 16.074908 L 18.497302 16.074629 L 17.305333 10.929874 L 16.331137 11.155582 L 17.239 15.074907 L 14.042764 15.074629 L 16.8792 18.926909 L 14.099 18.926909 L 8.566 9.160908 L 26.424 9.160908 Z M 27.645365 24.050709 C 27.645365 23.475304 27.178906 23.008845 26.603499 23.008845 C 26.028094 23.008845 25.561635 23.475304 25.561635 24.050709 C 25.561635 24.626116 26.028094 25.092576 26.603499 25.092576 C 27.178906 25.092576 27.645365 24.626116 27.645365 24.050709 Z M 8.380274 23.008845 C 8.955679 23.008845 9.422138 23.475304 9.422138 24.050709 C 9.422138 24.626116 8.955679 25.092576 8.380274 25.092576 C 7.804867 25.092576 7.338408 24.626116 7.338408 24.050709 C 7.338408 23.475304 7.804867 23.008845 8.380274 23.008845 Z M 21.410435 24.461863 C 22.20841 25.014073 23.125012 25.193877 24.128685 25.000542 C 24.399842 24.948309 24.577317 24.68615 24.525084 24.414994 C 24.47285 24.143836 24.210692 23.966362 23.939536 24.018593 C 23.195054 24.162 22.55222 24.0359 21.97948 23.639557 C 21.405293 23.24221 21.013577 22.596158 20.808186 21.674508 C 20.74812 21.404976 20.48093 21.23517 20.2114 21.295237 C 19.941868 21.3553 19.772065 21.622492 19.832129 21.892024 C 20.089089 23.045079 20.613905 23.910655 21.410435 24.461863 Z M 10.855072 25.000542 C 11.858746 25.193877 12.775347 25.014073 13.573322 24.461863 C 14.369852 23.910655 14.894669 23.045079 15.151628 21.892024 C 15.211694 21.622492 15.041889 21.3553 14.772358 21.295237 C 14.502828 21.23517 14.235638 21.404976 14.175571 21.674508 C 13.970181 22.596158 13.578464 23.24221 13.004276 23.639557 C 12.431538 24.0359 11.788704 24.162 11.044223 24.018593 C 10.773066 23.966362 10.510906 24.143836 10.458673 24.414994 C 10.406441 24.68615 10.583915 24.948309 10.855072 25.000542 Z M 17.5 27.740969 C 17.74546 27.740969 17.949608 27.564095 17.991944 27.330845 L 18 27.240969 L 18 21.910504 C 18 21.634362 17.776143 21.410504 17.5 21.410504 C 17.25454 21.410504 17.050393 21.58738 17.008057 21.820628 L 17 21.910504 L 17 27.240969 C 17 27.51711 17.223858 27.740969 17.5 27.740969 Z " fill="#2d2d2d" fill-rule="evenodd"/>
</g>
</svg>
