<?xml version="1.0" encoding="UTF-8" standalone="no"?>
<!DOCTYPE svg PUBLIC "-//W3C//DTD SVG 1.1//EN" "http://www.w3.org/Graphics/SVG/1.1/DTD/svg11.dtd">
<svg xmlns="http://www.w3.org/2000/svg" xmlns:xlink="http://www.w3.org/1999/xlink" version="1.1" width="35pt" height="35pt" viewBox="0 0 35 35">
<g enable-background="new">
<path transform="matrix(1,0,0,-1,0,35)" d="M 17.5 0 C 27.164984 0 35 7.835016 35 17.5 C 35 27.164984 27.164984 35 17.5 35 C 7.835017 35 0 27.164984 0 17.5 C 0 7.835016 7.835017 0 17.5 0 Z M 26.074395 20.464177 L 17.5 28.468605 L 8.925605 20.464177 L 8.925605 9.565861 L 8.933163 9.420444 C 9.0231 8.638821 9.662194 8.065861 10.425605 8.065861 L 16.884612 8.066658 L 16.884497 17.999098 L 15.994597 17.726767 L 15.728449 17.63039 C 15.197959 17.423449 14.678208 17.131377 14.167332 16.7547 L 13.938 16.58 C 14.409817 18.097218 15.793459 19.218014 17.449532 19.297017 L 17.649306 19.301629 L 20.166924 19.301548 L 20.389197 19.595166 C 20.46317 19.680146 20.597138 19.743168 20.742455 19.743168 C 21.012833 19.743168 21.232018 19.523983 21.232018 19.253605 L 21.232018 17.8292 L 21.226189 17.742592 C 21.200284 17.526837 20.991478 17.339638 20.742455 17.339638 C 20.534968 17.339638 20.35206 17.469906 20.282216 17.661532 L 20.162463 17.990082 L 17.970004 17.99149 L 17.969584 8.066654 L 24.574334 8.065861 L 24.719813 8.073418 C 25.501435 8.163357 26.074395 8.802448 26.074395 9.565861 L 26.074395 20.464177 Z M 17.5 27.101 L 25.073998 20.029999 L 25.074395 9.565861 C 25.074395 9.311527 24.883208 9.09827 24.63333 9.069248 L 24.545598 9.065033 L 18.969 9.067001 L 18.969 16.992 L 19.512001 16.991002 L 19.541462 16.94769 C 19.815968 16.573987 20.257035 16.339638 20.742457 16.339638 C 21.500555 16.339638 22.1352 16.90861 22.222022 17.656109 L 22.231188 17.800404 L 22.232018 19.253605 C 22.232018 20.076268 21.565117 20.743168 20.742457 20.743168 L 20.596873 20.7361 C 20.260426 20.703297 19.94894 20.557642 19.709065 20.326437 L 19.685 20.302 L 17.637396 20.301487 L 17.413809 20.296307 C 14.899768 20.176518 12.892953 18.1697 12.773588 15.667589 L 12.768124 15.443958 L 12.767982 14.049057 L 13.628412 14.943977 L 13.87108 15.188457 C 14.518289 15.819427 15.166217 16.282668 15.81385 16.581307 L 15.884 16.612 L 15.884 9.067001 L 10.425543 9.065861 C 10.171271 9.065861 9.958016 9.257046 9.928993 9.506927 L 9.924775 9.594658 L 9.924999 20.029999 L 17.5 27.101 Z " fill="#2d2d2d" fill-rule="evenodd"/>
</g>
</svg>
