<svg xmlns="http://www.w3.org/2000/svg" xmlns:xlink="http://www.w3.org/1999/xlink" version="1.1" width="35pt" height="35pt" viewBox="0 0 35 35">
<path transform="matrix(1,0,0,-1,0,35)" d="M35 17.5C35 7.835016 27.164984 0 17.5 0 7.835017 0 0 7.835016 0 17.5 0 27.164984 7.835017 35 17.5 35 27.164984 35 35 27.164984 35 17.5ZM17.976799 24.146138H29.103169L29.050097 23.597958C28.807475 21.091835 28.31102 18.716692 27.560456 16.47321 26.787127 14.16168 24.91958 11.588194 22.350209 9.330612 22.343146 9.324276 22.335865 9.318106 22.32837 9.312111 22.28264 9.273832 22.247443 9.245571 22.21229 9.227945 21.272513 8.570778 20.202189 8.319983 19.002079 8.402044 18.1077 8.463202 17.246823 8.681255 16.083943 9.092764L14.154949 9.79113C13.730899 9.936985 13.647561 9.943659 13.437528 9.960478L13.366269 9.966316C12.231174 10.063059 11.253242 9.842726 10.415112 9.30793 10.182323 9.159391 9.873195 9.22769 9.724656 9.460478 9.576118 9.693268 9.644416 10.002396 9.877206 10.150934 10.90668 10.807823 12.103796 11.077541 13.451191 10.962704 13.746801 10.93751 14.075697 10.861534 14.485713 10.731474L14.816247 10.621305 16.102932 10.148832 16.696959 9.938553C17.638913 9.618505 18.35535 9.448603 19.070302 9.399715 20.003132 9.335928 20.810435 9.509983 21.522965 9.969389 21.625773 10.796545 21.709582 11.621323 21.774392 12.443726 21.130688 12.120329 20.444006 11.951792 19.713988 11.921967 18.881018 11.887938 18.091843 12.011789 17.113587 12.304771 16.702437 12.424294 16.258593 12.57427 15.759054 12.757206L14.445505 13.236153C14.184316 13.329693 14.012311 13.388475 13.885633 13.426516 13.714282 13.472551 13.593941 13.490408 13.440062 13.50635L13.079229 13.531534C13.035908 13.533201 12.992826 13.534382 12.949982 13.53508 11.835325 13.541634 10.713252 13.140514 9.573077 12.318531 9.349076 12.157043 9.036576 12.20772 8.875088 12.431721 8.7136 12.655722 8.764277 12.968222 8.988276 13.129709 9.432303 13.449821 9.878786 13.715755 10.327304 13.926998L10.329117 17.40803 15.189573 21.584778 20.050126 17.40795 20.050618 12.952349C20.69973 13.034307 21.296763 13.261507 21.856308 13.656796 21.912255 14.651966 21.940226 15.643646 21.940226 16.631844 21.940226 18.724854 20.882456 20.951 18.73742 23.309739L17.976799 24.146138ZM17.415726 13.258766C18.026078 13.082891 18.548586 12.982777 19.070302 12.947104L19.05 12.950001V16.95L15.189 20.266999 11.328 16.949 11.327001 14.337999 11.509645 14.385477C11.967187 14.492426 12.447924 14.542196 12.950983 14.535162 13.118484 14.534288 13.286152 14.52586 13.453963 14.509853 13.491211 14.506641 13.528988 14.502625 13.56739 14.497795L13.714762 14.482092C14.029091 14.442026 14.272258 14.373543 15.036001 14.097151L16.146037 13.689034C16.615319 13.515501 17.033106 13.372513 17.415726 13.258766ZM27.995 23.147H20.197L20.5178 22.74353C21.139885 21.935042 21.643015 21.134663 22.026194 20.34238H27.558176C27.77823 21.430619 27.943766 22.547909 28.05475 23.694317L27.995 23.147ZM22.934639 16.91695C22.903347 17.716689 22.740628 18.525156 22.447602 19.34238H27.338685C27.13249 18.47259 26.890297 17.621968 26.61212 16.790478L26.50846 16.49822C26.44133 16.318984 26.367037 16.137835 26.285796 15.955112H22.935936C22.938797 16.180886 22.940226 16.40645 22.940226 16.631844L22.934639 16.91695ZM25.7808 14.955112H22.91391C22.878216 13.817068 22.806086 12.672342 22.69674 11.516167L22.64 10.964001 22.968668 11.293095C24.141848 12.493521 25.098458 13.744518 25.7808 14.955112ZM10.615871 26.121914C10.615871 27.48047 11.6145 28.191206 12.879537 28.035719 14.024696 27.894967 15.046963 27.095015 15.186317 26.043705 15.408954 24.364123 14.704573 23.675251 12.936165 23.51978 13.10267 23.266942 13.218367 22.96349 13.272732 22.608376 13.562206 20.71752 12.50836 20.047566 10.08959 20.00754L9.851254 20.005614H4.755306C4.479163 20.005614 4.255306 20.229472 4.255306 20.505614 4.255306 20.751072 4.432181 20.955222 4.66543 20.997559L4.755306 21.005614H9.851254C11.913984 21.005614 12.458538 21.318579 12.284248 22.457047 12.176378 23.161667 11.660807 23.484227 10.828043 23.484227H6.933169C6.657026 23.484227 6.433169 23.708085 6.433169 23.984227 6.433169 24.229687 6.610044 24.433835 6.843293 24.47617L6.933169 24.484227H10.828043 12.029117C13.942879 24.484227 14.350316 24.740502 14.194989 25.9123 14.122686 26.457766 13.489544 26.953217 12.757544 27.043189 12.045175 27.130745 11.615871 26.825207 11.615871 26.121914 11.615871 25.845772 11.392014 25.621914 11.115871 25.621914 10.839729 25.621914 10.615871 25.845772 10.615871 26.121914Z" fill="#2d2d2d" fill-rule="evenodd"/>
</svg>
