<svg xmlns="http://www.w3.org/2000/svg" xmlns:xlink="http://www.w3.org/1999/xlink" version="1.1" width="35pt" height="35pt" viewBox="0 0 35 35">
<path transform="matrix(1,0,0,-1,0,35)" d="M17.5 0C27.164984 0 35 7.835016 35 17.5 35 27.164984 27.164984 35 17.5 35 7.835017 35 0 27.164984 0 17.5 0 7.835016 7.835017 0 17.5 0ZM18.782338 30.142168C17.770869 30.142168 16.950909 29.322209 16.950909 28.31074 16.950909 27.539328 17.427844 26.87931 18.102929 26.60947L17.800694 23.665917C17.730795 23.668263 17.660603 23.669445 17.590134 23.669445 15.973129 23.669445 14.501568 23.04673 13.402178 22.028025L11.759821 23.745314C12.029434 24.111996 12.188715 24.564829 12.188715 25.054863 12.188715 26.277028 11.197955 27.267788 9.97579 27.267788 8.753626 27.267788 7.762866 26.277028 7.762866 25.054863 7.762866 23.832699 8.753626 22.84194 9.97579 22.84194 10.40052 22.84194 10.797302 22.961596 11.134267 23.169037L12.810779 21.39794C11.945664 20.336789 11.426912 18.982089 11.426912 17.506226 11.426912 17.2543 11.442028 17.005906 11.471401 16.761897L9.281954 16.4627C9.030691 17.135674 8.382032 17.614893 7.621445 17.614893 6.642853 17.614893 5.849547 16.821587 5.849547 15.842995 5.849547 14.864403 6.642853 14.071096 7.621445 14.071096 8.525509 14.071096 9.271433 14.748169 9.379807 15.622902L11.63018 15.93049C11.96838 14.647894 12.709624 13.528927 13.710255 12.717247L12.81136 11.467066C12.578119 11.574738 12.318388 11.634802 12.044628 11.634802 11.033159 11.634802 10.2132 10.814844 10.2132 9.803373 10.2132 8.791903 11.033159 7.971945 12.044628 7.971945 13.056099 7.971945 13.876057 8.791903 13.876057 9.803373 13.876057 10.234987 13.726751 10.631731 13.476971 10.944769L14.401617 12.230824C15.331881 11.667355 16.423129 11.343004 17.590134 11.343004 17.969729 11.343004 18.34131 11.377323 18.701943 11.443024L19.352967 9.288511C18.623078 8.903366 18.125575 8.136906 18.125575 7.254248 18.125575 5.98476 19.154696 4.955637 20.424183 4.955637 21.69367 4.955637 22.722792 5.98476 22.722792 7.254248 22.722792 8.523733 21.69367 9.552856 20.424183 9.552856 20.33267 9.552856 20.242407 9.54751 20.153689 9.537109L19.515343 11.649656C21.20794 12.205729 22.576973 13.475094 23.26689 15.1022L25.819233 13.991901C25.798027 13.882326 25.786923 13.76915 25.786923 13.653379 25.786923 12.675093 26.57998 11.882034 27.558266 11.882034 28.536553 11.882034 29.32961 12.675093 29.32961 13.653379 29.32961 14.631664 28.536553 15.424723 27.558266 15.424723 26.998333 15.424723 26.499079 15.164917 26.174477 14.759281L23.543053 15.904062C23.68021 16.414948 23.753354 16.952046 23.753354 17.506226 23.753354 18.685393 23.422207 19.787217 22.84784 20.723774L24.602049 21.739735C25.055054 21.22138 25.721062 20.89394 26.463549 20.89394 27.828392 20.89394 28.934817 22.000365 28.934817 23.36521 28.934817 24.730053 27.828392 25.83648 26.463549 25.83648 25.098704 25.83648 23.99228 24.730053 23.99228 23.36521 23.99228 23.046465 24.052624 22.741814 24.162512 22.462059L22.355256 21.415333C21.43584 22.534771 20.129677 23.324477 18.641003 23.580212L18.933917 26.485495C19.874474 26.562554 20.613766 27.350312 20.613766 28.31074 20.613766 29.322209 19.793808 30.142168 18.782338 30.142168ZM18.782338 29.280186C19.317748 29.280186 19.751782 28.84615 19.751782 28.31074 19.751782 27.77533 19.317748 27.341296 18.782338 27.341296 18.246928 27.341296 17.812893 27.77533 17.812893 28.31074 17.812893 28.84615 18.246928 29.280186 18.782338 29.280186ZM9.975791 26.445034C10.743561 26.445034 11.365961 25.822634 11.365961 25.054863 11.365961 24.287095 10.743561 23.664694 9.975791 23.664694 9.208021 23.664694 8.585621 24.287095 8.585621 25.054863 8.585621 25.822634 9.208021 26.445034 9.975791 26.445034ZM21.868182 7.254248C21.868182 8.051744 21.221682 8.698244 20.424183 8.698244 19.626685 8.698244 18.980185 8.051744 18.980185 7.254248 18.980185 6.456749 19.626685 5.810249 20.424183 5.810249 21.221682 5.810249 21.868182 6.456749 21.868182 7.254248ZM26.463549 24.974226C27.352185 24.974226 28.072566 24.253846 28.072566 23.36521 28.072566 22.476574 27.352185 21.756192 26.463549 21.756192 25.574913 21.756192 24.854533 22.476574 24.854533 23.36521 24.854533 24.253846 25.574913 24.974226 26.463549 24.974226ZM8.624416 15.842995C8.624416 16.396922 8.175371 16.845967 7.621445 16.845967 7.067519 16.845967 6.618473 16.396922 6.618473 15.842995 6.618473 15.28907 7.067519 14.840023 7.621445 14.840023 8.175371 14.840023 8.624416 15.28907 8.624416 15.842995ZM28.495907 13.653379C28.495907 14.171223 28.07611 14.591019 27.558266 14.591019 27.040423 14.591019 26.620627 14.171223 26.620627 13.653379 26.620627 13.135534 27.040423 12.715738 27.558266 12.715738 28.07611 12.715738 28.495907 13.135534 28.495907 13.653379ZM12.044628 10.772818C12.580038 10.772818 13.014073 10.338783 13.014073 9.803373 13.014073 9.267963 12.580038 8.833929 12.044628 8.833929 11.509218 8.833929 11.075184 9.267963 11.075184 9.803373 11.075184 10.338783 11.509218 10.772818 12.044628 10.772818ZM12.426912 17.506226C12.426912 20.357794 14.738565 22.669445 17.590134 22.669445 20.4417 22.669445 22.753354 20.357794 22.753354 17.506226 22.753354 14.654659 20.4417 12.343004 17.590134 12.343004 14.738565 12.343004 12.426912 14.654659 12.426912 17.506226Z" fill="#2d2d2d" fill-rule="evenodd"/>
</svg>
