<?xml version="1.0" encoding="UTF-8"?>
<svg width="30px" height="44px" viewBox="0 0 30 44" version="1.1" xmlns="http://www.w3.org/2000/svg" xmlns:xlink="http://www.w3.org/1999/xlink">
    <g id="Page-1" stroke="none" stroke-width="1" fill="none" fill-rule="evenodd">
        <g id="cc_map_pin" fill-rule="nonzero">
            <path d="M15,0 C23.2842712,0 30,6.71572875 30,15 C30,18.368228 28.8898353,21.477163 27.0154537,23.9808567 L15,43.25 L2.9860415,23.9828538 C1.11075532,21.4788163 0,18.3691236 0,15 C0,6.71572875 6.71572875,0 15,0 Z" id="body" fill="#FECE09"></path>
            <g id="features" transform="translate(7.500000, 9.750000)" fill="#F79820">
                <g id="eyes-copy">
                    <path d="M5,0.125 C6.92502322,0.125 8.59596035,1.21287181 9.4315689,2.80737293 L7.2575213,4.04958905 C6.8554726,3.2071124 5.99571613,2.625 5,2.625 C3.61928813,2.625 2.5,3.74428813 2.5,5.125 C2.5,6.50571188 3.61928813,7.625 5,7.625 C5.99561738,7.625 6.8553021,7.04300305 7.25740167,6.20066158 L9.43143745,7.44287788 C8.59578515,9.03724225 6.92492228,10.125 5,10.125 C2.23857625,10.125 0,7.88642375 0,5.125 C0,2.36357625 2.23857625,0.125 5,0.125 Z" id="cut-eye"></path>
                    <path d="M16.875,0.125 C18.8000232,0.125 20.4709603,1.21287181 21.3065689,2.80737293 L19.1325213,4.04958905 C18.7304726,3.2071124 17.8707161,2.625 16.875,2.625 C15.4942881,2.625 14.375,3.74428813 14.375,5.125 C14.375,6.50571188 15.4942881,7.625 16.875,7.625 C17.8706174,7.625 18.7303021,7.04300305 19.1324017,6.20066158 L21.3064375,7.44287788 C20.4707852,9.03724225 18.7999223,10.125 16.875,10.125 C14.1135762,10.125 11.875,7.88642375 11.875,5.125 C11.875,2.36357625 14.1135762,0.125 16.875,0.125 Z" id="cut-eye-second"></path>
                </g>
                <path d="M1.90534662,13.8261507 C4.34422675,16.0317481 7.57774672,17.375 11.125,17.375 C14.1331632,17.375 16.9157056,16.4090028 19.1793435,14.7702923 L16.5819508,18.9360456 C14.8763603,19.543976 13.0393376,19.875 11.125,19.875 C6.88730855,19.875 3.02848188,18.2528871 0.135564086,15.5957054 L1.90534662,13.8261507 Z" id="mouth-copy"></path>
            </g>
        </g>
    </g>
</svg>