<?xml version="1.0" encoding="UTF-8" standalone="no"?>
<!DOCTYPE svg PUBLIC "-//W3C//DTD SVG 1.1//EN" "http://www.w3.org/Graphics/SVG/1.1/DTD/svg11.dtd">
<svg xmlns="http://www.w3.org/2000/svg" xmlns:xlink="http://www.w3.org/1999/xlink" version="1.1" width="35pt" height="35pt" viewBox="0 0 35 35">
<g enable-background="new">
<path transform="matrix(1,0,0,-1,0,35)" d="M 17.5 0 C 27.164984 0 35 7.835016 35 17.5 C 35 27.164984 27.164984 35 17.5 35 C 7.835017 35 0 27.164984 0 17.5 C 0 7.835016 7.835017 0 17.5 0 Z M 23.284794 28.487744 L 23.370137 28.472744 C 23.506827 28.441697 23.616246 28.375905 23.704979 28.208008 C 23.859219 27.916176 23.742478 27.701958 23.560889 27.55402 C 23.525918 27.52553 23.489098 27.50128 23.448008 27.478375 L 23.382863 27.444664 C 22.41222 26.974177 21.340592 26.300789 20.318932 25.419804 L 19.980439 25.118447 L 19.929 25.07 L 20.03417 25.035622 C 23.025988 24.003619 25.1652 21.261107 25.382985 18.043007 L 25.397187 17.757855 L 25.40131 17.5 C 25.40131 13.348873 23.39621 10.437359 19.961918 8.611744 C 17.623534 7.368694 14.922173 6.761536 12.355512 6.578411 C 11.278693 6.501583 11.024179 7.342041 11.979085 7.849319 C 12.836985 8.305061 13.705443 8.87804 14.521753 9.571781 L 14.868223 9.876503 L 14.924999 9.931 L 14.822971 9.964378 C 11.831154 10.99638 9.691944 13.738895 9.474157 16.956994 L 9.459954 17.242148 L 9.455833 17.5 C 9.455833 21.944243 11.74367 24.960282 15.593425 26.754494 C 18.070317 27.90887 20.779072 28.401812 23.091223 28.494162 L 23.19302 28.495003 L 23.284794 28.487744 Z M 21.166 27.319 L 20.980076 27.29339 C 19.346402 27.052712 17.621092 26.596234 16.015858 25.8481 C 12.493865 24.206646 10.455833 21.51992 10.455833 17.5 C 10.455833 14.26671 12.674738 11.488251 15.756382 10.730785 L 16.001437 10.675213 L 16.882098 10.4921 L 16.261677 9.840813 C 15.677842 9.227936 15.052881 8.683739 14.409678 8.205532 L 14.021751 7.926506 L 13.722 7.725998 L 14.131407 7.785156 C 15.662835 8.025124 17.196597 8.437496 18.610287 9.065544 L 19.076905 9.28294 L 19.492535 9.494736 C 22.618895 11.156658 24.40131 13.744825 24.40131 17.5 C 24.40131 20.733288 22.182404 23.51175 19.100762 24.269215 L 18.855706 24.324788 L 17.975045 24.5079 L 18.595467 25.159188 C 19.236565 25.832177 19.915984 26.418625 20.598763 26.921448 L 20.94027 27.165907 L 21.166 27.319 Z " fill="#2d2d2d" fill-rule="evenodd"/>
</g>
</svg>
