<?xml version="1.0" encoding="UTF-8"?>
<svg width="24px" height="24px" viewBox="0 0 24 24" version="1.1" xmlns="http://www.w3.org/2000/svg" xmlns:xlink="http://www.w3.org/1999/xlink">
    <!-- Generator: Sketch 61.2 (89653) - https://sketch.com -->
    <title>menu</title>
    <desc>Created with Sketch.</desc>
    <g id="nav-icons" stroke="none" stroke-width="1" fill="none" fill-rule="evenodd">
        <g id="menu" transform="translate(3.000000, 5.000000)" fill="#000000" fill-rule="nonzero">
            <path d="M0,12.6875 C0,11.96265 0.587626375,11.375 1.3125,11.375 L16.1875,11.375 C16.91235,11.375 17.5,11.96265 17.5,12.6875 C17.5,13.41235 16.91235,14 16.1875,14 L1.3125,14 C0.587626375,14 0,13.41235 0,12.6875 Z" id="Path"></path>
            <rect id="Rectangle" x="0" y="5.6875" width="17.5" height="2.625" rx="1.3125"></rect>
            <path d="M0,1.3125 C0,0.587626375 0.587626375,0 1.3125,0 L16.1875,0 C16.91235,0 17.5,0.587626375 17.5,1.3125 C17.5,2.03737625 16.91235,2.625 16.1875,2.625 L1.3125,2.625 C0.587626375,2.625 0,2.03737625 0,1.3125 Z" id="Path"></path>
        </g>
    </g>
</svg>