<?xml version="1.0" encoding="UTF-8" standalone="no"?>
<!DOCTYPE svg PUBLIC "-//W3C//DTD SVG 1.1//EN" "http://www.w3.org/Graphics/SVG/1.1/DTD/svg11.dtd">
<svg xmlns="http://www.w3.org/2000/svg" xmlns:xlink="http://www.w3.org/1999/xlink" version="1.1" width="35pt" height="35pt" viewBox="0 0 35 35">
<g enable-background="new">
<path transform="matrix(1,0,0,-1,0,35)" d="M 17.5 0 C 27.164984 0 35 7.835016 35 17.5 C 35 27.164984 27.164984 35 17.5 35 C 7.835017 35 0 27.164984 0 17.5 C 0 7.835016 7.835017 0 17.5 0 Z M 23.409007 29.394577 C 22.31559 29.328976 21.347641 28.712899 20.815632 27.788723 L 20.774935 27.71439 L 20.76131 27.717335 C 20.645524 27.738564 20.527415 27.74944 20.408013 27.74944 L 20.250702 27.743254 C 19.471772 27.68177 18.813174 27.167634 18.55045 26.454676 L 18.506936 26.323391 L 18.47719 26.31047 C 17.633164 25.93705 17.063965 25.09454 17.063965 24.139157 C 17.063965 22.82776 18.127289 21.764485 19.438637 21.764485 L 22.53307 21.764485 L 20.158936 18.540078 L 23.354994 18.54083 L 22.44731 14.621029 L 24.613472 19.540078 L 22.136994 19.54083 L 23.774823 21.764485 L 24.934744 21.764485 L 25.067299 21.768303 L 25.138234 21.774865 C 25.217038 21.767977 25.295842 21.764485 25.374835 21.764485 C 26.862515 21.764485 28.068453 22.970656 28.068303 24.458493 L 28.062012 24.6433 C 28.003582 25.499625 27.541836 26.265328 26.836276 26.72121 L 26.764935 26.76339 L 26.749917 26.850419 C 26.441662 28.315569 25.141633 29.40039 23.6032 29.40039 L 23.409007 29.394577 Z M 23.6032 28.40039 C 24.747864 28.40039 25.701352 27.5283 25.808966 26.397131 L 25.83597 26.113289 L 26.094006 25.99199 C 26.683922 25.714678 27.068303 25.121497 27.068303 24.458443 C 27.068398 23.52286 26.31017 22.764485 25.374835 22.764485 C 25.315632 22.764485 25.25631 22.767615 25.196452 22.773823 L 25.089262 22.77339 C 25.036393 22.767476 24.984988 22.764485 24.934744 22.764485 L 19.438637 22.764485 C 18.679564 22.764485 18.063965 23.380057 18.063965 24.139157 C 18.063965 24.761113 18.481148 25.300808 19.071999 25.463843 L 19.395695 25.553162 L 19.43548 25.88659 C 19.493924 26.37636 19.910782 26.74944 20.408013 26.74944 C 20.554587 26.74944 20.697514 26.715985 20.830679 26.6521 L 21.330143 26.412484 L 21.51749 26.933812 C 21.831105 27.8065 22.66086 28.40039 23.6032 28.40039 Z M 19.604748 16.891449 L 14.28982 21.510743 L 8.974975 16.891524 L 8.973516 12.976204 C 8.327563 12.819407 7.723346 12.562296 7.16275 12.20459 C 6.929961 12.056051 6.861662 11.746923 7.010201 11.514135 C 7.15874 11.281345 7.467867 11.213047 7.700656 11.361586 C 8.603238 11.937508 9.643731 12.202559 10.835559 12.154716 L 11.361345 12.117516 C 11.543923 12.099865 11.682282 12.069221 12.133682 11.91115 L 13.64256 11.360691 L 13.879045 11.273981 C 13.979194 11.237074 14.077745 11.201256 14.174793 11.166525 L 14.242357 11.141876 C 16.018895 10.510601 17.29049 10.249733 18.635563 10.369238 C 18.863537 10.389492 19.087813 10.421816 19.308377 10.466585 L 19.479992 10.497007 L 19.4819 10.50456 C 20.168238 10.665779 20.817973 10.95063 21.430769 11.370674 C 21.658539 11.5268 21.716618 11.838009 21.560492 12.065779 C 21.404366 12.293549 21.093157 12.351627 20.865387 12.195501 C 20.462918 11.919628 20.043656 11.714716 19.604748 11.575073 L 19.604748 16.891449 Z M 9.973001 13.136158 C 10.012035 13.139374 10.051201 13.142265 10.090499 13.144835 L 10.108315 13.146412 C 10.353302 13.161798 10.603276 13.164637 10.858189 13.154976 L 10.875802 13.153887 C 10.991774 13.14924 11.108776 13.14201 11.226805 13.132196 L 11.244255 13.131119 C 11.634051 13.097897 12.073027 12.987125 12.645409 12.792728 C 12.732933 12.763004 12.822217 12.731848 12.918258 12.697533 L 14.563384 12.089653 C 16.22202 11.499905 17.380017 11.261845 18.551583 11.367361 L 18.604 11.373438 L 18.604 16.435439 L 14.289 20.186438 L 9.974 16.435439 L 9.973001 13.136158 Z M 11.244327 10.467636 C 9.703818 10.598934 8.337505 10.291094 7.16275 9.541504 C 6.929961 9.392965 6.861662 9.083838 7.010201 8.851049 C 7.15874 8.618259 7.467867 8.549961 7.700656 8.6985 C 8.684067 9.325996 9.831196 9.584452 11.159405 9.471249 L 11.254663 9.463501 C 11.533127 9.441395 11.620275 9.433121 12.341251 9.174372 L 14.242357 8.47879 C 16.018895 7.847515 17.29049 7.586647 18.635563 7.706152 C 19.639328 7.795332 20.571375 8.118511 21.430769 8.707588 C 21.658539 8.863714 21.716618 9.174923 21.560492 9.402693 C 21.404366 9.630463 21.093157 9.688541 20.865387 9.532415 C 20.150862 9.042643 19.383408 8.776533 18.547066 8.702229 C 17.29905 8.591347 16.066369 8.869886 14.226009 9.548265 L 12.779272 10.083153 L 12.408514 10.207314 C 11.948929 10.353651 11.578548 10.439152 11.244327 10.467636 Z " fill="#2d2d2d" fill-rule="evenodd"/>
</g>
</svg>
