<?xml version="1.0" encoding="UTF-8"?>
<svg width="48px" height="48px" viewBox="0 0 48 48" version="1.1" xmlns="http://www.w3.org/2000/svg" xmlns:xlink="http://www.w3.org/1999/xlink">
    <g id="worktype-icons" stroke="none" stroke-width="1" fill="none" fill-rule="evenodd">
        <g id="ic_work_type_domestic_services" fill="#000000" fill-rule="nonzero" stroke="#FFFFFF">
            <path d="M37.5596068,13.6360071 C37.4396068,13.1877213 37.1661783,12.8131499 36.8053211,12.5568642 C36.438464,12.2954356 35.9798925,12.1574356 35.4878925,12.1822928 C35.0498925,12.1822928 34.1730354,12.2371499 33.0030354,12.3108642 C32.2341783,12.3588642 31.5433211,12.4017213 31.1970354,12.4025785 C30.0681783,12.4574356 29.328464,12.8585785 25.7027497,18.1342928 C25.5621783,18.4051499 25.296464,18.5560071 24.9476068,18.6245785 L20.3473211,19.3085785 C19.830464,19.4148642 19.3898925,19.7234356 19.104464,20.1374356 C18.8233211,20.5428642 18.6921783,21.0502928 18.7873211,21.5791499 C18.8627497,22.1302928 19.164464,22.6051499 19.5861783,22.9162928 C20.0001783,23.2222928 20.5290354,23.3688642 21.0716068,23.2702928 L25.7687497,22.5691499 C27.1033211,22.3111499 28.2801783,21.5422928 29.0310354,20.4408642 C29.1938925,20.2231499 29.352464,20.0148642 29.4570354,19.8048642 C29.5427497,19.6334356 29.6061783,19.4345785 29.6678925,19.2262928 L32.6456068,29.0508642 L30.4976068,31.2057213 C28.6813211,33.1042928 27.264464,35.3928642 26.436464,37.9257213 L24.300464,44.1845785 C24.1453211,44.7742928 24.2318925,45.3888642 24.5036068,45.9108642 C24.774464,46.4320071 25.2296068,46.8605785 25.812464,47.0800071 C26.0661783,47.1811499 26.3147497,47.2308642 26.5633211,47.2308642 C27.0587497,47.2308642 27.5533211,47.0697213 27.9578925,46.7757213 C28.3367497,46.5005785 28.6358925,46.1080071 28.782464,45.6211499 L31.0050354,39.1368642 C31.6787497,37.3154356 32.7818925,35.6697213 34.1533211,34.2494356 L37.6161783,45.6580071 C37.7876068,46.1140071 38.0970354,46.4894356 38.4810354,46.7517213 C38.8770354,47.0234356 39.3527497,47.1760071 39.840464,47.1760071 C40.0598925,47.1760071 40.2416068,47.1374356 40.5570354,47.0731499 C41.1870354,46.8674356 41.6781783,46.4371499 41.9610354,45.8988642 C42.2421783,45.3648642 42.3158925,44.7237213 42.1153211,44.0954356 L38.0558925,30.4171499 L39.330464,29.1348642 C40.170464,28.2057213 40.536464,26.8685785 40.2381783,25.6248642 L39.1898925,20.8831499 L37.5596068,13.6360071 L37.5596068,13.6360071 Z M12.6433211,35.1854356 C12.5250354,35.2608642 12.4161783,35.3954356 12.3158925,35.5985785 L12.0116068,36.0528642 C10.4130354,38.3817213 8.43474968,40.3274356 5.79732111,42.5260071 C5.81617825,42.6571499 5.87532111,42.7977213 5.96874968,42.8602928 L5.97732111,42.8654356 L5.98932111,42.8757213 C6.24132111,43.0917213 6.51817825,43.2837213 7.06332111,43.6600071 C8.81017825,42.4771499 10.350464,41.0277213 11.7467497,39.0314356 L11.7527497,39.0220071 L11.7638925,39.0091499 C11.9438925,38.8128642 12.1761783,38.7065785 12.420464,38.6885785 C12.660464,38.6705785 12.9133211,38.7382928 13.1361783,38.8977213 C13.3898925,39.0785785 13.530464,39.3348642 13.5433211,39.6357213 C13.554464,39.8971499 13.464464,40.1997213 13.242464,40.5168642 L12.9433211,40.9231499 C11.8033211,42.4368642 10.5176068,43.7397213 9.04074968,44.8317213 C11.7381783,46.2511499 14.7561783,47.0097213 17.9893211,47.0585785 C18.1076068,47.0345785 18.198464,46.9480071 18.2936068,46.8211499 C18.4127497,46.6625785 18.4076068,46.5040071 18.3698925,46.3480071 C17.4818925,43.4054356 17.148464,40.4080071 17.4878925,37.0891499 C17.4861783,36.9897213 17.4493211,36.8937213 17.3901783,36.8088642 C17.3233211,36.7120071 17.2273211,36.6288642 17.1141783,36.5697213 L12.6433211,35.1854356 L12.6433211,35.1854356 Z M18.2773211,23.5702928 L15.2738925,32.2102928 L13.4653211,32.1871499 L13.434464,33.9400071 L18.3501783,35.1314356 L18.4196068,33.3537213 L17.352464,32.9534356 L20.058464,24.4925785 C19.3521783,24.3151499 18.7453211,24.0125785 18.2773211,23.5702928 Z M23.6756068,11.9517213 C23.3987497,11.8591499 23.1090354,11.8831499 22.866464,11.9997213 C22.6307497,12.1137213 22.4396068,12.3168642 22.3496068,12.5877213 L20.2676068,18.0871499 L22.590464,17.7228642 L24.342464,13.1662928 C24.3998925,12.9074356 24.3596068,12.6442928 24.2413211,12.4257213 C24.1238925,12.2097213 23.9293211,12.0365785 23.6756068,11.9517213 Z M36.7418925,4.56829277 C36.6098925,3.35972134 36.0013211,2.31829277 35.1227497,1.6128642 C34.2441783,0.907435624 33.0973211,0.536292767 31.8887497,0.668292767 C30.6801783,0.799435624 29.6396068,1.40800705 28.9341783,2.28657848 C28.2278925,3.16429277 27.8576068,4.31200705 27.9887497,5.52057848 C28.1207497,6.72914991 28.7293211,7.76972134 29.6078925,8.47600705 C30.4856068,9.18143562 31.6333211,9.55172134 32.8418925,9.42057848 C34.050464,9.28943562 35.0910354,8.68000705 35.796464,7.80229277 C36.5018925,6.92372134 36.8730354,5.77600705 36.7418925,4.56829277 Z" id="Shape"></path>
        </g>
    </g>
</svg>