<?xml version="1.0" encoding="UTF-8"?>
<svg width="48px" height="48px" viewBox="0 0 48 48" version="1.1" xmlns="http://www.w3.org/2000/svg" xmlns:xlink="http://www.w3.org/1999/xlink">
    <!-- Generator: Sketch 61.2 (89653) - https://sketch.com -->
    <title>ic_work_type_chimney_capping</title>
    <desc>Created with Sketch.</desc>
    <g id="worktype-icons" stroke="none" stroke-width="1" fill="none" fill-rule="evenodd">
        <g id="ic_work_type_chimney_capping" fill="#000000" fill-rule="nonzero" stroke="#FFFFFF">
            <g id="Group-3" transform="translate(0.485177, 4.184813)">
                <path d="M45.7247956,11.5335111 C44.9900844,11.0868 44.07724,11.0489778 43.3081289,11.4335111 L1.12501778,32.5250667 C0.803315556,32.67368 0.528306667,32.9077067 0.329862222,33.2014667 C0.1316,33.4952178 0.0175377778,33.8377333 1.26318709e-14,34.1917333 L1.26318709e-14,36.9584 C0.0427084444,37.5134222 0.301564444,38.0294222 0.720666667,38.3955556 C1.13993778,38.7618756 1.68595556,38.9488444 2.24168889,38.9167556 L44.4248,38.9167556 C44.9805333,38.9488738 45.5265333,38.7618933 45.9458222,38.3955556 C46.36492,38.0294089 46.6237778,37.5134222 46.6664889,36.9584 L46.6664889,13.1335111 C46.6571138,12.4713778 46.2993022,11.8632 45.7248,11.5335111 L45.7247956,11.5335111 Z" id="Path"></path>
                <polygon id="Path" points="12.41724 25.0166222 18.0003511 22.2249778 18.0003511 19.5333333 12.41724 19.5333333"></polygon>
                <polygon id="Path" points="34.2501289 7.79173333 27.4999067 7.79173333 27.4999067 11.1250667 34.2501289 11.1250667"></polygon>
                <path d="M37.6670178,4.18328889 L37.6670178,1.95831111 C37.6670178,1.43884444 37.4607689,0.940755556 37.0934178,0.5736 C36.7262311,0.20624 36.2281289,7.89491929e-16 35.7087067,7.89491929e-16 L10.9584844,7.89491929e-16 C10.4390178,7.89491929e-16 9.94092889,0.206248889 9.57377333,0.5736 C9.20641333,0.940786667 9.00017333,1.43888889 9.00017333,1.95831111 L9.00017333,4.20831111 C9.01111067,4.72044444 9.22222222,5.20795556 9.58835111,5.56613333 C9.95432444,5.92446667 10.4461733,6.12515556 10.9584844,6.1249779 L35.7087067,6.1249779 C36.2251956,6.1249779 36.72084,5.92098667 37.0875067,5.55728889 C37.4543467,5.19357333 37.6626622,4.69982222 37.6670178,4.18333333 L37.6670178,4.18328889 Z" id="Path"></path>
                <polygon id="Path" points="18.0003511 7.79173333 12.41724 7.79173333 12.41724 11.1250667 18.0003511 11.1250667"></polygon>
                <polygon id="Path" points="19.6670178 7.80862222 25.8336844 7.80862222 25.8336844 11.1752889 19.6670178 11.1752889"></polygon>
                <path d="M19.6670178,19.5335111 L19.6670178,21.3918222 C19.6670178,21.3918222 23.3919956,19.5418222 23.3919956,19.5251556 C23.3919956,19.5084889 19.7419956,19.5251556 19.6670178,19.5334889 L19.6670178,19.5335111 Z" id="Path"></path>
                <polygon id="Path" points="34.2501289 14.1001778 34.2501289 12.8418667 24.1665733 12.8418667 24.1665733 17.8667556 26.7165733 17.8667556"></polygon>
                <polygon id="Path" points="22.5003511 12.8415111 12.4167956 12.8415111 12.4167956 17.8415111 22.5003511 17.8415111"></polygon>
            </g>
        </g>
    </g>
</svg>