<?xml version="1.0" encoding="UTF-8"?>
<svg width="48px" height="48px" viewBox="0 0 48 48" version="1.1" xmlns="http://www.w3.org/2000/svg" xmlns:xlink="http://www.w3.org/1999/xlink">
    <g id="ic_use_my_location" stroke="none" stroke-width="1" fill="none" fill-rule="evenodd">
        <path d="M23.990329,15.11722 C25.119869,15.11722 26.035569,14.19555 26.035569,13.05861 C26.035569,11.921672 25.119869,11 23.990329,11 C22.860769,11 21.945079,11.921672 21.945079,13.05861 C21.945079,14.19555 22.860769,15.11722 23.990329,15.11722 Z M25.892069,16.02013 L22.088599,16.02013 C21.083909,16.02013 20.294519,16.8508 20.294519,17.82593 L20.294519,23.5942 C20.294519,24.6054 21.119799,25.4 22.088599,25.4 L22.196239,25.4 L22.196239,26.878 C18.118189,27.2826 15,29.0517 15,31.3952 C15,34.0724 19.069349,36 23.990299,36 C28.911269,36 32.980569,34.0724 32.980569,31.3952 C32.980569,29.038 29.825769,27.2619 25.712669,26.871 L25.712669,25.4 L25.820269,25.4 C26.824969,25.4 27.614369,24.5693 27.614369,23.5942 L27.614369,17.82593 C27.686069,16.81468 26.860869,16.02013 25.892069,16.02013 Z M16.315649,31.3952 C16.315649,29.956 18.797649,28.5722 22.196239,28.2022 L22.196239,31.0134 C22.196239,31.808 22.842109,32.4581 23.631499,32.4581 L24.277369,32.4581 C25.066769,32.4581 25.712669,31.808 25.712669,31.0134 L25.712669,28.1945 C29.147969,28.5528 31.664969,29.9458 31.664969,31.3952 C31.664969,33.0777 28.273169,34.6843 23.990289,34.6843 C19.707439,34.6843 16.315649,33.0777 16.315649,31.3952 Z" id="Shape" fill="#000000"></path>
    </g>
</svg>