<?xml version="1.0" encoding="UTF-8"?>
<svg width="120px" height="180px" viewBox="0 0 120 180" version="1.1" xmlns="http://www.w3.org/2000/svg" xmlns:xlink="http://www.w3.org/1999/xlink">
    <!-- Generator: Sketch 61.2 (89653) - https://sketch.com -->
    <title>pin-foreground</title>
    <desc>Created with Sketch.</desc>
    <g id="pin-foreground" stroke="none" stroke-width="1" fill="none" fill-rule="evenodd">
        <g id="pin-large" transform="translate(0.000000, 3.000000)">
            <path d="M60,0 C93.137085,0 120,26.862915 120,60 C120,73.4729118 115.559341,85.9086521 108.061815,95.923427 L60,173 L11.944166,95.9314151 C4.44302129,85.9152652 0,73.4764942 0,60 C0,26.862915 26.862915,0 60,0 Z" id="body" fill="#FECE09"></path>
            <g id="features" transform="translate(30.000000, 39.000000)" fill="#F79820">
                <g id="eyes-copy" fill-rule="nonzero">
                    <path d="M20,0.5 C27.7000929,0.5 34.3838414,4.85148724 37.7262756,11.2294917 L29.0300852,16.1983562 C27.4218904,12.8284496 23.9828645,10.5 20,10.5 C14.4771525,10.5 10,14.9771525 10,20.5 C10,26.0228475 14.4771525,30.5 20,30.5 C23.9824695,30.5 27.4212084,28.1720122 29.0296067,24.8026463 L37.7257498,29.7715115 C34.3831406,36.148969 27.6996891,40.5 20,40.5 C8.954305,40.5 0,31.545695 0,20.5 C0,9.454305 8.954305,0.5 20,0.5 Z" id="cut-eye"></path>
                    <path d="M67.5,0.5 C75.2000929,0.5 81.8838414,4.85148724 85.2262756,11.2294917 L76.5300852,16.1983562 C74.9218904,12.8284496 71.4828645,10.5 67.5,10.5 C61.9771525,10.5 57.5,14.9771525 57.5,20.5 C57.5,26.0228475 61.9771525,30.5 67.5,30.5 C71.4824695,30.5 74.9212084,28.1720122 76.5296067,24.8026463 L85.2257498,29.7715115 C81.8831406,36.148969 75.1996891,40.5 67.5,40.5 C56.454305,40.5 47.5,31.545695 47.5,20.5 C47.5,9.454305 56.454305,0.5 67.5,0.5 Z" id="cut-eye-second"></path>
                </g>
                <path d="M7.62138648,55.3046026 C17.376907,64.1269922 30.3109869,69.5 44.5,69.5 C56.5326528,69.5 67.6628226,65.6360112 76.7173738,59.0811691 L66.3278031,75.7441824 C59.5054414,78.175904 52.1573503,79.5 44.5,79.5 C27.5492342,79.5 12.1139275,73.0115483 0.542256345,62.3828214 L7.62138648,55.3046026 Z" id="mouth-copy"></path>
            </g>
        </g>
    </g>
</svg>