<?xml version="1.0" encoding="UTF-8"?>
<svg width="36px" height="36px" viewBox="0 0 36 36" version="1.1" xmlns="http://www.w3.org/2000/svg" xmlns:xlink="http://www.w3.org/1999/xlink">
<path d="M29.35455,7.15533 C26.84625,6.333735 23.28075,5.91762 19.5726,6.013575 C16.091625,6.103665 12.80946,6.621975 10.330575,7.472955 C6.73932,8.705895 5.993385,10.236105 6.00000098,11.30262 C6.002955,11.767125 6.158385,12.468 6.88239,13.169175 C7.731915,13.99185 9.21831,14.66325 11.133285,15.13875 C9.996915,15.644595 9.42189,16.30461 9.42189,17.10918 C9.42189,18.1626 10.406325,18.9684 12.34779,19.5045 C13.869945,19.92465 15.87726,20.1561 18.00015,20.1561 C20.62785,20.1561 22.22895,20.7444 22.68855,21.0936 C22.30485,21.38505 21.1251,21.843 19.2174,21.9864 C19.00665,21.99075 18.798,22.00215 18.59265,22.02045 C18.4011,22.0272 18.204,22.0311 18.00015,22.0311 C15.260235,22.0311 13.618215,21.40755 13.226895,21.0144 C12.861495,20.6475 12.26796,20.6463 11.901015,21.01155 C11.534115,21.37695 11.532855,21.9705 11.89815,22.3374 C12.54447,22.9866 13.696035,23.40105 14.970075,23.64 C14.72763,24.0129 14.67189,24.3654 14.67189,24.6093 C14.67189,25.0932 14.889825,25.9992 16.349625,26.62995 C16.94832,26.8887 17.678325,27.06375 18.4653,27.1416 C18.4185,27.30675 18.3939,27.4788 18.3939,27.65625 C18.3939,28.97055 19.7445,30.0000005 21.4689,30.0000005 C21.9867,30.0000005 22.4064,29.5803 22.4064,29.0625 C22.4064,28.5447 21.9867,28.125 21.4689,28.125 C20.6688,28.125 20.2689,27.7458 20.2689,27.65625 C20.2689,27.5667 20.6688,27.1875 21.4689,27.1875 C21.9867,27.1875 22.4064,26.76765 22.4064,26.25 C22.4064,25.7322 21.9867,25.31235 21.4689,25.31235 L19.4064,25.31235 C17.803755,25.31235 16.83516,24.85875 16.585875,24.6057 C16.79289,24.3858 17.52495,24.00735 18.6981,23.89305 C18.9009,23.8854 19.1028,23.8746 19.3032,23.8602 C19.3374,23.85975 19.3716,23.8593 19.4064,23.8593 C19.47825,23.8593 19.54785,23.85045 19.61505,23.83515 C22.31835,23.59245 24.6564,22.7184 24.6564,21.0936 C24.6564,20.44725 24.28605,19.9197 23.67015,19.50345 C24.5313,19.26435 25.2708,18.95145 25.78305,18.55125 C26.1912,18.2325 26.26365,17.643285 25.9449,17.23524 C25.62615,16.82718 25.03695,16.75476 24.62895,17.073465 C23.86065,17.67357 21.3369,18.2811 18.00015,18.2811 C16.266375,18.2811 14.59155,18.1131 13.284135,17.80806 C12.217605,17.55924 11.66133,17.282805 11.415945,17.10918 C11.66133,16.935555 12.217665,16.659135 13.284135,16.410315 C14.591595,16.105245 16.266375,15.93729 18.00015,15.93729 C18.02025,15.93729 18.0399,15.935505 18.05955,15.93429 C18.23145,15.93645 18.40425,15.937575 18.57795,15.937575 C18.9384,15.937575 19.3032,15.932835 19.671,15.923325 C19.7226,15.92196 19.77285,15.91539 19.82205,15.906075 C21.6939,15.84279 23.46075,15.55539 24.8073,15.093105 C27.00555,14.338395 27.46155,13.31997 27.4572,12.598275 C27.45495,12.26325 27.3471,11.76201 26.8458,11.276655 C25.503,9.976695 22.20345,9.586305 19.563,9.65484 C17.967975,9.69609 16.11384,9.969375 14.603265,10.38582 C14.104125,10.52346 13.81101,11.039655 13.94859,11.53878 C14.086185,12.03792 14.602335,12.33099 15.10161,12.19341 C15.615735,12.051705 17.460345,11.584905 19.6116,11.529225 C22.632,11.451225 24.9096,12.02859 25.53225,12.61482 C25.3902,12.762525 25.005,13.042845 24.19845,13.319745 C22.99965,13.73127 21.38745,13.98561 19.65885,14.03586 C19.61175,14.037225 19.56585,14.04318 19.5207,14.051235 C13.730385,14.186715 9.440265,13.03614 8.18676,11.822295 C8.045145,11.68518 7.876155,11.481735 7.87503,11.29104 C7.87287,10.948485 8.510625,10.080285 10.93935,9.246465 C13.2426,8.455755 16.32576,7.97331 19.62105,7.888005 C23.1228,7.797435 26.4582,8.179755 28.77075,8.937225 C29.2629,9.09843 29.7924,8.830155 29.9535,8.338095 C30.11475,7.846005 29.84655,7.316445 29.35455,7.15533 Z" fill="#2d2d2d" fill-rule="evenodd"></path>
</svg>