<?xml version="1.0" encoding="UTF-8"?>
<svg width="48px" height="48px" viewBox="0 0 48 48" version="1.1" xmlns="http://www.w3.org/2000/svg" xmlns:xlink="http://www.w3.org/1999/xlink">
    <g id="worktype-icons" stroke="none" stroke-width="1" fill="none" fill-rule="evenodd">
        <g id="ic_work_type_structure" fill="#000000" fill-rule="nonzero" stroke="#FFFFFF">
            <path d="M7.57297217,16.9959184 C12.9352579,12.9296327 17.0201558,10.6755918 19.8501967,10.2347755 L20.1332987,10.1906939 L20.1332987,46.0408163 C20.1332987,46.4463673 20.4624416,46.7755102 20.8679926,46.7755102 L26.7298701,46.7755102 C27.1356304,46.7755102 27.464564,46.4465766 27.464564,46.0408163 L27.464564,10.0378776 L32.5672579,10.0378776 L32.5672579,10.9116735 C32.5672579,11.3172245 32.8964007,11.6463673 33.3019518,11.6463673 L38.6661967,11.6463673 C39.0719569,11.6463673 39.4008905,11.3174337 39.4008905,10.9116735 L39.4008905,1.95918367 C39.4008905,1.55342345 39.0719569,1.2244898 38.6661967,1.2244898 L33.3058701,1.2244898 C33.1110117,1.22707059 32.9251613,1.30696181 32.7892129,1.44658454 C32.6532644,1.58620726 32.5783567,1.77412158 32.5809722,1.96897959 L32.5937069,2.94759184 L22.1130538,2.94759184 C14.2459518,2.94759184 7.83648237,9.1924898 7.57297217,16.9959184 L7.57297217,16.9959184 Z" id="Path"></path>
        </g>
    </g>
</svg>