<?xml version="1.0" encoding="UTF-8"?>
<svg width="48px" height="48px" viewBox="0 0 48 48" version="1.1" xmlns="http://www.w3.org/2000/svg" xmlns:xlink="http://www.w3.org/1999/xlink">
    <!-- Generator: Sketch 61.2 (89653) - https://sketch.com -->
    <title>ic_work_type_trees_heavy_equipment</title>
    <desc>Created with Sketch.</desc>
    <g id="worktype-icons" stroke="none" stroke-width="1" fill="none" fill-rule="evenodd">
        <g id="ic_work_type_trees_heavy_equipment" fill="#000000" fill-rule="nonzero" stroke="#FFFFFF">
            <path d="M26.826373,35.777148 L8.04707888,35.777148 C6.49210493,35.777148 5.23154947,37.0377035 5.23154947,38.5926774 C5.23154947,40.1476514 6.49210493,41.4082068 8.04707888,41.4082068 L26.8273142,41.4082068 C28.3822881,41.4082068 29.6428436,40.1476514 29.6428436,38.5926774 C29.6428436,37.0377035 28.3822881,35.777148 26.8273142,35.777148 L26.826373,35.777148 Z M34.4395495,35.0119715 C38.9449612,36.9555009 42.3247259,36.8115009 44.6164906,34.6147951 C46.9731965,32.3559715 47.4456671,29.2444421 46.0226083,25.2406774 L39.6273142,8.37103036 C39.2165932,7.28767767 38.3003242,6.4748965 37.1757159,6.19632723 C36.0511075,5.91775796 34.8613978,6.20888114 33.9924906,6.97526565 L19.6950789,19.5842068 L19.5388436,19.6435009 L12.7190789,19.6435009 C12.3292308,19.6435009 12.0131965,19.9595352 12.0131965,20.3493833 L12.0131965,25.3922068 L1.882373,25.3922068 C1.49252494,25.3922068 1.17649065,25.7082411 1.17649065,26.0980892 L1.17649065,32.1103245 C1.17649065,32.4999715 1.49272594,32.8162068 1.882373,32.8162068 L23.9294318,32.8162068 C24.3192799,32.8162068 24.6353142,32.5001725 24.6353142,32.1103245 L24.6353142,25.1569127 L24.682373,25.0157362 L34.7068436,11.5569127 C35.1777347,10.9241351 35.9612878,10.6055069 36.7401511,10.7300776 C37.5190144,10.8546483 38.1641,11.4017716 38.4141377,12.1498539 L43.3995495,27.0778539 L34.4395495,35.0119715 L34.4395495,35.0119715 Z" id="Shape"></path>
        </g>
    </g>
</svg>