<?xml version="1.0" encoding="UTF-8"?>
<svg width="48px" height="48px" viewBox="0 0 48 48" version="1.1" xmlns="http://www.w3.org/2000/svg" xmlns:xlink="http://www.w3.org/1999/xlink">
    <g id="worktype-icons" stroke="none" stroke-width="1" fill="none" fill-rule="evenodd">
        <g id="ic_work_type_food" fill="#000000" fill-rule="nonzero" stroke="#FFFFFF">
            <path d="M45.2330253,25.045956 L6.31202532,25.045956 C7.00902532,35.255956 15.4940253,43.249956 25.7720253,43.249956 C36.0510253,43.249956 44.5350253,35.255956 45.2330253,25.045956 L45.2330253,25.045956 Z M21.6500253,12.042956 C22.4266784,11.7435052 23.2537516,11.5964926 24.0860253,11.609956 C24.545949,11.6176714 25.0035242,11.6773843 25.4500253,11.787956 L25.6090253,11.908956 L27.0160253,14.455956 L26.2430253,14.015956 C25.622716,13.6622704 24.9220599,13.4735925 24.2080253,13.467956 C23.6490253,13.458956 23.1080253,13.552956 22.6050253,13.715956 C22.2980253,13.815956 22.0690253,13.918956 21.9400253,13.990956 C21.9100253,14.007956 21.8970253,14.071956 21.9340253,14.139956 C22.5460253,15.247956 23.2790253,16.039956 24.1220253,16.515956 C24.8986986,16.2165777 25.7257576,16.0695677 26.5580253,16.082956 C27.0070253,16.089956 27.4650253,16.146956 27.9230253,16.260956 L28.0810253,16.381956 L29.4890253,18.928956 L28.7160253,18.487956 C28.0956217,18.1346196 27.3949713,17.9462875 26.6810253,17.940956 C25.9088408,17.9260104 25.1444803,18.0978886 24.4530253,18.441956 L24.4130253,18.463956 C24.3830253,18.479956 24.3690253,18.544956 24.4060253,18.612956 C25.4660253,20.528956 26.8760253,21.498956 28.6140253,21.526956 C29.2548024,21.5342529 29.8909024,21.4170856 30.4870253,21.181956 L30.6910253,21.101956 L30.7960253,21.293956 L32.0540253,23.569956 L33.5870253,23.569956 C33.2050253,22.872956 32.6720253,21.891956 31.9890253,20.626956 L31.8870253,20.436956 L32.0600253,20.307956 C32.5754017,19.9249553 33.0117623,19.4458077 33.3450253,18.896956 C34.2420253,17.403956 34.1690253,15.689956 33.1100253,13.772956 C33.0730253,13.705956 33.0110253,13.683956 32.9820253,13.699956 C32.7747787,13.8220589 32.5789834,13.9626299 32.3970253,14.119956 C31.9930253,14.460956 31.6270253,14.871956 31.3370253,15.352956 C30.9628765,15.9635118 30.7508443,16.6595005 30.7210253,17.374956 L30.6850253,18.266956 L29.2750253,15.716956 L29.2560253,15.517956 C29.4030253,15.070956 29.5970253,14.650956 29.8300253,14.263956 C30.2594083,13.5495873 30.8219178,12.924275 31.4870253,12.421956 C31.5320253,11.451956 31.2500253,10.408956 30.6370253,9.30095604 C30.6000253,9.23395604 30.5390253,9.21095604 30.5100253,9.22695604 C30.3027787,9.34905893 30.1069834,9.48962992 29.9250253,9.64695604 C29.5200253,9.98895604 29.1550253,10.398956 28.8650253,10.879956 C28.4908765,11.4905118 28.2788443,12.1865005 28.2490253,12.901956 L28.2120253,13.793956 L26.8020253,11.243956 L26.7840253,11.044956 C26.9310253,10.597956 27.1250253,10.177956 27.3570253,9.79095604 C27.7866432,9.07645279 28.3495074,8.45112363 29.0150253,7.94895604 C29.0600253,6.97895604 28.7780253,5.93595604 28.1650253,4.82795604 C28.1280253,4.76095604 28.0670253,4.73795604 28.0380253,4.75495604 C27.9080253,4.82595604 27.7000253,4.96695604 27.4520253,5.17495604 C27.0480253,5.51495604 26.6820253,5.92595604 26.3920253,6.40695604 C26.0182686,7.01762584 25.8065858,7.71359747 25.7770253,8.42895604 L25.7400253,9.32095604 L24.4100253,6.91495604 C24.1860253,6.50995604 23.7360253,6.34495604 23.4140253,6.52495604 C23.0910253,6.70395604 22.9920253,7.17495604 23.2160253,7.57995604 L24.5440253,9.98295604 L23.7710253,9.54295604 C23.150716,9.18927037 22.4500599,9.00059246 21.7360253,8.99495604 C21.1916642,8.98854948 20.6500009,9.07235017 20.1330253,9.24295604 C19.8260253,9.34295604 19.5970253,9.44695604 19.4680253,9.51795604 C19.4380253,9.53495604 19.4240253,9.59995604 19.4620253,9.66695604 C20.0740253,10.774956 20.8060253,11.566956 21.6500253,12.042956 L21.6500253,12.042956 Z M5.72402532,15.247956 C6.33215143,14.6788542 7.04409062,14.2320673 7.82102532,13.931956 C8.23902532,13.769956 8.68602532,13.650956 9.15102532,13.583956 L9.34502532,13.636956 L11.6010253,15.468956 L10.7210253,15.350956 C10.0135164,15.2563773 9.29357371,15.3448638 8.63002532,15.607956 C8.12267308,15.8065518 7.6516528,16.0876772 7.23602532,16.439956 C7.04984803,16.5924829 6.87781687,16.7615019 6.72202532,16.944956 C6.70002532,16.971956 6.71202532,17.036956 6.77202532,17.084956 C7.75302532,17.882956 8.72802532,18.341956 9.68702532,18.466956 C10.2951118,17.8975557 11.0070445,17.4504335 11.7840253,17.149956 C12.2030253,16.987956 12.6490253,16.869956 13.1160253,16.801956 L13.3090253,16.855956 L15.5640253,18.686956 L14.6840253,18.568956 C13.9768438,18.4745512 13.2572677,18.563035 12.5940253,18.825956 C12.086253,19.0247586 11.614884,19.3062285 11.1990253,19.658956 C11.012848,19.8114829 10.8408169,19.9805019 10.6850253,20.163956 C10.6630253,20.189956 10.6750253,20.255956 10.7350253,20.303956 C12.4320253,21.682956 14.1020253,22.052956 15.7240253,21.424956 C16.3210918,21.1910613 16.8671623,20.8436545 17.3320253,20.401956 L17.4920253,20.251956 L17.6610253,20.389956 L21.5130253,23.517956 L23.6710253,23.506956 L18.5210253,19.323956 L18.3510253,19.186956 L18.4640253,19.000956 C18.7987427,18.45198 19.0242102,17.8434896 19.1280253,17.208956 C19.4030253,15.486956 18.6940253,13.925956 16.9970253,12.546956 C16.9370253,12.498956 16.8720253,12.500956 16.8510253,12.526956 C16.7046183,12.7183043 16.5757633,12.9224642 16.4660253,13.136956 C16.2083131,13.6180889 16.0316144,14.1383872 15.9430253,14.676956 C15.8242972,15.3835854 15.8879754,16.1088283 16.1280253,16.783956 L16.4270253,17.623956 L14.1670253,15.789956 L14.0760253,15.611956 C14.0452818,15.1517136 14.0664147,14.6894733 14.1390253,14.233956 C14.2702899,13.4102588 14.5581449,12.6193364 14.9870253,11.903956 C14.6670253,10.987956 14.0160253,10.126956 13.0330253,9.32895604 C12.9740253,9.28095604 12.9090253,9.28295604 12.8880253,9.30895604 C12.7412724,9.50026497 12.6120819,9.70442614 12.5020253,9.91895604 C12.2446607,10.400151 12.0683008,10.9204465 11.9800253,11.458956 C11.8609771,12.1655005 11.9243109,12.8907416 12.1640253,13.565956 L12.4640253,14.405956 L10.2040253,12.570956 L10.1120253,12.393956 C10.0813157,11.9337132 10.1024485,11.4714768 10.1750253,11.015956 C10.3160253,10.133956 10.6250253,9.34995604 11.0250253,8.68595604 C10.7030253,7.76895604 10.0520253,6.90795604 9.07002532,6.11095604 C9.01002532,6.06295604 8.94602532,6.06495604 8.92502532,6.09095604 C8.77826346,6.28225873 8.64907242,6.48642074 8.53902532,6.70095604 C8.28162713,7.18213645 8.10526531,7.7024376 8.01702532,8.24095604 C7.89806609,8.94750409 7.96139794,9.67272263 8.20102532,10.347956 L8.50002532,11.187956 L6.36802532,9.45595604 C6.00902532,9.16495604 5.53102532,9.18195604 5.29902532,9.46895604 C5.06702532,9.75695604 5.15002532,10.230956 5.50902532,10.521956 L7.63902532,12.250956 L6.75802532,12.132956 C6.05051618,12.0384223 5.33058483,12.1269074 4.66702532,12.389956 C3.94469079,12.6662994 3.29975235,13.1129536 2.78702532,13.691956 L2.75802532,13.726956 C2.73702532,13.753956 2.74822285,13.818956 2.80802532,13.866956 C3.79002532,14.664956 4.76502532,15.123956 5.72402532,15.247956 L5.72402532,15.247956 Z" id="Shape"></path>
        </g>
    </g>
</svg>