<?xml version="1.0" encoding="UTF-8"?>
<svg width="48px" height="48px" viewBox="0 0 48 48" version="1.1" xmlns="http://www.w3.org/2000/svg" xmlns:xlink="http://www.w3.org/1999/xlink">
    <!-- Generator: Sketch 61.2 (89653) - https://sketch.com -->
    <title>ic_table</title>
    <desc>Created with Sketch.</desc>
    <g id="ic_table" stroke="none" stroke-width="1" fill="none" fill-rule="evenodd">
        <path d="M35.266,15 C35.6714,15 36,15.344862 36,15.77027 L36,15.77027 L36,33.2297 C36,33.6551 35.6714,34 35.266,34 L35.266,34 L13.734043,34 C13.328642,34 13,33.6551 13,33.2297 L13,33.2297 L13,15.77027 C13,15.344862 13.328642,15 13.734043,15 L13.734043,15 Z M34.5319,25.2703 L14.46809,25.2703 L14.46809,32.4595 L34.5319,32.4595 L34.5319,25.2703 Z M34.5319,16.54054 L14.46809,16.54054 L14.46809,23.72973 L34.5319,23.72973 L34.5319,16.54054 Z" id="Combined-Shape" fill="#000000"></path>
    </g>
</svg>