<?xml version="1.0" encoding="UTF-8"?>
<svg width="48px" height="48px" viewBox="0 0 48 48" version="1.1" xmlns="http://www.w3.org/2000/svg" xmlns:xlink="http://www.w3.org/1999/xlink">
    <g id="worktype-icons" stroke="none" stroke-width="1" fill="none" fill-rule="evenodd">
        <g id="ic_work_type_unknown" fill="#000000" fill-rule="nonzero" stroke="#FFFFFF">
            <path d="M24,2.25 C11.988,2.25 2.25,11.988 2.25,24 C2.25,36.012 11.988,45.75 24,45.75 C36.012,45.75 45.75,36.012 45.75,24 C45.75,11.988 36.012,2.25 24,2.25 Z M23.337,30.8559925 C25.138,30.8559925 26.607,32.336 26.607,34.162 C26.607,35.988 25.102,37.468 23.264,37.468 C21.469,37.468 20.0309925,35.994 20.0309925,34.162 C20.0291364,33.2846243 20.3768476,32.442647 20.9972473,31.8222473 C21.617647,31.2018476 22.4596243,30.8541364 23.337,30.8559925 L23.337,30.8559925 Z M24.074,10.532 C28.192,10.532 31.319,13.108 31.319,16.931 C31.319,19.787 30.202,21.214 27.817,22.738 C25.923,23.948 25.141,25.471 25.097,27.314 C25.097,27.679 25.119,28.023 25.169,28.58 L25.194,28.852 L20.48,28.852 L20.44,28.65 L20.257,27.694 C19.662,24.68 20.724,22.43 23.597,20.372 C23.74,20.27 24.253,19.919 24.276,19.903 C25.435,19.098 25.922,18.5 25.922,17.593 C25.922,16.097 24.852,15.303 23.153,15.303 C22.063,15.303 21.147,15.633 20.272,16.225 C20.099,16.342 19.934,16.465 19.748,16.611 L19.33,16.944 L19.124,17.104 L16.607,13.556 L16.75,13.406 C18.313,11.782 20.893,10.532 24.074,10.532 L24.074,10.532 Z" id="Shape"></path>
        </g>
    </g>
</svg>