<svg xmlns="http://www.w3.org/2000/svg" xmlns:xlink="http://www.w3.org/1999/xlink" version="1.1" width="35pt" height="35pt" viewBox="0 0 35 35">
<path transform="matrix(1,0,0,-1,0,35)" d="M17.5 0C27.164984 0 35 7.835016 35 17.5 35 27.164984 27.164984 35 17.5 35 7.835017 35 0 27.164984 0 17.5 0 7.835016 7.835017 0 17.5 0ZM15.879459 28.702546 17.52447 25.637665 17.417428 25.41005C17.230885 25.013379 17.132887 24.579285 17.132887 24.13031 17.132887 22.6531 18.204009 21.400347 19.644724 21.160149L20.3114 21.049 20.010048 20.444024C19.80665 20.03569 19.699505 19.58363 19.699505 19.114186 19.699505 17.592593 20.83459 16.314887 22.330338 16.126624L22.993084 16.043208 22.726283 15.43083C22.53957 15.002277 22.441992 14.536585 22.441992 14.055395 22.441992 12.341211 23.691742 10.890205 25.366358 10.624117L25.610819 10.585272 26.37999 9.156502H5.481335L15.879459 28.702546ZM16.41 25.598999 15.882999 26.581002 7.146 10.157H23.72L23.666386 10.186369C22.385926 10.932384 21.519869 12.292461 21.44698 13.84284L21.441992 14.055395C21.441992 14.409117 21.483155 14.75716 21.563492 15.093924L21.607 15.257 21.43592 15.309555C19.896508 15.824415 18.787533 17.242455 18.704504 18.9126L18.699503 19.114186C18.699503 19.471186 18.746298 19.821614 18.837185 20.158347L18.886 20.321 18.71606 20.380476C17.25387 20.936772 16.218432 22.317296 16.137936 23.927838L16.132887 24.13031C16.132887 24.556645 16.199612 24.974022 16.328423 25.37055L16.41 25.598999ZM18.584677 24.217907C18.584677 25.117379 19.313843 25.846543 20.213315 25.846543 21.112786 25.846543 21.841952 25.117379 21.841952 24.217907 21.841952 23.318434 21.112786 22.589268 20.213315 22.589268 19.313843 22.589268 18.584677 23.318434 18.584677 24.217907ZM20.841952 24.217907C20.841952 24.565094 20.560502 24.846543 20.213315 24.846543 19.866127 24.846543 19.584677 24.565094 19.584677 24.217907 19.584677 23.87072 19.866127 23.58927 20.213315 23.58927 20.560502 23.58927 20.841952 23.87072 20.841952 24.217907ZM22.944876 21.021954C22.045403 21.021954 21.316239 20.292788 21.316239 19.393317 21.316239 18.493845 22.045403 17.764679 22.944876 17.764679 23.844347 17.764679 24.573513 18.493845 24.573513 19.393317 24.573513 20.292788 23.844347 21.021954 22.944876 21.021954ZM22.944874 20.021954C23.29206 20.021954 23.573513 19.740504 23.573513 19.393317 23.573513 19.04613 23.29206 18.764679 22.944874 18.764679 22.597689 18.764679 22.316239 19.04613 22.316239 19.393317 22.316239 19.740504 22.597689 20.021954 22.944874 20.021954ZM23.91433 14.433525C23.91433 15.332996 24.643496 16.062163 25.542967 16.062163 26.442439 16.062163 27.171605 15.332996 27.171605 14.433525 27.171605 13.534052 26.442439 12.804888 25.542967 12.804888 24.643496 12.804888 23.91433 13.534052 23.91433 14.433525ZM26.171605 14.433525C26.171605 14.780712 25.890154 15.062162 25.542967 15.062162 25.19578 15.062162 24.91433 14.780712 24.91433 14.433525 24.91433 14.086338 25.19578 13.804888 25.542967 13.804888 25.890154 13.804888 26.171605 14.086338 26.171605 14.433525Z" fill="#2d2d2d" fill-rule="evenodd"/>
</svg>
