<?xml version="1.0" encoding="UTF-8"?>
<svg width="48px" height="48px" viewBox="0 0 48 48" version="1.1" xmlns="http://www.w3.org/2000/svg" xmlns:xlink="http://www.w3.org/1999/xlink">
    <!-- Generator: Sketch 61.2 (89653) - https://sketch.com -->
    <title>ic_dials</title>
    <desc>Created with Sketch.</desc>
    <g id="ic_dials" stroke="none" stroke-width="1" fill="none" fill-rule="evenodd">
        <path d="M17.59054,26.0611 C18.80293,26.4088 19.64034,27.5292 19.64173,28.8056 C19.64034,30.0819 18.80293,31.2024 17.59054,31.55 L17.59054,33.2167 C17.59054,33.6462 17.24678,33.9944 16.82272,33.9944 C16.39867,33.9944 16.0549,33.6462 16.0549,33.2167 L16.0549,31.55 C14.839931,31.2054 14,30.0836 14,28.8056 C14,27.5275 14.839931,26.4057 16.0549,26.0611 L16.0549,14.777778 C16.0549,14.348223 16.39867,14 16.82272,14 C17.24678,14 17.59054,14.348223 17.59054,14.777778 L17.59054,26.0611 Z M15.53936,28.8111 C15.53936,29.5291 16.11394,30.1111 16.82272,30.1111 C17.5315,30.1111 18.10608,29.5291 18.10608,28.8111 C18.10608,28.0931 17.5315,27.5111 16.82272,27.5111 C16.11394,27.5111 15.53936,28.0931 15.53936,28.8111 Z M31.9488,26.0611 C33.1612,26.4088 33.9986,27.5292 34,28.8056 C33.9986,30.0819 33.1612,31.2024 31.9488,31.55 L31.9488,33.2167 C31.9488,33.4945 31.8025,33.7513 31.5649,33.8902 C31.3273,34.0292 31.0346,34.0292 30.7971,33.8902 C30.5595,33.7513 30.4132,33.4945 30.4132,33.2167 L30.4132,31.55 C29.1982,31.2054 28.3583,30.0836 28.3583,28.8056 C28.3583,27.5275 29.1982,26.4057 30.4132,26.0611 L30.4132,14.777778 C30.4132,14.348223 30.7569,14 31.181,14 C31.6051,14 31.9488,14.348223 31.9488,14.777778 L31.9488,26.0611 Z M29.8976,28.8111 C29.8976,29.5291 30.4722,30.1111 31.181,30.1111 C31.8898,30.1111 32.4644,29.5291 32.4644,28.8111 C32.4644,28.0931 31.8898,27.5111 31.181,27.5111 C30.4722,27.5111 29.8976,28.0931 29.8976,28.8111 Z M21.18285,19.19444 C21.18424,20.47081 22.02165,21.59124 23.23404,21.93889 L23.23404,33.2222 C23.23404,33.6518 23.5778,34 24.0019,34 C24.4259,34 24.7697,33.6518 24.7697,33.2222 L24.7697,21.93889 C25.9846,21.59428 26.8246,20.4725 26.8246,19.19444 C26.8246,17.91639 25.9846,16.79461 24.7697,16.45 L24.7697,14.783333 C24.7697,14.353779 24.4259,14.0055556 24.0019,14.0055556 C23.5778,14.0055556 23.23404,14.353779 23.23404,14.783333 L23.23404,16.45 C22.02165,16.79765 21.18424,17.91808 21.18285,19.19444 Z M24.0019,17.88889 C24.7106,17.88889 25.2852,18.47092 25.2852,19.18889 C25.2852,19.90686 24.7106,20.48889 24.0019,20.48889 C23.29308,20.48889 22.7185,19.90686 22.7185,19.18889 C22.7185,18.47092 23.29308,17.88889 24.0019,17.88889 Z" id="Shape" fill="#000000"></path>
    </g>
</svg>