<svg xmlns="http://www.w3.org/2000/svg" xmlns:xlink="http://www.w3.org/1999/xlink" version="1.1" width="35pt" height="35pt" viewBox="0 0 35 35">
<path transform="matrix(1,0,0,-1,0,35)" d="M17.5 0C27.164984 0 35 7.835016 35 17.5 35 27.164984 27.164984 35 17.5 35 7.835017 35 0 27.164984 0 17.5 0 7.835016 7.835017 0 17.5 0ZM25.902289 20.129857 17.5 27.970673 9.097712 20.129857V9.484764L9.105269 9.339348C9.195207 8.557726 9.834301 7.984764 10.597712 7.984764L16.425372 7.984785 14.775749 14.064899 18.091168 17.302374 18.09075 20.3519 19.769749 17.3439 16.985302 13.735714 20.489882 7.984785 24.402287 7.984764 24.547707 7.992323C25.329329 8.08226 25.902289 8.721354 25.902289 9.484764V20.129857ZM17.499749 26.6039 24.901749 19.6959 24.902289 9.484766C24.902289 9.230433 24.711102 9.017176 24.461224 8.988153L24.373494 8.983934 21.05075 8.984901 18.19675 13.6689 20.964779 17.2546 17.091168 24.194664 17.09075 17.7239 13.657572 14.370079 15.117749 8.984901 10.59771 8.984766C10.343378 8.984766 10.130123 9.175953 10.101101 9.425831L10.096882 9.513561 10.096749 19.6949 17.499749 26.6039Z" fill="#2d2d2d" fill-rule="evenodd"/>
</svg>
