<svg xmlns="http://www.w3.org/2000/svg" xmlns:xlink="http://www.w3.org/1999/xlink" version="1.1" width="35pt" height="35pt" viewBox="0 0 35 35">
<path transform="matrix(1,0,0,-1,0,35)" d="M17.5 0C27.164984 0 35 7.835016 35 17.5 35 27.164984 27.164984 35 17.5 35 7.835017 35 0 27.164984 0 17.5 0 7.835016 7.835017 0 17.5 0ZM18.70454 28.769612C16.742993 28.6844 15.010639 27.543864 14.136887 25.839383L14.055 25.671 13.882013 25.717467C13.652885 25.770239 13.417438 25.797419 13.178792 25.797419L12.994347 25.792115C11.589947 25.711136 10.417246 24.711335 10.096924 23.364563L10.089 23.329 10.02039 23.3037C8.553034 22.732142 7.549844 21.309628 7.549844 19.688344 7.549844 17.545233 9.28759 15.807564 11.430623 15.807564H11.533735L11.533 9.098 11.346806 9.206419C10.929981 9.428129 10.410089 9.572235 9.793852 9.634451 9.519107 9.662188 9.273895 9.461948 9.246158 9.187202 9.21842 8.912457 9.418659 8.667246 9.693405 8.639507L9.877119 8.618029C10.889244 8.48255 11.411456 8.112104 11.533 7.442999L11.533792 6.72526 12.529772 6.661989 12.548887 6.845282C12.568243 7.08609 12.563131 7.312551 12.533 7.531L12.533746 15.807564H17V11.68434L17.008055 11.594463C17.05039 11.361214 17.25454 11.18434 17.5 11.18434 17.776143 11.18434 18 11.408195 18 11.68434V15.807564H21.342288L21.558728 15.813814 21.714148 15.827484C21.854784 15.814264 21.995228 15.807564 22.135945 15.807564 22.247027 15.807564 22.357159 15.81163 22.466202 15.81962L22.466969 7.531C22.436816 7.312551 22.431704 7.08609 22.451062 6.845282L22.470175 6.661989 23.466156 6.72526 23.466969 7.442999C23.588492 8.112104 24.110703 8.48255 25.12283 8.618029L25.306544 8.639507C25.58129 8.667246 25.781529 8.912457 25.75379 9.187202 25.726054 9.461948 25.48084 9.662188 25.206095 9.634451 24.589858 9.572235 24.069968 9.428129 23.653143 9.206419L23.466969 9.098 23.46619 16.009539C25.277407 16.575409 26.591843 18.266287 26.59164 20.264195L26.585944 20.490584C26.510233 21.992217 25.68519 23.334122 24.421254 24.08963L24.279002 24.17 24.25173 24.346611C23.79244 26.880242 21.574799 28.77474 18.940987 28.77474L18.70454 28.769612ZM12.158709 16.807564H17.5 21.342288C21.448153 16.807564 21.55574 16.813822 21.665617 16.826117L21.772807 16.82655C21.894389 16.813939 22.015196 16.807564 22.135945 16.807564 24.044602 16.807564 25.591834 18.355095 25.59164 20.264143 25.59164 21.617032 24.807223 22.827555 23.603793 23.39327L23.345755 23.51457 23.31875 23.798413C23.105109 26.044049 21.212885 27.77474 18.940987 27.77474 17.070748 27.77474 15.424028 26.596117 14.801592 24.864068L14.614246 24.34274 14.11478 24.582356C13.821157 24.72322 13.504154 24.797419 13.178792 24.797419 12.077948 24.797419 11.155479 23.97183 11.026061 22.887253L10.986275 22.553826 10.662579 22.464509C9.423988 22.122742 8.549845 20.991885 8.549845 19.688344 8.549845 18.097527 9.839865 16.807564 11.430623 16.807564H11.908875C11.920399 16.810528 11.932085 16.813092 11.943916 16.815239L12.033792 16.823296C12.076924 16.823296 12.118782 16.817833 12.158709 16.807564ZM18.69026 8.614677C18.69026 7.957315 18.157362 7.424417 17.5 7.424417 16.842638 7.424417 16.30974 7.957315 16.30974 8.614677 16.30974 9.272039 16.842638 9.804937 17.5 9.804937 18.157362 9.804937 18.69026 9.272039 18.69026 8.614677ZM6.946628 8.35457C7.603991 8.35457 8.136888 8.887468 8.136888 9.54483 8.136888 10.202192 7.603991 10.73509 6.946628 10.73509 6.289266 10.73509 5.756368 10.202192 5.756368 9.54483 5.756368 8.887468 6.289266 8.35457 6.946628 8.35457ZM29.243634 9.54483C29.243634 8.887468 28.710736 8.35457 28.053374 8.35457 27.396012 8.35457 26.863114 8.887468 26.863114 9.54483 26.863114 10.202192 27.396012 10.73509 28.053374 10.73509 28.710736 10.73509 29.243634 10.202192 29.243634 9.54483Z" fill="#2d2d2d" fill-rule="evenodd"/>
</svg>
