<?xml version="1.0" encoding="UTF-8"?>
<svg width="48px" height="48px" viewBox="0 0 48 48" version="1.1" xmlns="http://www.w3.org/2000/svg" xmlns:xlink="http://www.w3.org/1999/xlink">
    <!-- Generator: Sketch 61.2 (89653) - https://sketch.com -->
    <title>ic_map</title>
    <desc>Created with Sketch.</desc>
    <g id="ic_map" stroke="none" stroke-width="1" fill="none" fill-rule="evenodd">
        <path d="M27.541006,13 L27.640406,13.006607 L27.723206,13.022227 C27.779106,13.036187 27.835906,13.05714 27.889606,13.084502 L35.275606,16.750766 L35.368206,16.805486 C35.573506,16.946826 35.699206,17.180166 35.700006,17.432466 L35.700006,33.927176 L35.692306,34.040576 C35.660506,34.263776 35.531006,34.463776 35.335006,34.584476 C35.106006,34.725576 34.819306,34.738276 34.578606,34.617776 L27.609006,31.153676 L27.475706,31.153576 L20.478816,34.617576 L20.365846,34.661576 L20.300716,34.677976 C20.254986,34.687176 20.205266,34.692776 20.155276,34.693576 L20.059496,34.686976 L19.976726,34.671376 C19.920826,34.657376 19.864096,34.636476 19.810296,34.609076 L12.424385,30.942876 L12.3317,30.888076 C12.126484,30.746776 12.00077,30.513476 12,30.261176 L12,13.7664 L12.008679,13.65427 C12.042409,13.433333 12.172655,13.23544 12.368252,13.116252 C12.596796,12.976988 12.881836,12.965134 13.121346,13.084954 L20.091056,16.540026 L20.224086,16.540126 L27.239506,13.076138 L27.347306,13.033445 L27.409306,13.017153 L27.477006,13.005682 L27.541006,13 Z M26.769206,15.009046 L21.014056,17.865806 L20.930756,18.000166 L20.930756,32.684576 L26.685906,29.827776 L26.769206,29.693476 L26.769206,15.009046 Z M13.546156,15.009046 L13.546156,29.693476 L13.629456,29.827776 L19.384606,32.684576 L19.384606,18.000166 L19.301296,17.865806 L13.546156,15.009046 Z M28.315306,15.009046 L28.315306,29.693476 L28.398706,29.827776 L34.153806,32.684576 L34.153806,18.000166 L34.070506,17.865806 L28.315306,15.009046 Z" id="Combined-Shape" fill="#000000"></path>
    </g>
</svg>