<?xml version="1.0" encoding="UTF-8"?>
<svg width="48px" height="48px" viewBox="0 0 48 48" version="1.1" xmlns="http://www.w3.org/2000/svg" xmlns:xlink="http://www.w3.org/1999/xlink">
    <g id="ic_zoom_interactive" stroke="none" stroke-width="1" fill="none" fill-rule="evenodd">
        <path d="M22.708826,14 C27.518606,14 31.417606,17.899076 31.417606,22.708826 C31.417606,24.583106 30.822206,26.380006 29.725706,27.868106 L29.525006,28.129006 L34.675606,33.279606 L34.675606,33.744306 L33.744306,34.675606 L33.279606,34.675606 L28.128006,29.524006 L28.081506,29.563406 C26.731206,30.623606 25.108706,31.256506 23.397606,31.390706 L23.054206,31.410906 L22.708826,31.417606 C17.899076,31.417606 14,27.518606 14,22.708826 C14,17.899076 17.899076,14 22.708826,14 Z M22.708826,15.862096 C18.927476,15.862096 15.862096,18.927476 15.862096,22.708826 C15.862096,26.490206 18.927476,29.555506 22.708826,29.555506 C26.490206,29.555506 29.555506,26.490206 29.555506,22.708826 C29.555506,18.927476 26.490206,15.862096 22.708826,15.862096 Z" id="Combined-Shape" fill="#000000"></path>
        <polygon id="Path" fill="#000000" points="25.850006 23.997106 25.850006 21.997056 20.144116 21.997056 20.144116 23.997106"></polygon>
    </g>
</svg>