<?xml version="1.0" encoding="UTF-8"?>
<svg width="48px" height="48px" viewBox="0 0 48 48" version="1.1" xmlns="http://www.w3.org/2000/svg" xmlns:xlink="http://www.w3.org/1999/xlink">
    <g id="ic_layers" stroke="none" stroke-width="1" fill="none" fill-rule="evenodd">
        <path d="M34.01,28.049 C34.4,28.058 34.714,28.371 34.714,28.755 C34.714,29.042 34.54,29.288 34.285,29.401 L24.655,33.751 C24.565,33.792 24.462,33.817 24.352,33.817 C24.243,33.817 24.139,33.793 24.05,33.752 L14.42,29.401 C14.17,29.286 14,29.042 14,28.759 C14,28.369 14.322,28.053 14.722,28.053 C14.831,28.053 14.935,28.076 15.024,28.117 L24.352,32.331 L33.676,28.119 C33.772,28.073 33.878,28.049 33.992,28.049 L34.01,28.049 Z" id="Path" fill="#000000"></path>
        <path d="M34.01,23.698 C34.4,23.708 34.714,24.02 34.714,24.405 C34.714,24.691 34.54,24.938 34.285,25.051 L24.655,29.401 C24.565,29.442 24.462,29.466 24.352,29.466 C24.243,29.466 24.139,29.443 24.05,29.402 L14.42,25.051 C14.17,24.936 14,24.692 14,24.409 C14,24.019 14.322,23.702 14.722,23.702 C14.831,23.702 14.935,23.726 15.024,23.767 L24.352,27.981 L33.676,23.769 C33.772,23.723 33.878,23.698 33.992,23.698 L34.009,23.698 L34.01,23.698 Z" id="Path" fill="#000000"></path>
        <path d="M24.352,15 L24.377,15.001 C24.477,15.004 24.573,15.027 24.655,15.065 L34.286,19.416 C34.536,19.531 34.706,19.776 34.706,20.058 C34.706,20.34 34.536,20.585 34.286,20.7 L24.656,25.05 L24.563,25.085 C24.497,25.105 24.426,25.115 24.353,25.115 C24.243,25.115 24.139,25.092 24.051,25.051 L14.42,20.699 C14.17,20.584 14,20.339 14,20.057 C14,19.775 14.17,19.53 14.42,19.415 L24.05,15.065 L24.142,15.03 C24.209,15.01 24.279,15 24.352,15 Z M24.353,16.487 L24.352,16.487 L16.445,20.059 L24.352,23.631 L32.26,20.059 L24.353,16.487 Z" id="Combined-Shape" fill="#000000"></path>
    </g>
</svg>