<svg xmlns="http://www.w3.org/2000/svg" xmlns:xlink="http://www.w3.org/1999/xlink" version="1.1" width="35pt" height="35pt" viewBox="0 0 35 35">
<path transform="matrix(1,0,0,-1,0,35)" d="M17.5 0C27.164984 0 35 7.835016 35 17.5 35 27.164984 27.164984 35 17.5 35 7.835017 35 0 27.164984 0 17.5 0 7.835016 7.835017 0 17.5 0ZM25.826869 21.454285 17.499882 28.691407 9.172952 21.454335 9.171386 14.983524C8.063476 14.743858 7.03312 14.320971 6.082672 13.714506 5.849883 13.565968 5.781584 13.25684 5.930123 13.024052 6.078661 12.791262 6.387789 12.722963 6.620578 12.871502 8.18361 13.868845 9.990769 14.313128 12.05659 14.202164L12.783143 14.147139C13.129507 14.114363 13.37394 14.056446 14.352007 13.706766L16.62081 12.875996 16.941996 12.757917C17.060904 12.714087 17.178393 12.671215 17.294526 12.629301L17.367142 12.602711C20.29991 11.549225 22.366049 11.113411 24.53656 11.306253 24.870369 11.335911 25.19901 11.381973 25.522519 11.444927L25.826817 11.500551V11.509487C26.920907 11.76108 27.955224 12.211611 28.931189 12.88059 29.158959 13.036716 29.217038 13.347925 29.060912 13.575695 28.904786 13.803467 28.593577 13.861546 28.365807 13.70542 27.562378 13.154705 26.718083 12.77099 25.826823 12.538986L25.826869 21.454285ZM10.170882 15.147669C10.23054 15.154482 10.290405 15.160805 10.350474 15.166637L10.393974 15.171333C10.940775 15.222195 11.504291 15.232559 12.084381 15.202579L12.116574 15.200371C12.240518 15.193657 12.365221 15.185106 12.490682 15.174715L12.522554 15.172529C13.125816 15.121113 13.818166 14.946369 14.727001 14.637638L14.905272 14.576374C15.086283 14.513474 15.277262 14.445049 15.493931 14.365664L17.69527 13.547867C20.505515 12.537975 22.455613 12.125832 24.447884 12.302837 24.536898 12.310745 24.625454 12.319948 24.713566 12.330458L24.825882 12.346254V20.999257L17.499882 27.367257 10.172882 20.998255 10.170882 15.147669ZM12.522734 12.218897C10.084939 12.426668 7.932465 11.941702 6.082672 10.761381 5.849883 10.612843 5.781584 10.303715 5.930123 10.070927 6.078661 9.838137 6.387789 9.769838 6.620578 9.918377 8.279026 10.976603 10.212317 11.412186 12.437813 11.222509 12.496348 11.21752 12.549669 11.213318 12.599341 11.209404 13.032963 11.175234 13.188543 11.162973 14.108056 10.840139L17.367142 9.649586C20.29991 8.5961 22.366049 8.160286 24.53656 8.353128 26.115878 8.493444 27.579499 9.000942 28.931189 9.927465 29.158959 10.083591 29.217038 10.3948 29.060912 10.62257 28.904786 10.850342 28.593577 10.908421 28.365807 10.752295 27.158987 9.925074 25.859957 9.474646 24.448063 9.349205 22.360922 9.163771 20.320065 9.624929 17.288037 10.742571L15.49411 11.412031C15.205219 11.517879 14.961998 11.604239 14.727181 11.684006L14.432079 11.781969C13.66559 12.030046 13.058967 12.173193 12.522734 12.218897Z" fill="#2d2d2d" fill-rule="evenodd"/>
</svg>
