<?xml version="1.0" encoding="UTF-8"?>
<svg width="48px" height="48px" viewBox="0 0 48 48" version="1.1" xmlns="http://www.w3.org/2000/svg" xmlns:xlink="http://www.w3.org/1999/xlink">
    <!-- Generator: Sketch 61.2 (89653) - https://sketch.com -->
    <title>ic_work_type_leak</title>
    <desc>Created with Sketch.</desc>
    <g id="worktype-icons" stroke="none" stroke-width="1" fill="none" fill-rule="evenodd">
        <g id="ic_work_type_leak" fill="#000000" fill-rule="nonzero" stroke="#FFFFFF">
            <path d="M36.27456,37.4396834 C36.1274017,37.270157 35.9095927,37.1789699 35.6855495,37.1930903 C35.4615063,37.2072106 35.2568695,37.3250225 35.13216,37.5116834 L33.16416,40.4492834 C32.77824,40.9724834 32.52864,41.5206434 32.44128,42.0841634 C32.12832,44.0992034 33.72768,45.6889634 35.7264,45.6889634 C37.71648,45.6889634 39.30432,44.1030434 39.01152,42.0812834 C38.92992,41.5187234 38.6832,40.9715234 38.29152,40.4387234 L36.33696,37.5232034 L36.27456,37.4396834 L36.27456,37.4396834 Z M18.40896,1.6604834 L17.58336,1.6604834 C17.185715,1.6604834 16.86336,1.98283838 16.86336,2.3804834 L16.86336,3.6764834 L7.20576,3.6764834 L7.03296,3.6035234 C6.8016,3.3635234 6.54912,3.2492834 6.26496,3.2492834 C5.52768,3.2492834 5.0112,3.7820834 5.0112,4.4848034 C5.0112,5.1376034 5.5632,5.6492834 6.26496,5.6492834 C6.52224,5.6492834 6.78624,5.5494434 7.05984,5.3411234 L7.2048,5.2921634 L16.86432,5.2931234 L16.86432,9.1676834 L12.10848,9.1676834 C11.7130736,9.16767075 11.3916433,9.48652964 11.38848,9.8819234 L11.37216,11.9804834 L3.36,11.9804834 C2.96235498,11.9804834 2.64,12.3028384 2.64,12.7004834 L2.64,21.3116834 C2.64,21.7100834 2.96256,22.0316834 3.36,22.0316834 L28.89216,22.0316834 C30.0839713,22.0316823 31.0505709,22.9969932 31.05216,24.1888034 L31.06176,30.2780834 L28.54848,30.2780834 C28.150835,30.2780834 27.82848,30.6004384 27.82848,30.9980834 L27.82848,32.7203234 C27.82848,33.1177634 28.15104,33.4403234 28.54848,33.4403234 L44.64,33.4403234 C45.037645,33.4403234 45.36,33.1179684 45.36,32.7203234 L45.36,30.9980834 C45.36,30.6004384 45.037645,30.2780834 44.64,30.2780834 L42.32832,30.2780834 L42.32832,19.4627234 C42.3283594,15.3664379 39.0172061,12.0406942 34.92096,12.0227234 L24.95616,11.9795234 L24.93888,9.8819234 C24.9357167,9.48652964 24.6142864,9.16767075 24.21888,9.1676834 L19.12896,9.1676834 L19.12896,5.2931234 L28.60224,5.2921634 L28.78272,5.3737634 C29.0592,5.6905634 29.35488,5.8403234 29.68032,5.8403234 C30.38592,5.8403234 30.9696,5.3708834 30.9696,4.4848034 C30.9696,3.5977634 30.38592,3.1292834 29.68032,3.1292834 C29.35392,3.1292834 29.0592,3.2790434 28.78272,3.5958434 L28.60224,3.6774434 L19.12896,3.6774434 L19.12896,2.3804834 C19.12896,1.98283838 18.806605,1.6604834 18.40896,1.6604834 L18.40896,1.6604834 Z" id="Shape"></path>
        </g>
    </g>
</svg>