<?xml version="1.0" encoding="UTF-8" standalone="no"?>
<!DOCTYPE svg PUBLIC "-//W3C//DTD SVG 1.1//EN" "http://www.w3.org/Graphics/SVG/1.1/DTD/svg11.dtd">
<svg xmlns="http://www.w3.org/2000/svg" xmlns:xlink="http://www.w3.org/1999/xlink" version="1.1" width="35pt" height="35pt" viewBox="0 0 35 35">
<g enable-background="new">
<path transform="matrix(1,0,0,-1,0,35)" d="M 17.5 0 C 27.164984 0 35 7.835016 35 17.5 C 35 27.164984 27.164984 35 17.5 35 C 7.835017 35 0 27.164984 0 17.5 C 0 7.835016 7.835017 0 17.5 0 Z M 29.149659 26.5 L 16.589217 26.5 L 17.349837 25.6636 C 18.193064 24.736367 18.891375 23.826275 19.445925 22.933346 C 19.470852 22.838707 19.522826 22.755045 19.59308 22.691123 C 20.572604 21.041977 21.058686 19.451794 21.058686 17.920706 C 21.058686 16.375594 20.999392 14.823116 20.880795 13.26325 L 20.732314 13.162388 C 20.109753 12.76515 19.446665 12.538399 18.730072 12.460386 L 18.729788 17.64301 L 13.207146 22.388794 L 7.684537 17.643038 L 7.683732 13.620659 C 7.156386 13.376106 6.631217 13.065193 6.108685 12.688484 L 6.693485 11.877306 L 6.972424 12.071375 C 8.202736 12.896307 9.418261 13.299953 10.627581 13.29291 C 10.785945 13.290358 10.94706 13.282131 11.110956 13.268217 C 11.339713 13.246269 11.492343 13.228182 11.726502 13.165071 C 11.824454 13.13558 11.94552 13.095516 12.104396 13.040192 L 13.889198 12.39229 C 14.463903 12.181828 14.974154 12.009445 15.446479 11.872223 C 16.565009 11.537405 17.466309 11.396029 18.415417 11.434803 C 19.252385 11.468996 20.038674 11.663301 20.775465 12.036741 C 20.717206 11.427954 20.649956 10.818045 20.573718 10.207012 L 20.57267 10.202271 L 20.565234 10.197102 C 19.72463 9.647902 18.771502 9.439575 17.671916 9.514765 C 16.674775 9.582949 15.678352 9.852798 14.233076 10.382074 L 13.0482 10.820745 L 12.616282 10.972435 C 12.032485 11.169769 11.588198 11.281939 11.198372 11.315163 C 9.662516 11.446064 8.300279 11.139143 7.129022 10.391785 L 7.666928 9.54878 L 7.895966 9.686543 C 8.823762 10.211473 9.891706 10.422905 11.113451 10.318775 C 11.14429 10.316147 11.17269 10.313879 11.199345 10.31175 C 11.471263 10.290037 11.561452 10.282835 12.205603 10.055466 L 14.233831 9.318726 C 15.581852 8.840286 16.574568 8.587465 17.603695 8.517094 C 19.00592 8.421211 20.249808 8.723921 21.337443 9.515371 C 21.359313 9.530107 21.380169 9.546228 21.39981 9.563478 C 24.352507 12.156639 26.49773 15.111944 27.384339 17.762072 C 28.247015 20.34066 28.817673 23.070805 29.096589 25.95182 L 29.149659 26.5 Z M 11.014196 14.276182 L 10.901028 14.285709 C 10.810234 14.290085 10.719475 14.292511 10.628756 14.29299 C 10.017572 14.301628 9.435682 14.236753 8.884143 14.09791 L 8.683001 14.042 L 8.684 17.184 L 13.207001 21.071 L 17.729 17.185 L 17.73 12.461 L 17.671916 12.463995 C 17.06441 12.505535 16.457169 12.621933 15.748528 12.826246 C 15.30634 12.957764 14.82393 13.122898 14.282501 13.323109 L 13.081509 13.765043 C 12.080009 14.128807 11.826172 14.196247 11.414165 14.242508 L 11.34901 14.247993 C 11.297812 14.25473 11.247658 14.260193 11.198373 14.264393 L 11.014196 14.276182 Z M 20.811684 22.561047 C 21.402522 21.438618 21.784277 20.331044 21.955084 19.238289 L 26.800389 19.238289 C 27.11876 20.31889 27.386345 21.426459 27.603125 22.561047 L 20.811684 22.561047 Z M 22.053204 18.222405 L 22.052613 18.238289 L 26.488736 18.238289 C 26.471285 18.18524 26.453707 18.132258 26.436005 18.079342 L 26.326525 17.769198 C 25.959162 16.779492 25.403141 15.73975 24.685313 14.692118 L 21.974036 14.692118 C 22.030613 15.773466 22.058686 16.848778 22.058686 17.920706 L 22.053204 18.222405 Z M 27.779896 23.561047 C 27.912547 24.3765 28.019665 25.20554 28.101243 26.04818 L 28.042752 25.5 L 18.81475 25.5 L 18.920079 25.3736 C 19.416033 24.76523 19.8536 24.161049 20.232504 23.561047 L 27.779896 23.561047 Z M 21.913699 13.692118 L 23.952654 13.692118 C 23.312376 12.871481 22.578188 12.054214 21.762963 11.260532 L 21.69175 11.193001 L 21.778954 12.037781 C 21.83125 12.591213 21.876145 13.142544 21.913699 13.692118 Z " fill="#2d2d2d" fill-rule="evenodd"/>
</g>
</svg>
