<?xml version="1.0" encoding="UTF-8"?>
<svg width="48px" height="48px" viewBox="0 0 48 48" version="1.1" xmlns="http://www.w3.org/2000/svg" xmlns:xlink="http://www.w3.org/1999/xlink">
    <!-- Generator: Sketch 61.2 (89653) - https://sketch.com -->
    <title>ic_work_type_muck_out</title>
    <desc>Created with Sketch.</desc>
    <g id="worktype-icons" stroke="none" stroke-width="1" fill="none" fill-rule="evenodd">
        <g id="ic_work_type_muck_out" fill="#000000" fill-rule="nonzero" stroke="#FFFFFF">
            <path d="M2.75,42.938 L2.75,45.275 C2.75,46.087 3.445,46.75 4.307,46.75 L22.28,46.75 L23.485,45.6 C23.8766961,45.2294542 24.395808,45.0235995 24.935,45.025 L29.609,45.025 C30.655,45.025 31.522,45.775 31.649,46.75 L42.259,46.75 C43.122,46.75 43.817,46.087 43.817,45.275 L43.817,42.937 L2.75,42.938 Z M43.817,11.214 L24.25,11.214 L24.25,31.15 L9.729,31.15 C5.872,31.15 2.75,34.13 2.75,37.8 L2.75,41 L43.817,41 L43.817,11.214 Z M44.5,1.25 L23.567,1.25 C23.1527864,1.25 22.817,1.58578644 22.817,2 L22.817,8.625 C22.817,9.039 23.152,9.375 23.567,9.375 L44.5,9.375 C44.9142136,9.375 45.25,9.03921356 45.25,8.625 L45.25,2 C45.25,1.58578644 44.9142136,1.25 44.5,1.25 Z" id="Shape"></path>
        </g>
    </g>
</svg>